<svg width="154" height="40" viewBox="0 0 154 40" fill="none" xmlns="http://www.w3.org/2000/svg">
<g clip-path="url(#clip0_85_1119)">
<path d="M50.1341 7.54644C47.9728 8.45116 45.5967 11.0071 44.8463 14.2154C43.8959 18.2804 47.8508 19.9993 48.1752 19.4357C48.557 18.7734 47.4665 18.5495 47.2421 16.4404C46.952 13.7163 48.2184 10.6724 49.8122 9.33685C50.1085 9.08872 50.0944 9.43408 50.0944 10.0729C50.0944 11.2152 50.0313 21.4702 50.0313 23.6104C50.0313 26.5063 49.9117 27.4208 49.6968 28.3245C49.4792 29.2402 49.1293 29.859 49.3944 30.0973C49.6907 30.3639 50.9556 29.7298 51.6878 28.7078C52.5659 27.482 52.8733 26.01 52.9285 24.4113C52.9951 22.4842 52.9923 19.4263 52.9951 17.6821C52.9978 16.0825 53.0221 11.3982 52.9671 8.5822C52.9536 7.89149 51.038 7.16684 50.134 7.5456L50.1341 7.54644ZM126.884 21.0994C126.815 22.6049 126.481 23.7817 126.068 24.6118C125.267 26.2187 123.606 26.7177 122.9 24.4077C122.516 23.1485 122.498 21.0455 122.774 19.2883C123.055 17.4982 123.841 16.1463 125.142 16.2682C126.425 16.3888 127.026 18.0421 126.884 21.0993V21.0994ZM105.253 30.4402C105.236 32.9417 104.842 35.1351 103.998 35.7721C102.8 36.6754 101.191 35.9978 101.524 34.1724C101.819 32.5571 103.213 30.9075 105.256 28.8918C105.256 28.8918 105.261 29.3515 105.253 30.4402H105.253ZM104.926 21.0848C104.853 22.4561 104.497 23.8336 104.109 24.612C103.309 26.2189 101.635 26.7212 100.942 24.4078C100.467 22.8272 100.581 20.7815 100.816 19.4925C101.12 17.8201 101.858 16.2686 103.183 16.2686C104.472 16.2686 105.108 17.6824 104.926 21.0849V21.0848ZM92.3948 21.0638C92.3162 22.5161 92.0329 23.7302 91.5783 24.612C90.7557 26.2078 89.1282 26.7139 88.4105 24.4078C87.8931 22.745 88.0692 20.4776 88.2845 19.2527C88.6039 17.4351 89.4037 16.1465 90.6524 16.2686C91.935 16.3939 92.5585 18.0423 92.3948 21.0639V21.0638ZM149.822 22.7602C149.508 22.7602 149.365 23.0834 149.247 23.6274C148.836 25.5189 148.405 25.946 147.848 25.946C147.227 25.946 146.668 25.0094 146.524 23.1345C146.411 21.6602 146.43 18.946 146.574 16.246C146.603 15.6913 146.45 15.1424 144.962 14.6019C144.322 14.3694 143.392 14.0271 142.928 15.1456C141.619 18.3057 141.107 20.8146 140.986 21.8338C140.98 21.8865 140.915 21.8973 140.904 21.7741C140.827 20.9578 140.655 19.4744 140.634 16.3579C140.63 15.7498 140.501 15.2322 139.83 14.8085C139.394 14.5335 138.072 14.0472 137.596 14.6257C137.183 15.0989 136.706 16.3722 136.209 17.8816C135.806 19.1084 135.525 19.9383 135.525 19.9383C135.525 19.9383 135.53 16.6282 135.535 15.3726C135.537 14.8989 135.212 14.7411 135.114 14.7125C134.673 14.5845 133.804 14.3707 133.435 14.3707C132.98 14.3707 132.869 14.625 132.869 14.9956C132.869 15.0441 132.797 19.3537 132.797 22.3672C132.797 22.4981 132.797 22.6409 132.798 22.7926C132.547 24.1776 131.731 26.0577 130.843 26.0577C129.954 26.0577 129.535 25.2717 129.535 21.6792C129.535 19.5834 129.598 18.6721 129.629 17.1563C129.647 16.2833 129.681 15.6128 129.679 15.4607C129.673 14.9941 128.866 14.7589 128.491 14.672C128.114 14.5844 127.786 14.5504 127.53 14.565C127.168 14.5855 126.911 14.8231 126.911 15.15C126.911 15.3252 126.913 15.6585 126.913 15.6585C126.447 14.9253 125.696 14.415 125.197 14.2671C123.852 13.8677 122.449 14.2216 121.39 15.7028C120.549 16.8796 120.042 18.2125 119.842 20.1275C119.697 21.5275 119.744 22.9472 120.004 24.1479C119.69 25.5027 119.108 26.0577 118.471 26.0577C117.547 26.0577 116.876 24.5482 116.954 21.9376C117.005 20.2205 117.349 19.0155 117.724 17.2722C117.885 16.5291 117.755 16.14 117.428 15.7671C117.129 15.4251 116.491 15.2504 115.574 15.4653C114.921 15.6185 113.988 15.7833 113.133 15.9098C113.133 15.9098 113.185 15.7042 113.227 15.3416C113.449 13.4401 111.383 13.5944 110.724 14.2017C110.33 14.5643 110.062 14.992 109.961 15.7609C109.8 16.9811 110.795 17.5566 110.795 17.5566C110.468 19.0513 109.668 21.0038 108.842 22.4154C108.399 23.1717 108.06 23.7322 107.623 24.3279C107.622 24.1061 107.621 23.8843 107.62 23.6635C107.61 20.5211 107.652 18.048 107.67 17.1566C107.688 16.2836 107.723 15.6309 107.721 15.4787C107.716 15.1375 107.517 15.0086 107.102 14.8454C106.736 14.7011 106.302 14.6012 105.853 14.5664C105.286 14.5221 104.944 14.8231 104.953 15.1789C104.954 15.2461 104.954 15.6586 104.954 15.6586C104.488 14.9254 103.737 14.4151 103.238 14.2672C101.893 13.868 100.49 14.2219 99.4315 15.7029C98.5905 16.8797 98.0396 18.5311 97.8836 20.1131C97.7382 21.5874 97.765 22.8403 97.9632 23.8958C97.7494 24.9527 97.1346 26.0579 96.4394 26.0579C95.5507 26.0579 95.045 25.2718 95.045 21.6793C95.045 19.5836 95.1079 18.6723 95.1389 17.1566C95.1568 16.2836 95.1915 15.6129 95.1895 15.461C95.183 14.9944 94.3761 14.7592 94.0008 14.6721C93.6079 14.5813 93.2688 14.5479 93.0084 14.5671C92.6648 14.5927 92.4233 14.9004 92.4233 15.1298V15.6586C91.9567 14.9254 91.2063 14.4151 90.707 14.2672C89.3622 13.868 87.9667 14.2276 86.9004 15.7029C86.2051 16.6648 85.6422 17.7313 85.3525 20.0921C85.2687 20.7743 85.2318 21.4132 85.2366 22.0103C84.9593 23.706 83.7346 25.6604 82.7329 25.6604C82.1467 25.6604 81.5884 24.5234 81.5884 22.1002C81.5884 18.8724 81.7882 14.2767 81.8219 13.8337C81.8219 13.8337 83.0877 13.8122 83.3328 13.8094C83.9641 13.8024 84.5359 13.8174 85.3768 13.7744C85.7986 13.7529 86.2049 12.2392 85.7696 12.0519C85.5723 11.9671 84.1779 11.8928 83.6252 11.881C83.1604 11.8705 81.8664 11.7747 81.8664 11.7747C81.8664 11.7747 81.9825 8.72431 82.0095 8.40207C82.0324 8.13349 81.6849 7.99521 81.4857 7.91131C81.0011 7.70637 80.5676 7.60825 80.0538 7.50232C79.3438 7.35587 79.0218 7.49912 78.9589 8.09829C78.8641 9.00764 78.8151 11.6711 78.8151 11.6711C78.2941 11.6711 76.5145 11.5693 75.9934 11.5693C75.5092 11.5693 74.9866 13.6515 75.656 13.6771C76.4262 13.707 77.7683 13.7328 78.6581 13.7596C78.6581 13.7596 78.6185 18.4311 78.6185 19.8733C78.6185 20.0267 78.6198 20.1745 78.6201 20.3179C78.1304 22.8703 76.4056 24.249 76.4056 24.249C76.776 22.5604 76.0193 21.2924 74.6564 20.219C74.1543 19.8235 73.163 19.0747 72.0539 18.2541C72.0539 18.2541 72.6962 17.6209 73.2659 16.3472C73.6696 15.445 73.687 14.4125 72.6962 14.1848C71.0592 13.8083 69.7094 15.0106 69.3068 16.2941C68.9949 17.2884 69.1613 18.0262 69.7724 18.7926C69.817 18.8486 69.8653 18.9059 69.9153 18.9634C69.5457 19.6757 69.0381 20.6346 68.6081 21.3783C67.4148 23.4429 66.5133 25.076 65.832 25.076C65.2873 25.076 65.2946 23.418 65.2946 21.8656C65.2946 20.5274 65.3935 18.5153 65.4724 16.4322C65.4985 15.7433 65.154 15.3508 64.5766 14.9953C64.2257 14.7794 63.4769 14.3547 63.0432 14.3547C62.394 14.3547 60.5212 14.4431 58.7515 19.5619C58.5285 20.2071 58.0904 21.3827 58.0904 21.3827L58.1281 15.2271C58.1281 15.0828 58.0513 14.9432 57.8753 14.8478C57.5771 14.6859 56.7806 14.3547 56.0724 14.3547C55.735 14.3547 55.5666 14.5117 55.5666 14.8245L55.5048 24.455C55.5048 25.1867 55.5239 26.0404 55.5962 26.4137C55.6683 26.7876 55.7851 27.0917 55.9297 27.2726C56.0741 27.4532 56.2412 27.591 56.5166 27.6478C56.773 27.7006 58.1767 27.8808 58.2496 27.3444C58.337 26.7015 58.3404 26.0062 59.0775 23.4129C60.2249 19.3755 61.721 17.4055 62.4244 16.7059C62.5473 16.5836 62.6877 16.5763 62.681 16.7765C62.651 17.6617 62.5454 19.8735 62.4743 21.7526C62.2838 26.7813 63.1986 27.7134 64.5059 27.7134C65.5061 27.7134 66.9159 26.7196 68.4273 24.204C69.3695 22.6364 70.2843 21.0992 70.9416 19.9913C71.3997 20.4154 71.9137 20.8717 72.4274 21.3593C73.6211 22.4922 74.0131 23.5688 73.753 24.5901C73.5541 25.3709 72.8051 26.1755 71.472 25.3934C71.0835 25.1653 70.9176 24.989 70.527 24.7318C70.3171 24.5936 69.9966 24.5523 69.8044 24.697C69.3053 25.0733 69.0199 25.552 68.8569 26.1446C68.6983 26.7212 69.2758 27.026 69.8745 27.2927C70.3899 27.5221 71.4978 27.7301 72.2043 27.7537C74.9572 27.8458 77.1625 26.4245 78.6977 22.7584C78.9725 25.9246 80.142 27.7162 82.174 27.7162C83.5325 27.7162 84.8945 25.9603 85.4901 24.2328C85.6611 24.937 85.9142 25.5493 86.2411 26.0671C87.8068 28.5479 90.8443 28.0139 92.3701 25.9074C92.8418 25.2565 92.9136 25.0225 92.9136 25.0225C93.1361 27.0117 94.7379 27.7067 95.6551 27.7067C96.6823 27.7067 97.7429 27.2211 98.4862 25.5476C98.5733 25.7292 98.6684 25.9027 98.7722 26.0671C100.338 28.5478 103.375 28.0139 104.901 25.9073C104.973 25.8085 105.036 25.7189 105.09 25.6384L105.135 26.945C105.135 26.945 104.264 27.7434 103.73 28.2333C101.379 30.3907 99.5905 32.0275 99.459 33.9337C99.2901 36.3641 101.261 37.2674 102.753 37.3858C104.336 37.5115 105.692 36.6366 106.526 35.4123C107.259 34.3347 107.739 32.0153 107.704 29.7245C107.69 28.8072 107.667 27.6408 107.649 26.3906C108.475 25.4308 109.406 24.2177 110.264 22.7977C111.198 21.2502 112.2 19.1721 112.712 17.5548C112.712 17.5548 113.583 17.5622 114.511 17.5015C114.808 17.4821 114.893 17.5427 114.838 17.7604C114.772 18.0235 113.665 22.2925 114.675 25.1364C115.367 27.0833 116.926 27.7096 117.85 27.7096C118.931 27.7096 119.966 26.8927 120.521 25.6796C120.588 25.8149 120.657 25.9457 120.734 26.0665C122.299 28.5473 125.326 28.0102 126.863 25.9068C127.209 25.4322 127.406 25.022 127.406 25.022C127.736 27.0806 129.337 27.7165 130.254 27.7165C131.209 27.7165 132.115 27.325 132.851 25.5847C132.882 26.3509 132.93 26.9775 133.006 27.175C133.053 27.2958 133.324 27.4475 133.522 27.5207C134.396 27.8447 135.287 27.6915 135.617 27.6249C135.845 27.5786 136.023 27.3954 136.048 26.9222C136.111 25.6798 136.072 23.5924 136.449 22.041C137.081 19.4374 137.671 18.4275 137.951 17.9275C138.107 17.6474 138.284 17.6012 138.29 17.8976C138.303 18.4975 138.333 20.2591 138.578 22.626C138.758 24.3667 138.998 25.3956 139.183 25.7212C139.71 26.6524 140.361 26.6965 140.891 26.6965C141.228 26.6965 141.933 26.6033 141.87 26.0107C141.839 25.7219 141.893 23.9368 142.517 21.3718C142.924 19.6968 143.602 18.1833 143.847 17.6299C143.937 17.4259 143.979 17.5867 143.978 17.6181C143.926 18.7716 143.811 22.5448 144.281 24.6084C144.918 27.4039 146.76 27.7168 147.403 27.7168C148.774 27.7168 149.895 26.6739 150.273 23.9299C150.364 23.2696 150.229 22.7597 149.825 22.7597" fill="#262626"/>
<g clip-path="url(#clip1_85_1119)">
<path d="M20.4984 5.47678C25.228 5.47678 25.7882 5.49485 27.6562 5.58007C29.3832 5.65889 30.321 5.94738 30.9452 6.18996C31.7146 6.47392 32.4105 6.92669 32.9819 7.515C33.5702 8.08636 34.023 8.78231 34.3069 9.55167C34.5495 10.1758 34.8381 11.1137 34.9168 12.8408C35.0021 14.7086 35.0201 15.2688 35.0201 19.9986C35.0201 24.7283 35.0021 25.2884 34.9168 27.1564C34.838 28.8834 34.5495 29.8212 34.3069 30.4455C34.0123 31.2094 33.5609 31.9032 32.9819 32.4821C32.4029 33.0611 31.7092 33.5125 30.9452 33.8072C30.3211 34.0497 29.3832 34.3383 27.6562 34.4171C25.7887 34.5023 25.2285 34.5203 20.4984 34.5203C15.7682 34.5203 15.2082 34.5023 13.3405 34.4171C11.6135 34.3382 10.6757 34.0497 10.0515 33.8072C9.28209 33.5232 8.58615 33.0704 8.01479 32.4821C7.42649 31.9108 6.97371 31.2148 6.68975 30.4455C6.44717 29.8213 6.15861 28.8834 6.07986 27.1564C5.99464 25.2886 5.97657 24.7283 5.97657 19.9986C5.97657 15.2688 5.99464 14.7087 6.07986 12.8408C6.15868 11.1137 6.44717 10.1759 6.68975 9.55167C6.97374 8.78227 7.42656 8.0863 8.01493 7.51493C8.58629 6.92663 9.28224 6.47385 10.0516 6.18989C10.6758 5.94731 11.6137 5.65875 13.3407 5.58C15.2085 5.49478 15.7687 5.47671 20.4985 5.47671L20.4984 5.47678ZM20.4985 2.28516C15.6879 2.28516 15.0844 2.30555 13.1954 2.39175C11.31 2.47781 10.0224 2.7772 8.89573 3.21511C7.71382 3.65988 6.64316 4.35711 5.75839 5.25818C4.85712 6.14289 4.15969 7.21356 3.71476 8.39552C3.2772 9.52228 2.97781 10.8098 2.8921 12.6953C2.80555 14.5843 2.78516 15.1877 2.78516 19.9984C2.78516 24.809 2.80555 25.4124 2.8921 27.3014C2.97816 29.1869 3.27755 30.4744 3.71546 31.6011C4.16023 32.783 4.85746 33.8537 5.75853 34.7385C6.64329 35.6395 7.71396 36.3368 8.89587 36.7815C10.0226 37.2194 11.3102 37.5188 13.1956 37.6049C15.0849 37.6911 15.6881 37.7115 20.4986 37.7115C25.3092 37.7115 25.9127 37.6911 27.8017 37.6049C29.6871 37.5188 30.9747 37.2194 32.1014 36.7815C33.278 36.3264 34.3467 35.6306 35.2387 34.7385C36.1308 33.8464 36.8267 32.7778 37.2818 31.6011C37.7197 30.4743 38.0191 29.1868 38.1052 27.3014C38.1914 25.4121 38.2118 24.8089 38.2118 19.9984C38.2118 15.1878 38.1914 14.5843 38.1052 12.6953C38.0191 10.8098 37.7197 9.52228 37.2818 8.39559C36.837 7.21368 36.1398 6.14301 35.2387 5.25825C34.3539 4.357 33.2832 3.65962 32.1012 3.21476C30.9744 2.7772 29.6869 2.47781 27.8014 2.3921C25.9124 2.30555 25.309 2.28516 20.4984 2.28516H20.4985Z" fill="black"/>
<path d="M20.4983 10.9023C18.6993 10.9023 16.9407 11.4358 15.4449 12.4353C13.949 13.4348 12.7832 14.8554 12.0947 16.5174C11.4063 18.1795 11.2262 20.0084 11.5771 21.7729C11.9281 23.5373 12.7944 25.158 14.0665 26.4301C15.3386 27.7022 16.9593 28.5685 18.7238 28.9195C20.4882 29.2705 22.3171 29.0904 23.9792 28.4019C25.6413 27.7135 27.0619 26.5476 28.0614 25.0518C29.0608 23.5559 29.5943 21.7973 29.5943 19.9983C29.5943 17.5859 28.636 15.2723 26.9301 13.5665C25.2243 11.8607 22.9107 10.9023 20.4983 10.9023ZM20.4983 25.9027C19.3306 25.9027 18.189 25.5564 17.2181 24.9076C16.2471 24.2588 15.4903 23.3366 15.0435 22.2578C14.5966 21.1789 14.4797 19.9917 14.7075 18.8464C14.9353 17.7011 15.4977 16.649 16.3234 15.8233C17.1492 14.9976 18.2012 14.4352 19.3465 14.2074C20.4919 13.9796 21.679 14.0965 22.7579 14.5434C23.8368 14.9903 24.7589 15.7471 25.4077 16.718C26.0565 17.689 26.4027 18.8306 26.4027 19.9983C26.4027 21.5643 25.7806 23.0661 24.6734 24.1733C23.5661 25.2806 22.0643 25.9027 20.4983 25.9027Z" fill="black"/>
<path d="M29.9537 12.6691C31.1276 12.6691 32.0792 11.7174 32.0792 10.5435C32.0792 9.36961 31.1276 8.41797 29.9537 8.41797C28.7798 8.41797 27.8281 9.36961 27.8281 10.5435C27.8281 11.7174 28.7798 12.6691 29.9537 12.6691Z" fill="black"/>
</g>
</g>
<defs>
<clipPath id="clip0_85_1119">
<rect width="153" height="40" fill="white" transform="translate(0.5)"/>
</clipPath>
<clipPath id="clip1_85_1119">
<rect width="36" height="36" fill="white" transform="translate(2.5 2)"/>
</clipPath>
</defs>
</svg>
