<svg viewBox="0 0 102 17" fill="none" xmlns="http://www.w3.org/2000/svg">
<path d="M13.5582 8.17538C13.9112 8.17538 14.2642 8.17538 14.6172 8.17538C15.4744 8.17538 16.1552 8.09714 16.6847 7.91459C17.2141 7.73203 17.6428 7.36692 17.9958 6.79318C18.3487 6.21943 18.5252 5.54136 18.5252 4.70682C18.5252 3.45501 18.2227 2.51615 17.6176 1.94241C17.0124 1.34258 16.0543 1.05571 14.718 1.05571C14.2137 1.05571 13.8355 1.08179 13.5834 1.10787C13.5582 3.45501 13.5582 5.80216 13.5582 8.17538ZM101.427 7.28868C101.427 8.22754 100.671 9.00992 99.7631 9.00992C98.8554 9.00992 98.099 8.25362 98.099 7.28868C98.099 6.34982 98.8554 5.56744 99.7631 5.56744C100.696 5.56744 101.427 6.34982 101.427 7.28868ZM3.90142 7.28868C3.90142 8.22754 3.17023 9.00992 2.23733 9.00992C1.30443 9.00992 0.573242 8.25362 0.573242 7.28868C0.573242 6.34982 1.32965 5.56744 2.23733 5.56744C3.14502 5.56744 3.90142 6.34982 3.90142 7.28868ZM79.2645 8.25362C79.2645 10.7051 79.7436 12.5567 80.6765 13.7824C81.6346 15.0082 83.0465 15.6341 84.9376 15.6341C86.6016 15.6341 87.9128 15.0082 88.8709 13.7824C89.829 12.5567 90.3332 10.7051 90.3332 8.2797C90.3332 5.90648 89.8542 4.08092 88.8961 2.8291C87.938 1.55121 86.5512 0.925312 84.7611 0.925312C82.9961 0.925312 81.6094 1.55122 80.6765 2.77695C79.7436 4.00268 79.2645 5.82824 79.2645 8.25362ZM76.7684 8.17538C76.7684 5.80216 77.5248 3.92444 79.0628 2.49008C80.5756 1.05571 82.4918 0.351562 84.7611 0.351562C87.0555 0.351562 88.9969 1.05571 90.5349 2.46399C92.073 3.87228 92.8546 5.80216 92.8546 8.25362C92.8546 10.6268 92.1234 12.5306 90.6358 13.9911C89.1482 15.4515 87.2068 16.1818 84.8115 16.1818C82.4666 16.1818 80.5504 15.4515 79.0376 13.9911C77.5248 12.5306 76.7684 10.6008 76.7684 8.17538ZM59.9258 4.31563C59.7493 4.31563 59.598 4.31563 59.4215 4.31563C59.4467 3.0899 59.4719 1.86417 59.4972 0.638437C64.2625 0.638437 69.0531 0.638437 73.8184 0.638437C73.8436 1.86417 73.8688 3.0899 73.8941 4.31563C73.7428 4.31563 73.5915 4.31563 73.415 4.31563C73.2385 3.29854 73.0116 2.59439 72.7342 2.12496C72.4569 1.68161 72.1291 1.39474 71.8013 1.29042C71.4736 1.1861 70.8936 1.13394 70.0868 1.13394C69.3052 1.13394 68.4984 1.13394 67.7167 1.13394C67.7167 4.7329 67.7167 8.33186 67.7167 11.9308C67.7167 13.1305 67.742 13.9128 67.7924 14.278C67.8428 14.6431 67.9941 14.9299 68.221 15.1125C68.4732 15.2951 68.9018 15.3733 69.5826 15.3733C69.8347 15.3733 70.0616 15.3733 70.3137 15.3733C70.3137 15.5559 70.3137 15.7123 70.3137 15.8949C67.868 15.8949 65.3971 15.8949 62.9514 15.8949C62.9514 15.7123 62.9514 15.5559 62.9514 15.3733C63.2035 15.3733 63.4557 15.3733 63.7078 15.3733C64.3381 15.3733 64.7668 15.2951 65.0189 15.1386C65.271 14.9821 65.4223 14.7213 65.498 14.3562C65.5736 14.0172 65.5988 13.1826 65.5988 11.9047C65.5988 8.30578 65.5988 4.70682 65.5988 1.13394C64.8676 1.13394 64.1364 1.13394 63.4052 1.13394C62.4471 1.13394 61.8168 1.1861 61.489 1.26434C61.1612 1.36866 60.8587 1.62945 60.5813 2.12496C60.2788 2.62047 60.0518 3.3507 59.9258 4.31563ZM51.8575 0.638437C53.4963 0.638437 55.1352 0.638437 56.7993 0.638437C56.7993 0.820993 56.7993 0.97747 56.7993 1.16003C56.1438 1.21218 55.6647 1.36866 55.3369 1.62946C55.0092 1.89025 54.8074 2.17712 54.7318 2.51615C54.6562 2.85519 54.6309 3.45501 54.6309 4.39387C54.6309 6.08903 54.6309 7.78419 54.6309 9.47935C54.6309 10.7833 54.5805 11.7483 54.4797 12.3742C54.3788 13.0001 54.1015 13.626 53.6224 14.2258C53.1434 14.8256 52.4878 15.3211 51.6305 15.6862C50.7733 16.0514 49.79 16.2339 48.6806 16.2339C47.3695 16.2339 46.2601 15.9992 45.3524 15.5298C44.4447 15.0603 43.7892 14.4605 43.4109 13.7303C43.0327 13.0001 42.831 12.0091 42.831 10.7833C42.831 10.2617 42.831 9.74014 42.8563 9.21856C42.8563 7.62771 42.8563 6.03687 42.8563 4.47211C42.8563 3.24638 42.831 2.46399 42.7554 2.12496C42.6798 1.75985 42.5285 1.52514 42.3268 1.39474C42.0998 1.26434 41.6208 1.18611 40.8644 1.18611C40.7635 1.18611 40.6375 1.18611 40.5366 1.18611C40.5366 1.00355 40.5366 0.847074 40.5366 0.664518C42.7806 0.664518 45.0246 0.664518 47.2938 0.664518C47.2938 0.847074 47.2938 1.00355 47.2938 1.18611C47.193 1.18611 47.0921 1.18611 46.9913 1.18611C46.2601 1.18611 45.781 1.23826 45.5541 1.36866C45.3272 1.49906 45.1759 1.73377 45.1003 2.0728C45.0246 2.41184 44.9742 3.2203 44.9742 4.49819C44.9742 6.08903 44.9742 7.70595 44.9742 9.29679C44.9742 10.9659 45.0498 12.1395 45.2011 12.8436C45.3524 13.5477 45.781 14.1476 46.4618 14.6692C47.1425 15.1907 48.0754 15.4515 49.21 15.4515C50.1177 15.4515 50.9246 15.269 51.6558 14.9299C52.387 14.5909 52.9416 14.1476 53.2946 13.626C53.6476 13.1044 53.8745 12.5567 53.9502 12.0091C54.0258 11.4614 54.0763 10.6008 54.0763 9.40111C54.0763 7.6538 54.0763 5.93256 54.0763 4.18524C54.0763 3.32462 54.0258 2.72479 53.925 2.38576C53.8241 2.04672 53.6224 1.75985 53.3198 1.55122C53.0173 1.34258 52.513 1.21219 51.8323 1.18611C51.8575 0.977471 51.8575 0.820993 51.8575 0.638437ZM37.8388 11.4353C37.8136 12.9479 37.7631 14.4344 37.7379 15.921C33.5525 15.921 29.367 15.921 25.1816 15.921C25.1816 15.7384 25.1816 15.5819 25.1816 15.3994C25.3329 15.3994 25.4842 15.3994 25.6102 15.3994C26.2406 15.3994 26.6692 15.3211 26.9213 15.1647C27.1735 15.0082 27.3247 14.7474 27.4004 14.3823C27.476 14.0432 27.5012 13.2087 27.5012 11.9308C27.5012 9.42719 27.5012 6.92357 27.5012 4.44603C27.5012 3.2203 27.476 2.43792 27.4004 2.09888C27.3247 1.73377 27.1987 1.49906 26.9718 1.36866C26.7448 1.23826 26.2658 1.16003 25.5094 1.16003C25.4085 1.16003 25.2825 1.16003 25.1816 1.16003C25.1816 0.97747 25.1816 0.820993 25.1816 0.638437C27.5517 0.638437 29.9217 0.638437 32.2666 0.638437C32.2666 0.820993 32.2666 0.97747 32.2666 1.16003C32.0397 1.16003 31.838 1.16003 31.611 1.16003C30.8798 1.16003 30.4008 1.21218 30.1739 1.34258C29.947 1.47298 29.7957 1.70769 29.72 2.04672C29.6444 2.38576 29.594 3.19422 29.594 4.47211C29.594 7.13221 29.594 9.7923 29.594 12.4785C29.594 13.5738 29.6192 14.278 29.6696 14.5388C29.72 14.8256 29.8713 15.0343 30.1487 15.1907C30.4008 15.3472 30.9555 15.4255 31.8127 15.4255C32.191 15.4255 32.5692 15.4255 32.9221 15.4255C33.8298 15.4255 34.5106 15.3472 34.9392 15.1907C35.3679 15.0343 35.7965 14.6691 36.1999 14.1215C36.6033 13.5738 36.9563 12.6871 37.2841 11.4875C37.4858 11.4353 37.6623 11.4353 37.8388 11.4353ZM13.5582 8.72305C13.5582 9.7923 13.5582 10.8616 13.5582 11.9308C13.5582 13.1305 13.5834 13.9128 13.6338 14.304C13.6843 14.6691 13.8355 14.956 14.0877 15.1386C14.3398 15.3211 14.7684 15.3994 15.424 15.3994C15.6005 15.3994 15.7518 15.3994 15.9283 15.3994C15.9283 15.5819 15.9283 15.7384 15.9283 15.921C13.6843 15.921 11.415 15.921 9.17104 15.921C9.17104 15.7384 9.17104 15.5819 9.17104 15.3994C9.29711 15.3994 9.42317 15.3994 9.54924 15.3994C10.1796 15.3994 10.6334 15.3211 10.8603 15.1647C11.1125 15.0082 11.2638 14.7474 11.3142 14.3823C11.3898 14.0432 11.415 13.2087 11.415 11.9308C11.415 9.42719 11.415 6.92357 11.415 4.44603C11.415 3.2203 11.3898 2.43792 11.3142 2.09888C11.2385 1.73377 11.1125 1.49906 10.8856 1.36866C10.6586 1.23826 10.1796 1.16003 9.42317 1.16003C9.32232 1.16003 9.24668 1.16003 9.14583 1.16003C9.14583 0.97747 9.14583 0.820993 9.14583 0.638437C9.77616 0.612358 10.3813 0.586278 10.9864 0.560198C12.474 0.50804 13.6338 0.481959 14.4407 0.481959C15.9535 0.481959 17.1385 0.612359 17.9705 0.847073C18.8026 1.08179 19.4581 1.52514 19.9876 2.17712C20.5171 2.80303 20.7692 3.61149 20.7692 4.57643C20.7692 5.41097 20.5927 6.14119 20.2398 6.79318C19.8868 7.44516 19.3573 7.91459 18.7017 8.25362C18.021 8.59265 16.8612 8.74913 15.1466 8.74913C14.6424 8.72305 14.1129 8.72305 13.5582 8.72305Z" fill="#A77D57"/>
</svg>
