<svg>
	<defs>
		<symbol fill="none" xmlns="http://www.w3.org/2000/svg" viewBox="0 0 20 20" id="basket">
			<path d="M17 5.5V16.75C17 17.0605 16.9384 17.3521 16.8152 17.6245C16.692 17.897 16.5267 18.1343 16.3194 18.3364C16.1121 18.5386 15.8672 18.6997 15.5847 18.8198C15.3023 18.9399 15.0048 19 14.6923 19H4.30769C3.98918 19 3.6902 18.9399 3.41076 18.8198C3.13131 18.6997 2.88792 18.5386 2.68059 18.3364C2.47326 18.1343 2.30799 17.897 2.1848 17.6245C2.0616 17.3521 2 17.0605 2 16.75V5.5H4.30769V4.375C4.30769 3.91211 4.39934 3.47559 4.58263 3.06543C4.76593 2.65527 5.01382 2.29785 5.32632 1.99316C5.63882 1.68848 6.00541 1.44678 6.42608 1.26807C6.84676 1.08936 7.29447 1 7.76923 1C8.39423 1 8.97416 1.15234 9.50901 1.45703C10.0439 1.15234 10.6178 1 11.2308 1C11.7055 1 12.1532 1.08936 12.5739 1.26807C12.9946 1.44678 13.3612 1.68848 13.6737 1.99316C13.9862 2.29785 14.2341 2.65527 14.4174 3.06543C14.6007 3.47559 14.6923 3.91211 14.6923 4.375V5.5H17ZM13.5385 4.375C13.5385 4.07031 13.4769 3.78027 13.3537 3.50488C13.2305 3.22949 13.0652 2.99072 12.8579 2.78857C12.6505 2.58643 12.4056 2.42529 12.1232 2.30518C11.8407 2.18506 11.5433 2.125 11.2308 2.125C10.9603 2.125 10.7049 2.16895 10.4645 2.25684C10.6388 2.46777 10.777 2.67578 10.8792 2.88086C10.9814 3.08594 11.058 3.29102 11.1091 3.49609C11.1602 3.70117 11.1932 3.91064 11.2082 4.12451C11.2233 4.33838 11.2308 4.5625 11.2308 4.79688V5.5H13.5385V4.375ZM5.46154 5.5H10.0769V4.375C10.0769 4.07031 10.0153 3.78027 9.89213 3.50488C9.76893 3.22949 9.60367 2.99072 9.39633 2.78857C9.189 2.58643 8.94411 2.42529 8.66166 2.30518C8.37921 2.18506 8.08173 2.125 7.76923 2.125C7.45072 2.125 7.15174 2.18506 6.8723 2.30518C6.59285 2.42529 6.34946 2.58643 6.14213 2.78857C5.9348 2.99072 5.76953 3.22949 5.64633 3.50488C5.52314 3.78027 5.46154 4.07031 5.46154 4.375V5.5ZM12.6911 17.875C12.4868 17.5234 12.3846 17.1484 12.3846 16.75V6.625H3.15385V16.75C3.15385 16.9082 3.18389 17.0547 3.24399 17.1895C3.30409 17.3242 3.38672 17.4429 3.49189 17.5454C3.59706 17.6479 3.71875 17.7285 3.85697 17.7871C3.99519 17.8457 4.14543 17.875 4.30769 17.875H12.6911ZM15.8462 6.625H13.5385V16.75C13.5385 16.9082 13.5685 17.0547 13.6286 17.1895C13.6887 17.3242 13.7713 17.4429 13.8765 17.5454C13.9817 17.6479 14.1034 17.7285 14.2416 17.7871C14.3798 17.8457 14.53 17.875 14.6923 17.875C14.8546 17.875 15.0048 17.8457 15.143 17.7871C15.2812 17.7285 15.4029 17.6479 15.5081 17.5454C15.6133 17.4429 15.6959 17.3242 15.756 17.1895C15.8161 17.0547 15.8462 16.9082 15.8462 16.75V6.625Z" fill="#111111"></path>
		</symbol>
		<symbol fill="none" xmlns="http://www.w3.org/2000/svg" viewBox="0 0 20 20" id="search">
			<path fill-rule="evenodd" clip-rule="evenodd" d="M9.16667 3.125C5.82995 3.125 3.125 5.82995 3.125 9.16667C3.125 12.5034 5.82995 15.2083 9.16667 15.2083C12.5034 15.2083 15.2083 12.5034 15.2083 9.16667C15.2083 5.82995 12.5034 3.125 9.16667 3.125ZM1.875 9.16667C1.875 5.13959 5.13959 1.875 9.16667 1.875C13.1937 1.875 16.4583 5.13959 16.4583 9.16667C16.4583 13.1937 13.1937 16.4583 9.16667 16.4583C5.13959 16.4583 1.875 13.1937 1.875 9.16667Z" fill="#111111"></path>
			<path fill-rule="evenodd" clip-rule="evenodd" d="M13.4331 13.4331C13.6771 13.189 14.0729 13.189 14.3169 13.4331L17.9419 17.0581C18.186 17.3021 18.186 17.6979 17.9419 17.9419C17.6979 18.186 17.3021 18.186 17.0581 17.9419L13.4331 14.3169C13.189 14.0729 13.189 13.6771 13.4331 13.4331Z" fill="#111111"></path>
		</symbol>
		<symbol fill="none" xmlns="http://www.w3.org/2000/svg" viewBox="0 0 20 20" id="login">
			<path fill-rule="evenodd" clip-rule="evenodd" d="M3.8664 13.0344C4.60873 12.292 5.61555 11.875 6.66536 11.875H13.332C14.3818 11.875 15.3887 12.292 16.131 13.0344C16.8733 13.7767 17.2904 14.7835 17.2904 15.8333V17.5C17.2904 17.8452 17.0105 18.125 16.6654 18.125C16.3202 18.125 16.0404 17.8452 16.0404 17.5V15.8333C16.0404 15.115 15.755 14.4262 15.2471 13.9183C14.7392 13.4103 14.0503 13.125 13.332 13.125H6.66536C5.94707 13.125 5.25819 13.4103 4.75028 13.9183C4.24237 14.4262 3.95703 15.115 3.95703 15.8333V17.5C3.95703 17.8452 3.67721 18.125 3.33203 18.125C2.98685 18.125 2.70703 17.8452 2.70703 17.5V15.8333C2.70703 14.7835 3.12407 13.7767 3.8664 13.0344Z" fill="#111111"></path>
			<path fill-rule="evenodd" clip-rule="evenodd" d="M10.0013 3.125C8.50553 3.125 7.29297 4.33756 7.29297 5.83333C7.29297 7.3291 8.50553 8.54167 10.0013 8.54167C11.4971 8.54167 12.7096 7.3291 12.7096 5.83333C12.7096 4.33756 11.4971 3.125 10.0013 3.125ZM6.04297 5.83333C6.04297 3.64721 7.81518 1.875 10.0013 1.875C12.1874 1.875 13.9596 3.64721 13.9596 5.83333C13.9596 8.01946 12.1874 9.79167 10.0013 9.79167C7.81518 9.79167 6.04297 8.01946 6.04297 5.83333Z" fill="#111111"></path>
		</symbol>
		<symbol fill="none" xmlns="http://www.w3.org/2000/svg" viewBox="0 0 20 20" id="favorites">
			<path fill-rule="evenodd" clip-rule="evenodd" d="M12.1317 2.27169C12.7638 2.0098 13.4412 1.875 14.1254 1.875C14.8096 1.875 15.4871 2.0098 16.1191 2.27169C16.7512 2.53359 17.3255 2.91745 17.8091 3.40135C18.2929 3.88498 18.6767 4.45917 18.9386 5.09115C19.2005 5.72321 19.3353 6.40068 19.3353 7.08485C19.3353 7.76903 19.2005 8.4465 18.9386 9.07856C18.6767 9.71058 18.2929 10.2848 17.809 10.7685C17.809 10.7685 17.8091 10.7684 17.809 10.7685L10.4424 18.1351C10.1983 18.3792 9.80256 18.3792 9.55848 18.1351L2.19182 10.7685C1.21486 9.79151 0.666016 8.46648 0.666016 7.08485C0.666016 5.70323 1.21486 4.3782 2.19182 3.40125C3.16877 2.42429 4.4938 1.87545 5.87542 1.87545C7.25705 1.87545 8.58208 2.42429 9.55903 3.40125L10.0004 3.84264L10.4417 3.40135C10.9254 2.91745 11.4997 2.53359 12.1317 2.27169ZM16.925 4.28503C16.5575 3.91726 16.121 3.62553 15.6406 3.42649C15.1603 3.22745 14.6454 3.125 14.1254 3.125C13.6055 3.125 13.0906 3.22745 12.6102 3.42649C12.1298 3.62553 11.6934 3.91726 11.3258 4.28503L10.4424 5.16846C10.1983 5.41254 9.80256 5.41254 9.55848 5.16846L8.67515 4.28513C7.93262 3.5426 6.92552 3.12545 5.87542 3.12545C4.82532 3.12545 3.81823 3.5426 3.0757 4.28513C2.33317 5.02766 1.91602 6.03475 1.91602 7.08485C1.91602 8.13496 2.33317 9.14205 3.0757 9.88458L10.0004 16.8093L16.9251 9.88458C17.2929 9.51699 17.5847 9.08044 17.7838 8.60007C17.9828 8.1197 18.0853 7.60483 18.0853 7.08485C18.0853 6.56488 17.9828 6.05001 17.7838 5.56964C17.5847 5.08927 17.2928 4.65262 16.925 4.28503Z" fill="#111111"></path>
		</symbol>
	</defs>
</svg>
