<svg>
	<defs>
		<symbol xmlns="http://www.w3.org/2000/svg" viewBox="0 0 20 20" id="basket">
			<path d="M17 5.5V16.75C17 17.0605 16.9384 17.3521 16.8152 17.6245C16.692 17.897 16.5267 18.1343 16.3194 18.3364C16.1121 18.5386 15.8672 18.6997 15.5847 18.8198C15.3023 18.9399 15.0048 19 14.6923 19H4.30769C3.98918 19 3.6902 18.9399 3.41076 18.8198C3.13131 18.6997 2.88792 18.5386 2.68059 18.3364C2.47326 18.1343 2.30799 17.897 2.1848 17.6245C2.0616 17.3521 2 17.0605 2 16.75V5.5H4.30769V4.375C4.30769 3.91211 4.39934 3.47559 4.58263 3.06543C4.76593 2.65527 5.01382 2.29785 5.32632 1.99316C5.63882 1.68848 6.00541 1.44678 6.42608 1.26807C6.84676 1.08936 7.29447 1 7.76923 1C8.39423 1 8.97416 1.15234 9.50901 1.45703C10.0439 1.15234 10.6178 1 11.2308 1C11.7055 1 12.1532 1.08936 12.5739 1.26807C12.9946 1.44678 13.3612 1.68848 13.6737 1.99316C13.9862 2.29785 14.2341 2.65527 14.4174 3.06543C14.6007 3.47559 14.6923 3.91211 14.6923 4.375V5.5H17ZM13.5385 4.375C13.5385 4.07031 13.4769 3.78027 13.3537 3.50488C13.2305 3.22949 13.0652 2.99072 12.8579 2.78857C12.6505 2.58643 12.4056 2.42529 12.1232 2.30518C11.8407 2.18506 11.5433 2.125 11.2308 2.125C10.9603 2.125 10.7049 2.16895 10.4645 2.25684C10.6388 2.46777 10.777 2.67578 10.8792 2.88086C10.9814 3.08594 11.058 3.29102 11.1091 3.49609C11.1602 3.70117 11.1932 3.91064 11.2082 4.12451C11.2233 4.33838 11.2308 4.5625 11.2308 4.79688V5.5H13.5385V4.375ZM5.46154 5.5H10.0769V4.375C10.0769 4.07031 10.0153 3.78027 9.89213 3.50488C9.76893 3.22949 9.60367 2.99072 9.39633 2.78857C9.189 2.58643 8.94411 2.42529 8.66166 2.30518C8.37921 2.18506 8.08173 2.125 7.76923 2.125C7.45072 2.125 7.15174 2.18506 6.8723 2.30518C6.59285 2.42529 6.34946 2.58643 6.14213 2.78857C5.9348 2.99072 5.76953 3.22949 5.64633 3.50488C5.52314 3.78027 5.46154 4.07031 5.46154 4.375V5.5ZM12.6911 17.875C12.4868 17.5234 12.3846 17.1484 12.3846 16.75V6.625H3.15385V16.75C3.15385 16.9082 3.18389 17.0547 3.24399 17.1895C3.30409 17.3242 3.38672 17.4429 3.49189 17.5454C3.59706 17.6479 3.71875 17.7285 3.85697 17.7871C3.99519 17.8457 4.14543 17.875 4.30769 17.875H12.6911ZM15.8462 6.625H13.5385V16.75C13.5385 16.9082 13.5685 17.0547 13.6286 17.1895C13.6887 17.3242 13.7713 17.4429 13.8765 17.5454C13.9817 17.6479 14.1034 17.7285 14.2416 17.7871C14.3798 17.8457 14.53 17.875 14.6923 17.875C14.8546 17.875 15.0048 17.8457 15.143 17.7871C15.2812 17.7285 15.4029 17.6479 15.5081 17.5454C15.6133 17.4429 15.6959 17.3242 15.756 17.1895C15.8161 17.0547 15.8462 16.9082 15.8462 16.75V6.625Z"></path>
		</symbol>
		<symbol xmlns="http://www.w3.org/2000/svg" viewBox="0 0 20 20" id="search">
			<path d="M9.16667 3.125C5.82995 3.125 3.125 5.82995 3.125 9.16667C3.125 12.5034 5.82995 15.2083 9.16667 15.2083C12.5034 15.2083 15.2083 12.5034 15.2083 9.16667C15.2083 5.82995 12.5034 3.125 9.16667 3.125ZM1.875 9.16667C1.875 5.13959 5.13959 1.875 9.16667 1.875C13.1937 1.875 16.4583 5.13959 16.4583 9.16667C16.4583 13.1937 13.1937 16.4583 9.16667 16.4583C5.13959 16.4583 1.875 13.1937 1.875 9.16667Z"></path>
			<path d="M13.4331 13.4331C13.6771 13.189 14.0729 13.189 14.3169 13.4331L17.9419 17.0581C18.186 17.3021 18.186 17.6979 17.9419 17.9419C17.6979 18.186 17.3021 18.186 17.0581 17.9419L13.4331 14.3169C13.189 14.0729 13.189 13.6771 13.4331 13.4331Z" fill="#111111"></path>
		</symbol>
		<symbol xmlns="http://www.w3.org/2000/svg" viewBox="0 0 20 20" id="login">
			<path d="M3.8664 13.0344C4.60873 12.292 5.61555 11.875 6.66536 11.875H13.332C14.3818 11.875 15.3887 12.292 16.131 13.0344C16.8733 13.7767 17.2904 14.7835 17.2904 15.8333V17.5C17.2904 17.8452 17.0105 18.125 16.6654 18.125C16.3202 18.125 16.0404 17.8452 16.0404 17.5V15.8333C16.0404 15.115 15.755 14.4262 15.2471 13.9183C14.7392 13.4103 14.0503 13.125 13.332 13.125H6.66536C5.94707 13.125 5.25819 13.4103 4.75028 13.9183C4.24237 14.4262 3.95703 15.115 3.95703 15.8333V17.5C3.95703 17.8452 3.67721 18.125 3.33203 18.125C2.98685 18.125 2.70703 17.8452 2.70703 17.5V15.8333C2.70703 14.7835 3.12407 13.7767 3.8664 13.0344Z"></path>
			<path d="M10.0013 3.125C8.50553 3.125 7.29297 4.33756 7.29297 5.83333C7.29297 7.3291 8.50553 8.54167 10.0013 8.54167C11.4971 8.54167 12.7096 7.3291 12.7096 5.83333C12.7096 4.33756 11.4971 3.125 10.0013 3.125ZM6.04297 5.83333C6.04297 3.64721 7.81518 1.875 10.0013 1.875C12.1874 1.875 13.9596 3.64721 13.9596 5.83333C13.9596 8.01946 12.1874 9.79167 10.0013 9.79167C7.81518 9.79167 6.04297 8.01946 6.04297 5.83333Z"></path>
		</symbol>
		<symbol xmlns="http://www.w3.org/2000/svg" viewBox="0 0 20 20" id="favorites">
			<path d="M12.1317 2.27169C12.7638 2.0098 13.4412 1.875 14.1254 1.875C14.8096 1.875 15.4871 2.0098 16.1191 2.27169C16.7512 2.53359 17.3255 2.91745 17.8091 3.40135C18.2929 3.88498 18.6767 4.45917 18.9386 5.09115C19.2005 5.72321 19.3353 6.40068 19.3353 7.08485C19.3353 7.76903 19.2005 8.4465 18.9386 9.07856C18.6767 9.71058 18.2929 10.2848 17.809 10.7685C17.809 10.7685 17.8091 10.7684 17.809 10.7685L10.4424 18.1351C10.1983 18.3792 9.80256 18.3792 9.55848 18.1351L2.19182 10.7685C1.21486 9.79151 0.666016 8.46648 0.666016 7.08485C0.666016 5.70323 1.21486 4.3782 2.19182 3.40125C3.16877 2.42429 4.4938 1.87545 5.87542 1.87545C7.25705 1.87545 8.58208 2.42429 9.55903 3.40125L10.0004 3.84264L10.4417 3.40135C10.9254 2.91745 11.4997 2.53359 12.1317 2.27169ZM16.925 4.28503C16.5575 3.91726 16.121 3.62553 15.6406 3.42649C15.1603 3.22745 14.6454 3.125 14.1254 3.125C13.6055 3.125 13.0906 3.22745 12.6102 3.42649C12.1298 3.62553 11.6934 3.91726 11.3258 4.28503L10.4424 5.16846C10.1983 5.41254 9.80256 5.41254 9.55848 5.16846L8.67515 4.28513C7.93262 3.5426 6.92552 3.12545 5.87542 3.12545C4.82532 3.12545 3.81823 3.5426 3.0757 4.28513C2.33317 5.02766 1.91602 6.03475 1.91602 7.08485C1.91602 8.13496 2.33317 9.14205 3.0757 9.88458L10.0004 16.8093L16.9251 9.88458C17.2929 9.51699 17.5847 9.08044 17.7838 8.60007C17.9828 8.1197 18.0853 7.60483 18.0853 7.08485C18.0853 6.56488 17.9828 6.05001 17.7838 5.56964C17.5847 5.08927 17.2928 4.65262 16.925 4.28503Z"></path>
		</symbol>
		<symbol xmlns="http://www.w3.org/2000/svg" viewBox="0 0 20 20" id="favorites--active">
			<path d="M12.1317 1.27169C12.7638 1.0098 13.4412 0.875 14.1254 0.875C14.8096 0.875 15.4871 1.0098 16.1191 1.27169C16.7512 1.53359 17.3255 1.91745 17.8091 2.40135C18.2929 2.88498 18.6767 3.45917 18.9386 4.09115C19.2005 4.72321 19.3353 5.40068 19.3353 6.08485C19.3353 6.76903 19.2005 7.4465 18.9386 8.07856C18.6767 8.71058 18.2929 9.28481 17.809 9.76846L10.4424 17.1351C10.1983 17.3792 9.80256 17.3792 9.55848 17.1351L2.19182 9.76846C1.21486 8.79151 0.666016 7.46648 0.666016 6.08485C0.666016 4.70323 1.21486 3.3782 2.19182 2.40125C3.16877 1.42429 4.4938 0.875446 5.87542 0.875446C7.25705 0.875446 8.58208 1.42429 9.55903 2.40125L10.0004 2.84264L10.4417 2.40135C10.9254 1.91745 11.4997 1.53359 12.1317 1.27169Z"></path>
		</symbol>
		<symbol xmlns="http://www.w3.org/2000/svg" viewBox="0 0 20 20" id="chevron">
			<path d="M12.9419 4.55806C13.186 4.80214 13.186 5.19786 12.9419 5.44194L8.38388 10L12.9419 14.5581C13.186 14.8021 13.186 15.1979 12.9419 15.4419C12.6979 15.686 12.3021 15.686 12.0581 15.4419L7.05806 10.4419C6.81398 10.1979 6.81398 9.80214 7.05806 9.55806L12.0581 4.55806C12.3021 4.31398 12.6979 4.31398 12.9419 4.55806Z"></path>
		</symbol>
		<symbol xmlns="http://www.w3.org/2000/svg" viewBox="0 0 20 20" id="check">
			<path d="M17.0312 5.91422C17.346 5.59945 17.346 5.0891 17.0312 4.77433C16.7144 4.45754 16.2001 4.45985 15.8862 4.77947L8.08932 12.7178L4.32857 8.98059C4.03631 8.69017 3.56418 8.69091 3.27284 8.98225C2.98085 9.27424 2.98085 9.74765 3.27284 10.0396L7.95895 14.7257C8.03095 14.7977 8.14769 14.7977 8.21969 14.7257L17.0312 5.91422Z"></path>
		</symbol>
		<symbol xmlns="http://www.w3.org/2000/svg" viewBox="0 0 20 20" id="options">
			<path d="M13.4615 3.45455C13.0792 3.45455 12.7692 3.78016 12.7692 4.18182C12.7692 4.58348 13.0792 4.90909 13.4615 4.90909C13.8439 4.90909 14.1538 4.58348 14.1538 4.18182C14.1538 3.78016 13.8439 3.45455 13.4615 3.45455ZM11.5028 3.45455C11.7879 2.60713 12.5572 2 13.4615 2C14.3658 2 15.1352 2.60713 15.4203 3.45455H18.3077C18.69 3.45455 19 3.78016 19 4.18182C19 4.58348 18.69 4.90909 18.3077 4.90909H15.4203C15.1352 5.7565 14.3658 6.36364 13.4615 6.36364C12.5572 6.36364 11.7879 5.7565 11.5028 4.90909H1.69231C1.30996 4.90909 1 4.58348 1 4.18182C1 3.78016 1.30996 3.45455 1.69231 3.45455H11.5028ZM6.53846 9.27273C6.15611 9.27273 5.84615 9.59834 5.84615 10C5.84615 10.4017 6.15611 10.7273 6.53846 10.7273C6.92081 10.7273 7.23077 10.4017 7.23077 10C7.23077 9.59834 6.92081 9.27273 6.53846 9.27273ZM4.57972 9.27273C4.86484 8.42531 5.63416 7.81818 6.53846 7.81818C7.44277 7.81818 8.21209 8.42531 8.4972 9.27273H18.3077C18.69 9.27273 19 9.59834 19 10C19 10.4017 18.69 10.7273 18.3077 10.7273H8.4972C8.21209 11.5747 7.44277 12.1818 6.53846 12.1818C5.63416 12.1818 4.86484 11.5747 4.57972 10.7273H1.69231C1.30996 10.7273 1 10.4017 1 10C1 9.59834 1.30996 9.27273 1.69231 9.27273H4.57972ZM13.4615 15.0909C13.0792 15.0909 12.7692 15.4165 12.7692 15.8182C12.7692 16.2198 13.0792 16.5455 13.4615 16.5455C13.8439 16.5455 14.1538 16.2198 14.1538 15.8182C14.1538 15.4165 13.8439 15.0909 13.4615 15.0909ZM11.5028 15.0909C11.7879 14.2435 12.5572 13.6364 13.4615 13.6364C14.3658 13.6364 15.1352 14.2435 15.4203 15.0909H18.3077C18.69 15.0909 19 15.4165 19 15.8182C19 16.2198 18.69 16.5455 18.3077 16.5455H15.4203C15.1352 17.3929 14.3658 18 13.4615 18C12.5572 18 11.7879 17.3929 11.5028 16.5455H1.69231C1.30996 16.5455 1 16.2198 1 15.8182C1 15.4165 1.30996 15.0909 1.69231 15.0909H11.5028Z"></path>
		</symbol>
		<symbol xmlns="http://www.w3.org/2000/svg" viewBox="0 0 20 20" id="options">
			<path d="M2 9.99955C2 9.69129 2.24989 9.44141 2.55814 9.44141H7.02326C7.20987 9.44141 7.38414 9.53467 7.48766 9.68995L8.81034 11.674H11.1897L12.5123 9.68995C12.6159 9.53467 12.7901 9.44141 12.9767 9.44141H17.4419C17.7501 9.44141 18 9.69129 18 9.99955C18 10.3078 17.7501 10.5577 17.4419 10.5577H13.2755L11.9528 12.5417C11.8493 12.697 11.675 12.7902 11.4884 12.7902H8.51163C8.32501 12.7902 8.15074 12.697 8.04723 12.5417L6.72455 10.5577H2.55814C2.24989 10.5577 2 10.3078 2 9.99955Z"></path>
			<path d="M6.45767 3.48828L13.5423 3.48828C13.9231 3.48848 14.2965 3.59489 14.6201 3.79554C14.9434 3.99603 15.2044 4.28267 15.3738 4.62326L15.3742 4.6241L17.9409 9.75001C17.9798 9.82759 18 9.91315 18 9.99991V14.465C18 15.0078 17.7844 15.5283 17.4006 15.9121C17.0168 16.2959 16.4963 16.5115 15.9535 16.5115H4.04651C3.50374 16.5115 2.9832 16.2959 2.59941 15.9121C2.21561 15.5283 2 15.0078 2 14.465V9.99991C2 9.91315 2.02022 9.82759 2.05907 9.75001L4.62575 4.6241L4.62616 4.62327C4.7956 4.28267 5.05662 3.99603 5.37994 3.79554C5.70351 3.59489 6.07694 3.48848 6.45767 3.48828ZM6.46512 4.60456L5.62465 5.12236L3.11628 10.1318V14.465C3.11628 14.7117 3.21429 14.9483 3.38874 15.1228C3.56319 15.2973 3.7998 15.3953 4.04651 15.3953H15.9535C16.2002 15.3953 16.4368 15.2973 16.6113 15.1228C16.7857 14.9483 16.8837 14.7117 16.8837 14.465V10.1318L14.3753 5.12236L14.3746 5.12084C14.2976 4.96586 14.1789 4.83543 14.0318 4.74423C13.8848 4.65307 13.7153 4.60471 13.5423 4.60456M6.46512 4.60456L5.62541 5.12084C5.70242 4.96586 5.82115 4.83543 5.96822 4.74423C6.11522 4.65307 6.28471 4.60471 6.45767 4.60456M6.45767 4.60456H13.5423H6.45767Z"></path>
		</symbol>
	</defs>
</svg>
