<svg width="1024" height="526" viewBox="0 0 1024 526" fill="none" xmlns="http://www.w3.org/2000/svg">
	<rect x="686" width="465" height="526" fill="#F6F6F6"/>
	<g opacity="0.4" clip-path="url(#clip0_3046_5121)">
		<path d="M825.487 159.23L833.353 162.492C857.729 172.599 877.092 191.977 887.182 216.361L890.496 224.37C900.576 248.731 900.576 276.096 890.496 300.457L887.182 308.466C877.092 332.85 857.729 352.228 833.353 362.335L825.487 365.597C801.087 375.714 773.665 375.714 749.265 365.597L741.399 362.335C717.023 352.228 697.66 332.85 687.57 308.466L684.256 300.457C674.175 276.096 674.175 248.731 684.256 224.37L687.57 216.361C697.66 191.977 717.023 172.599 741.399 162.492L749.265 159.23C773.665 149.113 801.087 149.113 825.487 159.23Z" stroke="#E2E1DB"/>
		<path d="M825.487 119.387L861.497 134.318C885.873 144.425 905.236 163.802 915.326 188.186L930.298 224.369C940.378 248.729 940.378 276.095 930.298 300.455L915.326 336.638C905.236 361.022 885.873 380.399 861.497 390.506L825.487 405.438C801.087 415.555 773.666 415.555 749.266 405.438L713.256 390.506C688.879 380.399 669.516 361.022 659.426 336.638L644.455 300.455C634.375 276.095 634.375 248.729 644.455 224.369L659.426 188.186C669.516 163.802 688.879 144.425 713.256 134.318L749.266 119.387C773.666 109.269 801.087 109.269 825.487 119.387Z" stroke="#E2E1DB"/>
		<path d="M825.487 79.5467L889.641 106.147C914.017 116.255 933.38 135.632 943.47 160.016L970.099 224.371C980.179 248.732 980.179 276.097 970.099 300.458L943.47 364.813C933.38 389.197 914.017 408.574 889.641 418.682L825.487 445.282C801.087 455.399 773.666 455.399 749.266 445.282L685.112 418.682C660.736 408.574 641.373 389.197 631.283 364.813L604.654 300.458C594.574 276.097 594.574 248.732 604.654 224.371L631.283 160.016C641.373 135.632 660.736 116.255 685.112 106.147L749.266 79.5467C773.666 69.4294 801.087 69.4294 825.487 79.5467Z" stroke="#E2E1DB"/>
		<path d="M825.488 39.7029L917.785 77.9732C942.161 88.0807 961.524 107.458 971.614 131.842L1009.9 224.37C1019.98 248.73 1019.98 276.096 1009.9 300.456L971.614 392.984C961.524 417.368 942.161 436.745 917.785 446.853L825.488 485.123C801.088 495.24 773.666 495.24 749.266 485.123L656.969 446.853C632.593 436.745 613.23 417.368 603.14 392.984L564.853 300.456C554.773 276.096 554.773 248.73 564.853 224.37L603.14 131.842C613.23 107.458 632.593 88.0807 656.969 77.9732L749.266 39.7029C773.666 29.5857 801.088 29.5857 825.488 39.7029Z" stroke="#E2E1DB"/>
		<path d="M825.486 -0.136927L945.927 49.8029C970.303 59.9104 989.666 79.2876 999.756 103.672L1049.7 224.372C1059.78 248.733 1059.78 276.098 1049.7 300.459L999.756 421.159C989.666 445.543 970.303 464.92 945.927 475.028L825.486 524.968C801.086 535.085 773.665 535.085 749.265 524.968L628.824 475.028C604.447 464.92 585.084 445.543 574.995 421.159L525.051 300.459C514.97 276.098 514.97 248.733 525.051 224.372L574.995 103.672C585.084 79.2876 604.447 59.9104 628.824 49.8029L749.265 -0.136936C773.665 -10.2542 801.086 -10.2542 825.486 -0.136927Z" stroke="#E2E1DB"/>
		<path d="M825.486 -39.9807L974.07 21.6286C998.447 31.7362 1017.81 51.1133 1027.9 75.4973L1089.5 224.37C1099.58 248.731 1099.58 276.097 1089.5 300.457L1027.9 449.33C1017.81 473.714 998.447 493.092 974.07 503.199L825.486 564.808C801.086 574.926 773.665 574.926 749.265 564.808L600.681 503.199C576.304 493.092 556.941 473.714 546.851 449.33L485.25 300.457C475.17 276.097 475.17 248.731 485.25 224.37L546.851 75.4973C556.941 51.1133 576.304 31.7362 600.681 21.6286L749.265 -39.9807C773.665 -50.0979 801.086 -50.0979 825.486 -39.9807Z" stroke="#E2E1DB"/>
		<path d="M825.487 -79.8205L1002.21 -6.54167C1026.59 3.56589 1045.95 22.943 1056.04 47.327L1129.3 224.373C1139.38 248.734 1139.38 276.099 1129.3 300.46L1056.04 477.506C1045.95 501.89 1026.59 521.267 1002.21 531.374L825.487 604.653C801.087 614.771 773.665 614.771 749.265 604.653L572.537 531.374C548.161 521.267 528.798 501.89 518.708 477.506L445.449 300.46C435.369 276.099 435.369 248.734 445.449 224.373L518.708 47.327C528.798 22.943 548.161 3.5659 572.537 -6.54166L749.265 -79.8205C773.665 -89.9377 801.087 -89.9377 825.487 -79.8205Z" stroke="#E2E1DB"/>
		<path d="M825.485 -119.664L1030.36 -34.7159C1054.73 -24.6083 1074.1 -5.23119 1084.19 19.1528L1169.1 224.372C1179.18 248.732 1179.18 276.098 1169.1 300.458L1084.19 505.677C1074.1 530.061 1054.73 549.438 1030.36 559.546L825.485 644.494C801.085 654.611 773.663 654.611 749.264 644.494L544.392 559.546C520.015 549.438 500.652 530.061 490.563 505.677L405.646 300.458C395.566 276.098 395.566 248.732 405.646 224.371L490.563 19.1528C500.652 -5.23122 520.015 -24.6083 544.392 -34.7159L749.264 -119.664C773.664 -129.782 801.085 -129.781 825.485 -119.664Z" stroke="#E2E1DB"/>
		<path d="M825.485 -159.508L1058.5 -62.8901C1082.88 -52.7826 1102.24 -33.4054 1112.33 -9.02147L1208.9 224.37C1218.98 248.731 1218.98 276.096 1208.9 300.457L1112.33 533.848C1102.24 558.232 1082.88 577.609 1058.5 587.717L825.485 684.335C801.085 694.452 773.664 694.452 749.264 684.335L516.249 587.717C491.872 577.609 472.509 558.232 462.419 533.848L365.845 300.457C355.765 276.096 355.765 248.731 365.845 224.37L462.419 -9.02147C472.509 -33.4054 491.872 -52.7826 516.249 -62.8901L749.264 -159.508C773.664 -169.625 801.085 -169.625 825.485 -159.508Z" stroke="#E2E1DB"/>
		<path d="M825.486 -199.348L1086.64 -91.0604C1111.02 -80.9529 1130.38 -61.5757 1140.47 -37.1918L1248.71 224.372C1258.79 248.733 1258.79 276.099 1248.71 300.459L1140.47 562.023C1130.38 586.407 1111.02 605.785 1086.64 615.892L825.486 724.18C801.086 734.297 773.664 734.297 749.264 724.18L488.105 615.892C463.729 605.785 444.366 586.407 434.276 562.023L326.045 300.459C315.965 276.099 315.965 248.733 326.045 224.372L434.276 -37.1918C444.366 -61.5757 463.729 -80.9529 488.105 -91.0604L749.264 -199.348C773.664 -209.465 801.086 -209.465 825.486 -199.348Z" stroke="#E2E1DB"/>
		<path d="M825.486 -239.192L1114.79 -119.235C1139.17 -109.127 1158.53 -89.7499 1168.62 -65.366L1288.51 224.371C1298.59 248.732 1298.59 276.097 1288.51 300.458L1168.62 590.195C1158.53 614.579 1139.16 633.956 1114.79 644.063L825.486 764.02C801.086 774.138 773.665 774.138 749.265 764.02L459.962 644.063C435.585 633.956 416.223 614.579 406.133 590.195L286.244 300.458C276.164 276.097 276.164 248.732 286.244 224.371L406.133 -65.366C416.223 -89.7499 435.586 -109.127 459.962 -119.235L749.265 -239.192C773.665 -249.309 801.086 -249.309 825.486 -239.192Z" stroke="#E2E1DB"/>
		<path d="M825.486 -279.035L1142.93 -147.409C1167.31 -137.301 1186.67 -117.924 1196.76 -93.5402L1328.31 224.37C1338.39 248.73 1338.39 276.096 1328.31 300.456L1196.76 618.366C1186.67 642.75 1167.31 662.127 1142.93 672.235L825.486 803.861C801.086 813.978 773.665 813.978 749.265 803.861L431.819 672.235C407.442 662.127 388.079 642.75 377.99 618.366L246.443 300.456C236.363 276.096 236.363 248.73 246.443 224.37L377.99 -93.5402C388.079 -117.924 407.442 -137.301 431.819 -147.409L749.265 -279.035C773.665 -289.153 801.086 -289.153 825.486 -279.035Z" stroke="#E2E1DB"/>
		<path d="M825.486 -318.875L1171.08 -175.579C1195.45 -165.472 1214.82 -146.094 1224.91 -121.71L1368.11 224.372C1378.19 248.733 1378.19 276.098 1368.11 300.459L1224.91 646.541C1214.82 670.925 1195.45 690.302 1171.08 700.41L825.486 843.706C801.087 853.823 773.665 853.823 749.265 843.706L403.675 700.41C379.299 690.302 359.936 670.925 349.846 646.541L206.642 300.459C196.562 276.098 196.562 248.733 206.642 224.372L349.846 -121.71C359.936 -146.094 379.299 -165.472 403.676 -175.579L749.265 -318.875C773.665 -328.992 801.087 -328.992 825.486 -318.875Z" stroke="#E2E1DB"/>
		<path d="M825.487 -358.719L1199.22 -203.753C1223.6 -193.646 1242.96 -174.269 1253.05 -149.885L1407.91 224.37C1417.99 248.731 1417.99 276.096 1407.91 300.457L1253.05 674.712C1242.96 699.096 1223.6 718.473 1199.22 728.581L825.487 883.547C801.087 893.664 773.665 893.664 749.266 883.547L375.532 728.581C351.156 718.473 331.793 699.096 321.703 674.712L166.842 300.457C156.761 276.096 156.761 248.731 166.842 224.37L321.703 -149.885C331.793 -174.269 351.156 -193.646 375.532 -203.753L749.266 -358.719C773.665 -368.836 801.087 -368.836 825.487 -358.719Z" stroke="#E2E1DB"/>
		<path d="M825.487 -398.559L1227.36 -231.924C1251.74 -221.816 1271.1 -202.439 1281.19 -178.055L1447.71 224.373C1457.79 248.733 1457.79 276.099 1447.71 300.46L1281.19 702.887C1271.1 727.271 1251.74 746.648 1227.36 756.756L825.487 923.391C801.087 933.508 773.666 933.508 749.266 923.391L347.389 756.756C323.012 746.648 303.649 727.271 293.56 702.887L127.041 300.46C116.961 276.099 116.961 248.733 127.041 224.373L293.56 -178.055C303.649 -202.439 323.012 -221.816 347.389 -231.924L749.266 -398.559C773.666 -408.676 801.087 -408.676 825.487 -398.559Z" stroke="#E2E1DB"/>
		<path d="M825.487 -438.403L1255.51 -260.098C1279.88 -249.99 1299.25 -230.613 1309.34 -206.229L1487.51 224.371C1497.59 248.732 1497.59 276.098 1487.51 300.458L1309.34 731.059C1299.25 755.443 1279.88 774.82 1255.51 784.928L825.487 963.232C801.088 973.349 773.666 973.349 749.266 963.232L319.246 784.928C294.869 774.82 275.506 755.443 265.416 731.059L87.2399 300.458C77.1598 276.097 77.1599 248.732 87.24 224.371L265.416 -206.229C275.506 -230.613 294.869 -249.99 319.246 -260.098L749.266 -438.403C773.666 -448.52 801.087 -448.52 825.487 -438.403Z" stroke="#E2E1DB"/>
		<path d="M825.486 -478.246L1283.65 -288.272C1308.03 -278.165 1327.39 -258.787 1337.48 -234.403L1527.31 224.37C1537.39 248.731 1537.39 276.096 1527.31 300.457L1337.48 759.23C1327.39 783.614 1308.03 802.991 1283.65 813.099L825.486 1003.07C801.086 1013.19 773.665 1013.19 749.265 1003.07L291.1 813.099C266.724 802.991 247.361 783.614 237.271 759.23L47.4372 300.457C37.3571 276.096 37.3571 248.731 47.4372 224.37L237.271 -234.403C247.361 -258.787 266.724 -278.165 291.1 -288.272L749.265 -478.246C773.665 -488.364 801.086 -488.364 825.486 -478.246Z" stroke="#E2E1DB"/>
		<path d="M825.486 -518.086L1311.79 -316.442C1336.17 -306.335 1355.53 -286.958 1365.62 -262.574L1567.11 224.372C1577.19 248.733 1577.19 276.098 1567.11 300.459L1365.62 787.405C1355.53 811.789 1336.17 831.166 1311.79 841.274L825.486 1042.92C801.086 1053.03 773.665 1053.03 749.265 1042.92L262.957 841.274C238.58 831.166 219.217 811.789 209.128 787.405L7.63643 300.459C-2.44367 276.098 -2.44367 248.733 7.63644 224.372L209.128 -262.574C219.217 -286.958 238.58 -306.335 262.957 -316.442L749.265 -518.086C773.665 -528.203 801.086 -528.203 825.486 -518.086Z" stroke="#E2E1DB"/>
		<path d="M825.486 -557.606L1339.71 -344.387C1364.09 -334.28 1383.45 -314.902 1393.54 -290.519L1606.59 224.372C1616.67 248.732 1616.67 276.098 1606.59 300.458L1393.54 815.349C1383.45 839.733 1364.09 859.11 1339.71 869.217L825.486 1082.44C801.086 1092.55 773.664 1092.55 749.264 1082.44L235.041 869.217C210.665 859.11 191.302 839.733 181.212 815.349L-31.8421 300.458C-41.9222 276.098 -41.9222 248.732 -31.8421 224.372L181.212 -290.519C191.302 -314.903 210.665 -334.28 235.041 -344.387L749.264 -557.606C773.664 -567.723 801.086 -567.723 825.486 -557.606Z" stroke="#E2E1DB"/>
		<path d="M825.486 -596.406L1367.12 -371.824C1391.49 -361.716 1410.86 -342.339 1420.95 -317.955L1645.35 224.371C1655.43 248.732 1655.43 276.097 1645.35 300.458L1420.95 842.784C1410.86 867.168 1391.49 886.545 1367.12 896.653L825.486 1121.24C801.086 1131.35 773.665 1131.35 749.265 1121.24L207.634 896.653C183.258 886.545 163.895 867.168 153.805 842.784L-70.6018 300.458C-80.682 276.097 -80.6819 248.732 -70.6018 224.371L153.805 -317.955C163.895 -342.339 183.258 -361.716 207.634 -371.824L749.265 -596.406C773.665 -606.524 801.086 -606.524 825.486 -596.406Z" stroke="#E2E1DB"/>
		<path d="M825.487 -630.895L1391.48 -396.21C1415.86 -386.103 1435.22 -366.725 1445.31 -342.341L1679.81 224.372C1689.89 248.733 1689.89 276.099 1679.81 300.459L1445.31 867.173C1435.22 891.557 1415.86 910.934 1391.48 921.042L825.487 1155.73C801.087 1165.84 773.665 1165.84 749.266 1155.73L183.272 921.042C158.896 910.934 139.533 891.557 129.443 867.173L-105.055 300.459C-115.135 276.098 -115.135 248.733 -105.055 224.372L129.443 -342.341C139.533 -366.725 158.896 -386.103 183.272 -396.21L749.266 -630.895C773.665 -641.012 801.087 -641.012 825.487 -630.895Z" stroke="#E2E1DB"/>
	</g>
	<g clip-path="url(#clip1_3046_5121)">
		<rect width="686" height="526" fill="#A77D57"/>
		<g opacity="0.4" clip-path="url(#clip2_3046_5121)">
			<path d="M719.912 234.422C727.315 216.53 741.534 202.285 759.42 194.868C777.325 187.444 797.447 187.444 815.351 194.868C833.238 202.285 847.456 216.53 854.859 234.422C862.269 252.33 862.269 272.5 854.859 290.408C847.456 308.3 833.238 322.545 815.351 329.962C797.447 337.386 777.325 337.386 759.42 329.962C741.534 322.545 727.315 308.3 719.912 290.408C712.503 272.5 712.503 252.33 719.912 234.422Z" stroke="white"/>
			<path d="M825.498 159.232L833.357 162.491C857.733 172.599 877.095 191.977 887.185 216.361L890.499 224.372C900.578 248.732 900.578 276.095 890.499 300.455L887.185 308.466C877.095 332.85 857.733 352.228 833.357 362.336L825.498 365.595C801.097 375.713 773.674 375.713 749.272 365.595L741.414 362.336C717.038 352.228 697.675 332.85 687.586 308.466L684.271 300.455C674.192 276.095 674.192 248.732 684.271 224.372L687.586 216.361C697.675 191.977 717.038 172.599 741.414 162.491L749.272 159.232C773.674 149.114 801.097 149.114 825.498 159.232Z" stroke="white"/>
			<path d="M825.5 119.389L861.5 134.317C885.876 144.425 905.239 163.803 915.328 188.187L930.299 224.371C940.378 248.73 940.378 276.094 930.299 300.453L915.328 336.637C905.239 361.022 885.876 380.399 861.5 390.507L825.5 405.436C801.098 415.554 773.675 415.554 749.274 405.436L713.274 390.507C688.897 380.399 669.535 361.022 659.446 336.637L644.474 300.453C634.395 276.094 634.395 248.73 644.474 224.371L659.446 188.187C669.535 163.803 688.897 144.425 713.274 134.317L749.274 119.389C773.675 109.27 801.098 109.27 825.5 119.389Z" stroke="white"/>
			<path d="M825.499 79.5487L889.641 106.146C914.017 116.255 933.38 135.632 943.469 160.016L970.097 224.373C980.176 248.733 980.176 276.096 970.097 300.456L943.469 364.812C933.38 389.197 914.017 408.574 889.641 418.682L825.499 445.28C801.098 455.399 773.675 455.399 749.273 445.28L685.132 418.682C660.755 408.574 641.393 389.197 631.304 364.812L604.675 300.456C594.597 276.096 594.597 248.733 604.675 224.373L631.304 160.016C641.393 135.632 660.755 116.255 685.132 106.146L749.273 79.5487C773.675 69.4302 801.098 69.4302 825.499 79.5487Z" stroke="white"/>
			<path d="M825.501 39.705L917.784 77.9722C942.16 88.0804 961.523 107.458 971.612 131.842L1009.9 224.372C1019.98 248.731 1019.98 276.095 1009.9 300.454L971.612 392.984C961.523 417.368 942.16 436.746 917.784 446.854L825.501 485.121C801.099 495.24 773.676 495.24 749.275 485.121L656.991 446.854C632.615 436.746 613.252 417.368 603.163 392.984L564.879 300.454C554.8 276.095 554.8 248.731 564.879 224.372L603.163 131.842C613.252 107.458 632.615 88.0804 656.991 77.9722L749.275 39.705C773.676 29.5865 801.099 29.5865 825.501 39.705Z" stroke="white"/>
			<path d="M825.5 -0.134893L945.925 49.8019C970.302 59.9101 989.664 79.2877 999.753 103.672L1049.69 224.374C1059.77 248.734 1059.77 276.097 1049.69 300.457L999.753 421.159C989.664 445.543 970.302 464.921 945.925 475.029L825.5 524.966C801.099 535.084 773.676 535.084 749.274 524.966L628.849 475.029C604.473 464.921 585.11 445.543 575.021 421.159L525.08 300.457C515.001 276.097 515.001 248.734 525.08 224.374L575.021 103.672C585.11 79.2877 604.473 59.9101 628.849 49.8019L749.274 -0.134897C773.676 -10.2534 801.099 -10.2534 825.5 -0.134893Z" stroke="white"/>
			<path d="M825.5 -39.9786L974.066 21.6277C998.443 31.7359 1017.81 51.1135 1027.89 75.4977L1089.49 224.373C1099.57 248.732 1099.57 276.096 1089.49 300.455L1027.89 449.33C1017.81 473.714 998.443 493.092 974.066 503.2L825.499 564.806C801.098 574.925 773.675 574.925 749.274 564.806L600.707 503.2C576.331 493.092 556.968 473.714 546.879 449.33L485.281 300.455C475.202 276.096 475.202 248.732 485.281 224.373L546.879 75.4977C556.968 51.1135 576.331 31.7358 600.707 21.6277L749.274 -39.9786C773.675 -50.0971 801.098 -50.0971 825.5 -39.9786Z" stroke="white"/>
			<path d="M825.499 -79.8185L1002.21 -6.54259C1026.58 3.56557 1045.95 22.9432 1056.04 47.3274L1129.29 224.375C1139.37 248.735 1139.37 276.098 1129.29 300.458L1056.04 477.505C1045.95 501.89 1026.58 521.267 1002.21 531.375L825.499 604.651C801.098 614.77 773.674 614.77 749.273 604.651L572.565 531.375C548.188 521.267 528.826 501.89 518.737 477.505L445.482 300.458C435.403 276.098 435.403 248.735 445.482 224.375L518.737 47.3274C528.826 22.9432 548.188 3.56556 572.565 -6.5426L749.273 -79.8185C773.675 -89.937 801.098 -89.937 825.499 -79.8185Z" stroke="white"/>
			<path d="M825.499 -119.662L1030.35 -34.7169C1054.73 -24.6087 1074.09 -5.23105 1084.18 19.1532L1169.09 224.374C1179.17 248.733 1179.17 276.097 1169.09 300.456L1084.18 505.677C1074.09 530.061 1054.73 549.438 1030.35 559.547L825.499 644.492C801.097 654.61 773.674 654.61 749.273 644.492L544.423 559.547C520.046 549.438 500.684 530.061 490.595 505.677L405.683 300.456C395.604 276.097 395.604 248.733 405.683 224.374L490.595 19.1531C500.684 -5.23111 520.046 -24.6087 544.423 -34.7168L749.273 -119.662C773.674 -129.781 801.097 -129.781 825.499 -119.662Z" stroke="white"/>
			<path d="M825.498 -159.506L1058.49 -62.8911C1082.87 -52.7829 1102.23 -33.4053 1112.32 -9.02109L1208.89 224.372C1218.96 248.732 1218.96 276.095 1208.89 300.454L1112.32 533.848C1102.23 558.232 1082.87 577.61 1058.49 587.718L825.498 684.333C801.097 694.451 773.674 694.451 749.272 684.333L516.28 587.718C491.904 577.61 472.542 558.232 462.452 533.848L365.884 300.455C355.806 276.095 355.806 248.732 365.884 224.372L462.452 -9.02106C472.542 -33.4053 491.904 -52.7829 516.28 -62.8911L749.272 -159.506C773.674 -169.624 801.097 -169.624 825.498 -159.506Z" stroke="white"/>
			<path d="M825.498 -199.346L1086.63 -91.0614C1111.01 -80.9532 1130.37 -61.5756 1140.46 -37.1914L1248.68 224.375C1258.76 248.734 1258.76 276.098 1248.68 300.457L1140.46 562.023C1130.37 586.407 1111.01 605.785 1086.63 615.893L825.498 724.177C801.096 734.296 773.673 734.296 749.272 724.177L488.138 615.893C463.762 605.785 444.399 586.407 434.31 562.023L326.086 300.457C316.007 276.098 316.007 248.734 326.086 224.375L434.31 -37.1914C444.399 -61.5756 463.762 -80.9532 488.138 -91.0614L749.272 -199.346C773.673 -209.464 801.096 -209.464 825.498 -199.346Z" stroke="white"/>
			<path d="M825.499 -239.19L1114.77 -119.236C1139.15 -109.127 1158.51 -89.7498 1168.6 -65.3656L1288.48 224.373C1298.56 248.733 1298.56 276.096 1288.48 300.456L1168.6 590.194C1158.51 614.579 1139.15 633.956 1114.77 644.064L825.499 764.018C801.098 774.137 773.674 774.137 749.273 764.018L459.998 644.064C435.622 633.956 416.259 614.579 406.17 590.194L286.289 300.456C276.21 276.096 276.21 248.733 286.289 224.373L406.17 -65.3656C416.259 -89.7498 435.622 -109.127 459.998 -119.236L749.273 -239.19C773.674 -249.308 801.098 -249.308 825.499 -239.19Z" stroke="white"/>
			<path d="M825.499 -279.033L1142.92 -147.41C1167.29 -137.302 1186.65 -117.924 1196.74 -93.5398L1328.28 224.372C1338.36 248.731 1338.36 276.095 1328.28 300.454L1196.74 618.366C1186.65 642.75 1167.29 662.127 1142.92 672.236L825.499 803.859C801.097 813.978 773.674 813.978 749.273 803.859L431.856 672.236C407.48 662.127 388.117 642.75 378.028 618.366L246.49 300.454C236.411 276.095 236.411 248.731 246.49 224.372L378.028 -93.5398C388.117 -117.924 407.48 -137.302 431.856 -147.41L749.273 -279.033C773.674 -289.152 801.097 -289.152 825.499 -279.033Z" stroke="white"/>
			<path d="M825.498 -318.873L1171.06 -175.58C1195.43 -165.472 1214.8 -146.094 1224.88 -121.71L1368.08 224.374C1378.16 248.733 1378.16 276.097 1368.08 300.456L1224.88 646.541C1214.8 670.925 1195.43 690.302 1171.06 700.411L825.498 843.704C801.097 853.822 773.673 853.822 749.272 843.704L403.714 700.411C379.337 690.302 359.975 670.925 349.886 646.541L206.691 300.456C196.612 276.097 196.612 248.734 206.691 224.374L349.886 -121.71C359.975 -146.094 379.337 -165.472 403.714 -175.58L749.272 -318.873C773.673 -328.992 801.097 -328.992 825.498 -318.873Z" stroke="white"/>
			<path d="M825.5 -358.717L1199.2 -203.754C1223.58 -193.646 1242.94 -174.269 1253.03 -149.884L1407.88 224.373C1417.96 248.732 1417.96 276.096 1407.88 300.455L1253.03 674.712C1242.94 699.096 1223.58 718.474 1199.2 728.582L825.5 883.544C801.098 893.663 773.675 893.663 749.274 883.544L375.574 728.582C351.197 718.474 331.835 699.096 321.746 674.712L166.894 300.455C156.815 276.096 156.815 248.732 166.894 224.373L321.746 -149.884C331.835 -174.269 351.197 -193.646 375.574 -203.754L749.274 -358.717C773.675 -368.835 801.098 -368.835 825.5 -358.717Z" stroke="white"/>
			<path d="M825.501 -398.557L1227.34 -231.925C1251.72 -221.817 1271.08 -202.439 1281.17 -178.055L1447.68 224.375C1457.76 248.734 1457.76 276.098 1447.68 300.457L1281.17 702.887C1271.08 727.271 1251.72 746.649 1227.34 756.757L825.501 923.389C801.1 933.508 773.676 933.508 749.275 923.389L347.433 756.757C323.057 746.649 303.694 727.271 293.605 702.887L127.097 300.457C117.018 276.098 117.018 248.734 127.097 224.375L293.605 -178.055C303.694 -202.439 323.057 -221.817 347.433 -231.925L749.275 -398.557C773.676 -408.675 801.1 -408.675 825.501 -398.557Z" stroke="white"/>
			<path d="M825.5 -438.401L1255.48 -260.099C1279.86 -249.991 1299.22 -230.613 1309.31 -206.229L1487.48 224.374C1497.56 248.733 1497.56 276.097 1487.48 300.456L1309.31 731.058C1299.22 755.443 1279.86 774.82 1255.48 784.928L825.5 963.23C801.099 973.349 773.676 973.349 749.275 963.23L319.291 784.928C294.915 774.82 275.552 755.443 265.463 731.058L87.2985 300.456C77.2196 276.097 77.2196 248.733 87.2985 224.374L265.463 -206.229C275.552 -230.613 294.915 -249.991 319.291 -260.099L749.275 -438.401C773.676 -448.519 801.099 -448.519 825.5 -438.401Z" stroke="white"/>
			<path d="M825.5 -478.244L1283.63 -288.273C1308 -278.165 1327.36 -258.787 1337.45 -234.403L1527.27 224.372C1537.35 248.732 1537.35 276.095 1527.27 300.455L1337.45 759.23C1327.36 783.614 1308 802.992 1283.63 813.1L825.5 1003.07C801.099 1013.19 773.676 1013.19 749.274 1003.07L291.149 813.1C266.773 802.992 247.41 783.614 237.321 759.23L47.4997 300.455C37.4208 276.095 37.4208 248.732 47.4996 224.372L237.321 -234.403C247.41 -258.787 266.773 -278.165 291.149 -288.273L749.274 -478.244C773.676 -488.363 801.099 -488.363 825.5 -478.244Z" stroke="white"/>
			<path d="M825.499 -518.084L1311.77 -316.443C1336.14 -306.335 1355.51 -286.958 1365.59 -262.573L1567.07 224.375C1577.15 248.734 1577.15 276.097 1567.07 300.457L1365.59 787.405C1355.51 811.789 1336.14 831.167 1311.77 841.275L825.5 1042.92C801.098 1053.03 773.675 1053.03 749.274 1042.92L263.007 841.275C238.63 831.167 219.268 811.789 209.179 787.405L7.7008 300.457C-2.37806 276.097 -2.37804 248.734 7.70082 224.375L209.179 -262.573C219.268 -286.958 238.63 -306.335 263.007 -316.443L749.274 -518.084C773.675 -528.203 801.098 -528.203 825.499 -518.084Z" stroke="white"/>
			<path d="M825.498 -557.604L1339.68 -344.388C1364.05 -334.28 1383.42 -314.902 1393.51 -290.518L1606.55 224.374C1616.63 248.733 1616.63 276.097 1606.55 300.456L1393.51 815.348C1383.42 839.732 1364.05 859.11 1339.68 869.218L825.498 1082.43C801.097 1092.55 773.674 1092.55 749.272 1082.43L235.092 869.218C210.716 859.11 191.353 839.733 181.264 815.348L-31.7757 300.456C-41.8546 276.097 -41.8546 248.733 -31.7757 224.374L181.264 -290.518C191.353 -314.902 210.716 -334.28 235.092 -344.388L749.272 -557.604C773.674 -567.722 801.097 -567.722 825.498 -557.604Z" stroke="white"/>
			<path d="M825.498 -596.404L1367.08 -371.824C1391.46 -361.716 1410.82 -342.339 1420.91 -317.954L1645.3 224.374C1655.38 248.733 1655.38 276.096 1645.3 300.456L1420.91 842.784C1410.82 867.168 1391.46 886.546 1367.08 896.654L825.498 1121.23C801.097 1131.35 773.674 1131.35 749.272 1121.23L207.686 896.654C183.31 886.546 163.948 867.168 153.858 842.784L-70.5336 300.456C-80.6124 276.096 -80.6124 248.733 -70.5336 224.374L153.858 -317.955C163.948 -342.339 183.31 -361.716 207.686 -371.824L749.272 -596.404C773.674 -606.523 801.097 -606.523 825.498 -596.404Z" stroke="white"/>
			<path d="M825.5 -630.893L1391.45 -396.211C1415.82 -386.103 1435.19 -366.725 1445.27 -342.341L1679.76 224.375C1689.84 248.734 1689.84 276.098 1679.76 300.457L1445.27 867.173C1435.19 891.557 1415.82 910.934 1391.45 921.043L825.5 1155.72C801.099 1165.84 773.676 1165.84 749.274 1155.72L183.328 921.043C158.951 910.934 139.589 891.557 129.5 867.173L-104.983 300.457C-115.062 276.097 -115.062 248.734 -104.983 224.375L129.5 -342.341C139.589 -366.725 158.951 -386.103 183.328 -396.211L749.274 -630.893C773.676 -641.011 801.099 -641.011 825.5 -630.893Z" stroke="white"/>
		</g>
	</g>
	<defs>
		<clipPath id="clip0_3046_5121">
			<rect x="-215" width="338" height="526" fill="white" transform="translate(901)"/>
		</clipPath>
		<clipPath id="clip1_3046_5121">
			<rect width="686" height="526" fill="white"/>
		</clipPath>
		<clipPath id="clip2_3046_5121">
			<rect width="686" height="526" fill="white"/>
		</clipPath>
	</defs>
</svg>
