<svg viewBox="0 0 20 20" xmlns="http://www.w3.org/2000/svg">
	<path fill-rule="evenodd" clip-rule="evenodd" d="M11.0706 9.99949L16.8063 4.15143C16.9317 4.02271 17.0009 3.84995 16.9991 3.67071C16.9972 3.49147 16.9243 3.32018 16.7963 3.19409C16.7331 3.13175 16.6581 3.08253 16.5756 3.04921C16.4931 3.01589 16.4048 2.99919 16.3158 3.00003C16.2268 3.00087 16.1388 3.01926 16.057 3.05414C15.9752 3.08901 15.9011 3.13964 15.8391 3.20317L10.1133 9.0422L4.15045 3.19409C4.08718 3.1318 4.01216 3.0826 3.92968 3.04932C3.84721 3.01604 3.75893 2.99935 3.66993 3.0002C3.58094 3.00104 3.49298 3.01941 3.41116 3.05425C3.32934 3.08909 3.25527 3.13969 3.1932 3.20317C3.06775 3.33178 2.99832 3.50449 3.00003 3.68373C3.00174 3.86296 3.07442 4.03425 3.2023 4.16046L9.15647 9.99949L3.2023 15.8385C3.07442 15.9647 3.00174 16.1361 3.00003 16.3153C2.99832 16.4945 3.06775 16.6673 3.1932 16.7959C3.25521 16.8594 3.32925 16.9101 3.41108 16.9451C3.49291 16.98 3.58091 16.9984 3.66993 16.9992C3.75896 17.0001 3.84725 16.9833 3.92974 16.95C4.01222 16.9166 4.08724 16.8673 4.15045 16.8049L10.1133 10.9568L15.8391 16.7959C15.9019 16.8605 15.9771 16.9118 16.0603 16.9469C16.1434 16.982 16.2328 17 16.3232 17C16.4112 17.0003 16.4985 16.9833 16.5799 16.9498C16.6613 16.9163 16.7351 16.867 16.7973 16.8049C16.9253 16.6788 16.9981 16.5076 17 16.3283C17.0018 16.1491 16.9326 15.9763 16.8073 15.8476L11.0706 9.99949Z"/>
</svg>
