<svg viewBox="0 0 20 20" xmlns="http://www.w3.org/2000/svg">
	<path fill-rule="evenodd" clip-rule="evenodd" d="M2 9.99955C2 9.69129 2.24989 9.44141 2.55814 9.44141H7.02326C7.20987 9.44141 7.38414 9.53467 7.48766 9.68995L8.81034 11.674H11.1897L12.5123 9.68995C12.6159 9.53467 12.7901 9.44141 12.9767 9.44141H17.4419C17.7501 9.44141 18 9.69129 18 9.99955C18 10.3078 17.7501 10.5577 17.4419 10.5577H13.2755L11.9528 12.5417C11.8493 12.697 11.675 12.7902 11.4884 12.7902H8.51163C8.32501 12.7902 8.15074 12.697 8.04723 12.5417L6.72455 10.5577H2.55814C2.24989 10.5577 2 10.3078 2 9.99955Z"/>
	<path fill-rule="evenodd" clip-rule="evenodd" d="M6.45767 3.48828L13.5423 3.48828C13.9231 3.48848 14.2965 3.59489 14.6201 3.79554C14.9434 3.99603 15.2044 4.28267 15.3738 4.62326L15.3742 4.6241L17.9409 9.75001C17.9798 9.82759 18 9.91315 18 9.99991V14.465C18 15.0078 17.7844 15.5283 17.4006 15.9121C17.0168 16.2959 16.4963 16.5115 15.9535 16.5115H4.04651C3.50374 16.5115 2.9832 16.2959 2.59941 15.9121C2.21561 15.5283 2 15.0078 2 14.465V9.99991C2 9.91315 2.02022 9.82759 2.05907 9.75001L4.62575 4.6241L4.62616 4.62327C4.7956 4.28267 5.05662 3.99603 5.37994 3.79554C5.70351 3.59489 6.07694 3.48848 6.45767 3.48828ZM6.46512 4.60456L5.62465 5.12236L3.11628 10.1318V14.465C3.11628 14.7117 3.21429 14.9483 3.38874 15.1228C3.56319 15.2973 3.7998 15.3953 4.04651 15.3953H15.9535C16.2002 15.3953 16.4368 15.2973 16.6113 15.1228C16.7857 14.9483 16.8837 14.7117 16.8837 14.465V10.1318L14.3753 5.12236L14.3746 5.12084C14.2976 4.96586 14.1789 4.83543 14.0318 4.74423C13.8848 4.65307 13.7153 4.60471 13.5423 4.60456M6.46512 4.60456L5.62541 5.12084C5.70242 4.96586 5.82115 4.83543 5.96822 4.74423C6.11522 4.65307 6.28471 4.60471 6.45767 4.60456M6.45767 4.60456H13.5423H6.45767Z"/>
</svg>
