<svg viewBox="0 0 20 20" xmlns="http://www.w3.org/2000/svg">
	<path d="M17 5.5V16.75C17 17.0605 16.9384 17.3521 16.8152 17.6245C16.692 17.897 16.5267 18.1343 16.3194 18.3364C16.1121 18.5386 15.8672 18.6997 15.5847 18.8198C15.3023 18.9399 15.0048 19 14.6923 19H4.30769C3.98918 19 3.6902 18.9399 3.41076 18.8198C3.13131 18.6997 2.88792 18.5386 2.68059 18.3364C2.47326 18.1343 2.30799 17.897 2.1848 17.6245C2.0616 17.3521 2 17.0605 2 16.75V5.5H4.30769V4.375C4.30769 3.91211 4.39934 3.47559 4.58263 3.06543C4.76593 2.65527 5.01382 2.29785 5.32632 1.99316C5.63882 1.68848 6.00541 1.44678 6.42608 1.26807C6.84676 1.08936 7.29447 1 7.76923 1C8.39423 1 8.97416 1.15234 9.50901 1.45703C10.0439 1.15234 10.6178 1 11.2308 1C11.7055 1 12.1532 1.08936 12.5739 1.26807C12.9946 1.44678 13.3612 1.68848 13.6737 1.99316C13.9862 2.29785 14.2341 2.65527 14.4174 3.06543C14.6007 3.47559 14.6923 3.91211 14.6923 4.375V5.5H17ZM13.5385 4.375C13.5385 4.07031 13.4769 3.78027 13.3537 3.50488C13.2305 3.22949 13.0652 2.99072 12.8579 2.78857C12.6505 2.58643 12.4056 2.42529 12.1232 2.30518C11.8407 2.18506 11.5433 2.125 11.2308 2.125C10.9603 2.125 10.7049 2.16895 10.4645 2.25684C10.6388 2.46777 10.777 2.67578 10.8792 2.88086C10.9814 3.08594 11.058 3.29102 11.1091 3.49609C11.1602 3.70117 11.1932 3.91064 11.2082 4.12451C11.2233 4.33838 11.2308 4.5625 11.2308 4.79688V5.5H13.5385V4.375ZM5.46154 5.5H10.0769V4.375C10.0769 4.07031 10.0153 3.78027 9.89213 3.50488C9.76893 3.22949 9.60367 2.99072 9.39633 2.78857C9.189 2.58643 8.94411 2.42529 8.66166 2.30518C8.37921 2.18506 8.08173 2.125 7.76923 2.125C7.45072 2.125 7.15174 2.18506 6.8723 2.30518C6.59285 2.42529 6.34946 2.58643 6.14213 2.78857C5.9348 2.99072 5.76953 3.22949 5.64633 3.50488C5.52314 3.78027 5.46154 4.07031 5.46154 4.375V5.5ZM12.6911 17.875C12.4868 17.5234 12.3846 17.1484 12.3846 16.75V6.625H3.15385V16.75C3.15385 16.9082 3.18389 17.0547 3.24399 17.1895C3.30409 17.3242 3.38672 17.4429 3.49189 17.5454C3.59706 17.6479 3.71875 17.7285 3.85697 17.7871C3.99519 17.8457 4.14543 17.875 4.30769 17.875H12.6911ZM15.8462 6.625H13.5385V16.75C13.5385 16.9082 13.5685 17.0547 13.6286 17.1895C13.6887 17.3242 13.7713 17.4429 13.8765 17.5454C13.9817 17.6479 14.1034 17.7285 14.2416 17.7871C14.3798 17.8457 14.53 17.875 14.6923 17.875C14.8546 17.875 15.0048 17.8457 15.143 17.7871C15.2812 17.7285 15.4029 17.6479 15.5081 17.5454C15.6133 17.4429 15.6959 17.3242 15.756 17.1895C15.8161 17.0547 15.8462 16.9082 15.8462 16.75V6.625Z"/>
</svg>
