<svg viewBox="0 0 178 34" xmlns="http://www.w3.org/2000/svg">
	<path d="M23.66 17.3005C24.276 17.3005 24.892 17.3005 25.508 17.3005C27.004 17.3005 28.192 17.1675 29.116 16.8571C30.04 16.5468 30.788 15.9261 31.404 14.9507C32.02 13.9754 32.328 12.8227 32.328 11.4039C32.328 9.27587 31.8 7.67981 30.744 6.70444C29.688 5.68473 28.016 5.19705 25.684 5.19705C24.804 5.19705 24.144 5.24138 23.704 5.28572C23.66 9.27587 23.66 13.266 23.66 17.3005ZM177 15.7931C177 17.3892 175.68 18.7192 174.096 18.7192C172.512 18.7192 171.192 17.4335 171.192 15.7931C171.192 14.197 172.512 12.867 174.096 12.867C175.724 12.867 177 14.197 177 15.7931ZM6.808 15.7931C6.808 17.3892 5.532 18.7192 3.904 18.7192C2.276 18.7192 1 17.4335 1 15.7931C1 14.197 2.32 12.867 3.904 12.867C5.488 12.867 6.808 14.197 6.808 15.7931ZM138.324 17.4335C138.324 21.601 139.16 24.7488 140.788 26.8325C142.46 28.9163 144.924 29.9803 148.224 29.9803C151.128 29.9803 153.416 28.9163 155.088 26.8325C156.76 24.7488 157.64 21.601 157.64 17.4778C157.64 13.4434 156.804 10.3399 155.132 8.21182C153.46 6.03941 151.04 4.97537 147.916 4.97537C144.836 4.97537 142.416 6.03941 140.788 8.12315C139.16 10.2069 138.324 13.3103 138.324 17.4335ZM133.968 17.3005C133.968 13.266 135.288 10.0739 137.972 7.63547C140.612 5.19705 143.956 4 147.916 4C151.92 4 155.308 5.19705 157.992 7.59114C160.676 9.98522 162.04 13.266 162.04 17.4335C162.04 21.468 160.764 24.7044 158.168 27.1872C155.572 29.6699 152.184 30.9113 148.004 30.9113C143.912 30.9113 140.568 29.6699 137.928 27.1872C135.288 24.7044 133.968 21.4236 133.968 17.3005ZM104.576 10.7389C104.268 10.7389 104.004 10.7389 103.696 10.7389C103.74 8.65518 103.784 6.57143 103.828 4.48769C112.144 4.48769 120.504 4.48769 128.82 4.48769C128.864 6.57143 128.908 8.65518 128.952 10.7389C128.688 10.7389 128.424 10.7389 128.116 10.7389C127.808 9.00986 127.412 7.81281 126.928 7.01478C126.444 6.26108 125.872 5.7734 125.3 5.59606C124.728 5.41872 123.716 5.33005 122.308 5.33005C120.944 5.33005 119.536 5.33005 118.172 5.33005C118.172 11.4483 118.172 17.5665 118.172 23.6847C118.172 25.7241 118.216 27.0542 118.304 27.6749C118.392 28.2956 118.656 28.7833 119.052 29.0936C119.492 29.4039 120.24 29.5369 121.428 29.5369C121.868 29.5369 122.264 29.5369 122.704 29.5369C122.704 29.8473 122.704 30.1133 122.704 30.4236C118.436 30.4236 114.124 30.4236 109.856 30.4236C109.856 30.1133 109.856 29.8473 109.856 29.5369C110.296 29.5369 110.736 29.5369 111.176 29.5369C112.276 29.5369 113.024 29.4039 113.464 29.1379C113.904 28.8719 114.168 28.4286 114.3 27.8079C114.432 27.2315 114.476 25.8128 114.476 23.6404C114.476 17.5222 114.476 11.4039 114.476 5.33005C113.2 5.33005 111.924 5.33005 110.648 5.33005C108.976 5.33005 107.876 5.41872 107.304 5.55172C106.732 5.72906 106.204 6.17241 105.72 7.01478C105.192 7.85714 104.796 9.09853 104.576 10.7389ZM90.496 4.48769C93.356 4.48769 96.216 4.48769 99.12 4.48769C99.12 4.79803 99.12 5.06404 99.12 5.37439C97.976 5.46306 97.14 5.72907 96.568 6.17242C95.996 6.61577 95.644 7.10345 95.512 7.6798C95.38 8.25616 95.336 9.27586 95.336 10.8719C95.336 13.7537 95.336 16.6355 95.336 19.5172C95.336 21.734 95.248 23.3744 95.072 24.4384C94.896 25.5025 94.412 26.5665 93.576 27.5862C92.74 28.6059 91.596 29.4483 90.1 30.069C88.604 30.6897 86.888 31 84.952 31C82.664 31 80.728 30.601 79.144 29.803C77.56 29.0049 76.416 27.9852 75.756 26.7438C75.096 25.5025 74.744 23.8177 74.744 21.734C74.744 20.8473 74.744 19.9606 74.788 19.0739C74.788 16.3695 74.788 13.665 74.788 11.0049C74.788 8.92118 74.744 7.59113 74.612 7.01478C74.48 6.39409 74.216 5.99507 73.864 5.7734C73.468 5.55172 72.632 5.41872 71.312 5.41872C71.136 5.41872 70.916 5.41872 70.74 5.41872C70.74 5.10838 70.74 4.84237 70.74 4.53203C74.656 4.53203 78.572 4.53203 82.532 4.53203C82.532 4.84237 82.532 5.10838 82.532 5.41872C82.356 5.41872 82.18 5.41872 82.004 5.41872C80.728 5.41872 79.892 5.50739 79.496 5.72907C79.1 5.95074 78.836 6.34976 78.704 6.92611C78.572 7.50247 78.484 8.87685 78.484 11.0493C78.484 13.7537 78.484 16.5025 78.484 19.2069C78.484 22.0443 78.616 24.0394 78.88 25.2365C79.144 26.4335 79.892 27.4532 81.08 28.3399C82.268 29.2266 83.896 29.67 85.876 29.67C87.46 29.67 88.868 29.3596 90.144 28.7833C91.42 28.2069 92.388 27.4532 93.004 26.5665C93.62 25.6798 94.016 24.7488 94.148 23.8177C94.28 22.8867 94.368 21.4236 94.368 19.3842C94.368 16.4138 94.368 13.4877 94.368 10.5172C94.368 9.05419 94.28 8.03448 94.104 7.45813C93.928 6.88177 93.576 6.39409 93.048 6.03941C92.52 5.68473 91.64 5.46306 90.452 5.41872C90.496 5.06404 90.496 4.79803 90.496 4.48769ZM66.032 22.8424C65.988 25.4138 65.9 27.9409 65.856 30.468C58.552 30.468 51.248 30.468 43.944 30.468C43.944 30.1576 43.944 29.8916 43.944 29.5813C44.208 29.5813 44.472 29.5813 44.692 29.5813C45.792 29.5813 46.54 29.4483 46.98 29.1823C47.42 28.9163 47.684 28.4729 47.816 27.8522C47.948 27.2759 47.992 25.8571 47.992 23.6847C47.992 19.4286 47.992 15.1724 47.992 10.9606C47.992 8.87685 47.948 7.5468 47.816 6.97045C47.684 6.34976 47.464 5.95074 47.068 5.72907C46.672 5.50739 45.836 5.37439 44.516 5.37439C44.34 5.37439 44.12 5.37439 43.944 5.37439C43.944 5.06404 43.944 4.79803 43.944 4.48769C48.08 4.48769 52.216 4.48769 56.308 4.48769C56.308 4.79803 56.308 5.06404 56.308 5.37439C55.912 5.37439 55.56 5.37439 55.164 5.37439C53.888 5.37439 53.052 5.46306 52.656 5.68473C52.26 5.9064 51.996 6.30542 51.864 6.88177C51.732 7.45813 51.644 8.83251 51.644 11.0049C51.644 15.5271 51.644 20.0493 51.644 24.6158C51.644 26.4778 51.688 27.6749 51.776 28.1182C51.864 28.6059 52.128 28.9606 52.612 29.2266C53.052 29.4926 54.02 29.6256 55.516 29.6256C56.176 29.6256 56.836 29.6256 57.452 29.6256C59.036 29.6256 60.224 29.4926 60.972 29.2266C61.72 28.9606 62.468 28.3399 63.172 27.4089C63.876 26.4778 64.492 24.9704 65.064 22.931C65.416 22.8424 65.724 22.8424 66.032 22.8424ZM23.66 18.2315C23.66 20.0493 23.66 21.867 23.66 23.6847C23.66 25.7241 23.704 27.0542 23.792 27.7192C23.88 28.3399 24.144 28.8276 24.584 29.1379C25.024 29.4483 25.772 29.5813 26.916 29.5813C27.224 29.5813 27.488 29.5813 27.796 29.5813C27.796 29.8916 27.796 30.1576 27.796 30.468C23.88 30.468 19.92 30.468 16.004 30.468C16.004 30.1576 16.004 29.8916 16.004 29.5813C16.224 29.5813 16.444 29.5813 16.664 29.5813C17.764 29.5813 18.556 29.4483 18.952 29.1823C19.392 28.9163 19.656 28.4729 19.744 27.8522C19.876 27.2759 19.92 25.8571 19.92 23.6847C19.92 19.4286 19.92 15.1724 19.92 10.9606C19.92 8.87685 19.876 7.5468 19.744 6.97045C19.612 6.34976 19.392 5.95074 18.996 5.72907C18.6 5.50739 17.764 5.37439 16.444 5.37439C16.268 5.37439 16.136 5.37439 15.96 5.37439C15.96 5.06404 15.96 4.79803 15.96 4.48769C17.06 4.44335 18.116 4.39902 19.172 4.35468C21.768 4.26601 23.792 4.22167 25.2 4.22167C27.84 4.22167 29.908 4.44335 31.36 4.84237C32.812 5.24138 33.956 5.99507 34.88 7.10345C35.804 8.16749 36.244 9.54188 36.244 11.1823C36.244 12.601 35.936 13.8424 35.32 14.9507C34.704 16.0591 33.78 16.8571 32.636 17.4335C31.448 18.0099 29.424 18.2759 26.432 18.2759C25.552 18.2315 24.628 18.2315 23.66 18.2315Z"/>
</svg>
