<svg viewBox="0 0 496 434" fill="none" xmlns="http://www.w3.org/2000/svg">
	<g clip-path="url(#clip0_395_6098)">
		<path opacity="0.1" d="M84.7692 56.0319C82.1135 59.2587 81.0905 63.7887 79.9435 68.0653C70.7262 102.449 48.0238 130.12 22.1647 149.864C11.2165 158.231 -2.11867 169.457 0.278668 184.454C1.56517 192.511 7.22783 198.416 11.4438 205.004C20.2685 218.744 23.1257 237.428 18.92 253.872C14.1357 272.587 0.774665 290.071 4.91317 308.977C7.4655 320.643 16.1248 328.917 24.4535 336.043C37.4425 347.154 50.8466 357.561 64.6657 367.262C73.9295 373.767 83.7823 380.097 94.5755 380.919C104.082 381.648 113.393 378.034 122.414 374.46C130.298 371.357 138.384 368.094 144.749 361.842C148.882 357.762 152.22 352.493 156.834 349.157C167.684 341.313 181.603 346.287 194.034 349.628C223.618 357.489 255.028 354.611 282.694 341.504C325.52 321.336 358.163 279.061 400.039 256.365C418.05 246.602 437.642 240.546 454.32 227.975C463.717 220.813 471.792 212.063 478.18 202.119C490.807 182.649 497.612 157.827 495.654 133.533C493.695 109.239 482.649 85.8181 465.325 72.104C446.777 57.4229 423.351 54.6822 402.24 45.8652C380.442 36.7587 361.057 21.1054 339.47 11.3422C322 3.46142 302.989 -0.404244 283.831 0.0288563C264.673 0.461957 245.856 5.18283 228.759 13.845C205.266 25.713 181.458 53.4618 155.289 55.5458C136.663 57.0403 99.3288 38.3566 84.7692 56.0319Z" fill="#A77D57"/>
		<path opacity="0.1" d="M320.018 433.999C372.916 433.999 415.798 424.219 415.798 412.156C415.798 400.092 372.916 390.312 320.018 390.312C267.12 390.312 224.238 400.092 224.238 412.156C224.238 424.219 267.12 433.999 320.018 433.999Z" fill="#A77D57"/>
		<path d="M404.033 354.973C404.033 354.973 412.516 371.645 405.583 380.767C398.649 389.889 406.213 414.742 406.213 414.742" stroke="#A77D57" stroke-miterlimit="10"/>
		<path d="M406.566 349.786C406.566 353.003 404.21 355.604 404.21 355.604C404.21 355.604 401.854 353.018 401.854 349.786C401.854 346.554 404.21 343.969 404.21 343.969C404.21 343.969 406.566 346.57 406.566 349.786Z" fill="#A77D57"/>
		<path d="M408.451 354.973C408.451 354.973 399.968 371.645 406.901 380.767C413.835 389.889 406.271 414.742 406.271 414.742" stroke="#A77D57" stroke-miterlimit="10"/>
		<path d="M405.936 349.786C405.936 353.003 408.292 355.604 408.292 355.604C408.292 355.604 410.648 353.018 410.648 349.786C410.648 346.554 408.292 343.969 408.292 343.969C408.292 343.969 405.936 346.57 405.936 349.786Z" fill="#A77D57"/>
		<path opacity="0.1" d="M405.936 349.786C405.936 353.003 408.292 355.604 408.292 355.604C408.292 355.604 410.648 353.018 410.648 349.786C410.648 346.554 408.292 343.969 408.292 343.969C408.292 343.969 405.936 346.57 405.936 349.786Z" fill="black"/>
		<path d="M411.908 354.973C411.908 354.973 420.391 371.645 413.458 380.767C406.524 389.889 414.088 414.742 414.088 414.742" stroke="#A77D57" stroke-miterlimit="10"/>
		<path d="M414.424 349.786C414.424 353.003 412.068 355.604 412.068 355.604C412.068 355.604 409.717 353.003 409.717 349.786C409.717 346.57 412.073 343.969 412.073 343.969C412.073 343.969 414.424 346.57 414.424 349.786Z" fill="#A77D57"/>
		<path d="M413.101 363.144C410.874 365.461 407.371 365.704 407.371 365.704C407.371 365.704 407.48 362.193 409.701 359.876C411.923 357.559 415.431 357.316 415.431 357.316C415.431 357.316 415.328 360.828 413.101 363.144Z" fill="#A77D57"/>
		<path d="M413.333 374.644C411.107 376.961 407.604 377.204 407.604 377.204C407.604 377.204 407.712 373.693 409.934 371.376C412.155 369.059 415.664 368.816 415.664 368.816C415.664 368.816 415.55 372.328 413.333 374.644Z" fill="#A77D57"/>
		<path d="M401.249 380.974C403.352 383.4 403.279 386.916 403.279 386.916C403.279 386.916 399.792 386.497 397.689 384.067C395.586 381.636 395.659 378.125 395.659 378.125C395.659 378.125 399.141 378.549 401.249 380.974Z" fill="#A77D57"/>
		<path d="M403.201 356.446C405.877 358.22 406.745 361.617 406.745 361.617C406.745 361.617 403.273 362.134 400.597 360.371C397.921 358.608 397.053 355.2 397.053 355.2C397.053 355.2 400.525 354.667 403.201 356.446Z" fill="#A77D57"/>
		<path opacity="0.1" d="M403.201 356.446C405.877 358.22 406.745 361.617 406.745 361.617C406.745 361.617 403.273 362.134 400.597 360.371C397.921 358.608 397.053 355.2 397.053 355.2C397.053 355.2 400.525 354.667 403.201 356.446Z" fill="black"/>
		<path d="M416.309 354.973C416.309 354.973 407.825 371.645 414.759 380.767C421.692 389.889 414.128 414.742 414.128 414.742" stroke="#A77D57" stroke-miterlimit="10"/>
		<path d="M413.793 349.786C413.793 353.003 416.149 355.604 416.149 355.604C416.149 355.604 418.505 353.018 418.505 349.786C418.505 346.554 416.149 343.969 416.149 343.969C416.149 343.969 413.793 346.57 413.793 349.786Z" fill="#A77D57"/>
		<path opacity="0.1" d="M413.793 349.786C413.793 353.003 416.149 355.604 416.149 355.604C416.149 355.604 418.505 353.018 418.505 349.786C418.505 346.554 416.149 343.969 416.149 343.969C416.149 343.969 413.793 346.57 413.793 349.786Z" fill="black"/>
		<path d="M414.471 363.394C412.218 365.684 412.068 369.196 412.068 369.196C412.068 369.196 415.577 368.994 417.829 366.708C420.082 364.423 420.232 360.906 420.232 360.906C420.232 360.906 416.729 361.103 414.471 363.394Z" fill="#A77D57"/>
		<path opacity="0.1" d="M414.471 363.394C412.218 365.684 412.068 369.196 412.068 369.196C412.068 369.196 415.577 368.994 417.829 366.708C420.082 364.423 420.232 360.906 420.232 360.906C420.232 360.906 416.729 361.103 414.471 363.394Z" fill="black"/>
		<path d="M418.893 379.319C416.64 381.61 416.49 385.121 416.49 385.121C416.49 385.121 419.998 384.92 422.251 382.634C424.504 380.348 424.654 376.832 424.654 376.832C424.654 376.832 421.145 377.029 418.893 379.319Z" fill="#A77D57"/>
		<path d="M412.389 375.819C412.389 375.819 417.499 367.762 424.665 367.586" stroke="#A77D57" stroke-miterlimit="10"/>
		<path d="M408.409 370.951C408.409 370.951 403.299 362.895 396.133 362.719" stroke="#A77D57" stroke-miterlimit="10"/>
		<path d="M407.748 382.455C407.748 382.455 412.858 374.393 420.05 374.207" stroke="#A77D57" stroke-miterlimit="10"/>
		<path d="M424.431 368.853C425.165 368.853 425.759 368.258 425.759 367.524C425.759 366.79 425.165 366.195 424.431 366.195C423.698 366.195 423.104 366.79 423.104 367.524C423.104 368.258 423.698 368.853 424.431 368.853Z" fill="#A77D57"/>
		<path d="M396.258 364.096C396.991 364.096 397.585 363.5 397.585 362.767C397.585 362.033 396.991 361.438 396.258 361.438C395.524 361.438 394.93 362.033 394.93 362.767C394.93 363.5 395.524 364.096 396.258 364.096Z" fill="#A77D57"/>
		<path d="M411.505 385.108C411.505 385.108 406.395 377.051 399.229 376.875" stroke="#A77D57" stroke-miterlimit="10"/>
		<path d="M399.353 378.248C400.087 378.248 400.681 377.653 400.681 376.919C400.681 376.185 400.087 375.59 399.353 375.59C398.62 375.59 398.025 376.185 398.025 376.919C398.025 377.653 398.62 378.248 399.353 378.248Z" fill="#A77D57"/>
		<path d="M420.123 375.595C420.856 375.595 421.451 375 421.451 374.266C421.451 373.533 420.856 372.938 420.123 372.938C419.389 372.938 418.795 373.533 418.795 374.266C418.795 375 419.389 375.595 420.123 375.595Z" fill="#A77D57"/>
		<path d="M439.74 405.067C439.74 405.067 427.428 402.6 424.147 399.316C420.867 396.032 406.1 390.282 404.452 394.372C402.804 398.463 382.292 412.472 396.247 414.923C410.203 417.374 429.076 418.207 433.179 416.567C437.281 414.928 439.74 405.067 439.74 405.067Z" fill="#A8A8A8"/>
		<path opacity="0.2" d="M396.247 413.398C410.197 415.865 429.076 416.682 433.178 415.042C436.278 413.791 438.474 407.803 439.332 404.984L439.74 405.072C439.74 405.072 437.276 414.929 433.173 416.573C429.071 418.217 410.192 417.395 396.242 414.929C392.217 414.215 391.075 412.545 391.499 410.435C391.845 411.805 393.25 412.865 396.247 413.398Z" fill="black"/>
		<path d="M437.297 155.034C437.297 155.034 431.376 142.504 422.541 138.357C419.007 136.413 414.967 135.772 410.621 137.809C408.529 138.727 406.738 140.219 405.455 142.111C401.905 143.911 397.188 145.664 392.207 145.664C382.024 145.664 362.623 157.966 362.623 157.966C362.623 157.966 351.954 158.949 350.983 162.398C350.631 163.629 349.298 163.856 347.717 163.634C348.136 161.447 348.559 159.937 348.559 159.937L352.44 125.486C352.44 125.486 354.863 117.61 347.588 101.367C343.295 91.7851 335.121 90.5957 329.143 91.237V91.0353L328.203 89.3184C328.835 89.028 329.422 88.6465 329.944 88.1859C330.338 87.7513 330.836 87.4239 331.391 87.2344C331.894 87.1728 332.405 87.2422 332.873 87.4361L337.255 88.822C337.992 89.1054 338.775 89.2509 339.564 89.2512C341.424 89.1375 342.788 87.493 343.92 85.9882C344.772 84.8505 345.671 83.4646 345.237 82.1046C345.034 81.6271 344.804 81.161 344.55 80.7084C343.971 79.3897 344.312 77.8332 344.953 76.5455C345.594 75.2579 346.503 74.1254 347.144 72.8378C347.955 71.1289 348.266 69.2252 348.042 67.3465C347.818 65.4679 347.068 63.6911 345.878 62.2212C345 61.187 343.847 60.2148 343.62 58.8548C343.434 57.743 343.93 56.6415 344.23 55.5555C344.634 54.0395 344.675 52.4493 344.349 50.9144C344.024 49.3795 343.34 47.9433 342.354 46.7231C341.119 45.2891 339.527 44.2064 337.74 43.5842C338.225 42.4424 338.353 41.1803 338.107 39.9643C337.234 35.8842 335.958 30.956 332.842 28.0084C332.546 27.6831 332.228 27.3773 331.892 27.0931C331.075 26.3605 330.098 25.8292 329.04 25.5418C326.973 25.0608 324.818 25.9865 322.679 26.2037C319.734 26.5036 316.836 25.4487 313.896 24.9781C310.956 24.5075 307.567 24.8074 305.686 27.1242C304.219 28.9341 304.049 31.5455 302.648 33.4124C301.186 35.3671 298.675 36.1428 296.293 36.5565C293.911 36.9702 291.416 37.146 289.298 38.325C287.922 39.1238 286.794 40.2882 286.039 41.6893C285.284 43.0904 284.931 44.6734 285.02 46.2628C285.097 47.385 285.392 48.4916 285.335 49.6138C285.216 51.9719 283.604 53.9369 282.075 55.7158C281.01 56.9518 279.884 58.379 280.008 60.0183C280.127 61.9265 281.832 63.2865 282.684 64.993C284.002 67.6355 283.149 70.8468 281.915 73.5307C280.68 76.2146 279.057 78.8312 278.815 81.8046C278.768 83.3073 278.908 84.8099 279.233 86.2778C279.471 87.6068 279.863 89.1219 280.855 89.8976C281.154 90.3033 281.568 90.6096 282.044 90.7767C282.429 90.8666 282.809 90.9806 283.18 91.118C283.299 91.4491 283.343 91.8022 283.31 92.1523C283.31 92.4057 283.31 92.6694 283.31 92.9176L282.571 92.9848C273.839 93.9674 263.655 98.8904 264.141 104.796C264.627 110.701 266.079 124.964 266.079 124.964C266.079 124.964 270.444 151.047 277.234 160.893C281.738 167.428 285.2 174.625 287.494 182.225L291.54 195.608L291.772 196.373C289.706 198.586 287.996 201.084 287.417 203.716C285.479 212.575 266.564 217.006 266.564 217.006C266.564 217.006 246.931 226.542 245.701 239.92L244.807 243.09L240.4 258.888C240.4 258.888 229.245 268.713 232.65 276.113C236.055 283.513 246.714 285.463 246.228 292.847C246.161 293.882 246.595 294.363 247.396 294.399C249.364 297.543 265.097 284.842 269.995 280.773C268.59 286.073 265.071 302.068 272.744 305.165C274.201 306.012 275.898 306.354 277.569 306.137C277.595 307.379 277.652 308.682 277.755 310.062L270.481 342.548C270.481 342.548 266.972 368.249 263.103 377.123H262.886C262.593 377.792 262.211 378.419 261.749 378.984C260.925 380.078 260.289 381.301 259.868 382.604H260.049C259.987 382.759 259.925 382.915 259.868 383.075C257.233 390.134 254.996 404.039 254.025 410.684L253.885 411.636L253.017 411.439C253.017 411.439 252.847 414.588 248.083 415.721V415.84C246.063 416.166 244.043 417.293 244.735 420.633L240.886 420.789V423.25L263.681 422.733L278.231 403.046L277.259 419.289H280.654L283.077 402.064C283.077 402.064 293.746 393.205 283.563 384.347H282.69C282.53 384.001 282.336 383.672 282.111 383.365C281.594 382.625 281.331 381.441 281.305 380.003C281.305 379.621 281.305 379.227 281.351 378.814C281.796 372.448 285.025 363.181 285.025 363.181L297.151 338.08C297.151 338.08 304.426 329.713 302.003 307.57C302.003 307.57 315.095 283.948 325.769 276.072C326.374 275.616 326.95 275.124 327.495 274.598L329.164 290.841L330.042 290.438L330.135 291.332C330.135 291.332 342.649 285.509 353.84 281.259L355.839 294.776C355.839 294.776 360.691 309.049 359.719 318.398C358.748 327.748 359.719 353.837 359.719 353.837C359.719 353.837 362.628 377.459 359.719 383.37L359.688 383.437H359.471C359.035 384.569 358.678 385.73 358.402 386.912H358.526L358.402 387.398C356.449 395.155 354.713 409.634 354.114 414.873L354.057 415.39H352.925C352.925 415.39 350.016 424.248 352.925 426.71C355.834 429.171 370.869 426.193 370.869 426.193C370.869 426.193 376.96 419.051 372.083 415.54V395.703C372.083 395.703 371.856 392.647 371.763 388.634C371.732 387.419 371.716 386.116 371.722 384.781C371.722 379.367 372.124 373.487 373.54 371.093C376.449 366.17 382.272 341.56 382.272 336.642C382.272 331.725 380.784 308.589 380.784 308.589C380.784 308.589 376.418 288.421 382.241 276.599L386.374 257.259C389.702 251.421 392.161 246.575 392.161 246.575C392.161 246.575 416.894 213.107 428.534 211.633C440.175 210.16 437.297 155.034 437.297 155.034ZM265.505 414.273L264.725 414.097C264.844 413.813 264.973 413.513 265.112 413.197C267.179 408.502 271.643 400.512 279.062 396.551L265.505 414.273ZM303.93 187.525C303.93 187.525 303.459 187.763 302.69 188.197L302.054 186.734L301.677 185.762L301.579 185.503L301.31 184.795L301.217 184.546L300.902 183.698L300.799 183.414L300.587 182.835L300.468 182.509L300.246 181.883L300.117 181.516L299.925 180.958L299.817 180.637L299.667 180.172L299.574 179.887L299.373 179.241L299.295 178.982L299.176 178.563L299.104 178.31C299.056 178.138 299.011 177.965 298.97 177.793L298.923 177.612C298.885 177.453 298.849 177.3 298.815 177.152L298.773 176.965C298.746 176.838 298.722 176.714 298.701 176.593V176.459C298.673 176.304 298.653 176.157 298.639 176.019C298.639 175.983 298.639 175.952 298.639 175.921C298.639 175.89 298.639 175.714 298.639 175.616C298.639 175.518 298.639 175.543 298.639 175.512C298.633 175.406 298.633 175.299 298.639 175.192C298.646 175.057 298.646 174.923 298.639 174.788C298.639 174.788 298.639 174.747 298.639 174.726C298.639 174.582 298.639 174.421 298.613 174.251V174.189C298.301 172.048 297.813 169.936 297.156 167.874L297.626 168.319C297.626 168.319 305.867 177.674 303.93 187.525Z" fill="url(#paint0_linear_395_6098)"/>
		<path d="M323.655 58.3125H294.557V98.1154H323.655V58.3125Z" fill="#D9A95E"/>
		<path opacity="0.05" d="M323.655 58.3125H294.557V98.1154H323.655V58.3125Z" fill="black"/>
		<path d="M342.448 49.7992C343.432 50.9966 344.116 52.4123 344.442 53.9281C344.768 55.4439 344.727 57.0159 344.323 58.5127C344.023 59.5883 343.527 60.6691 343.713 61.7654C343.941 63.1047 345.093 64.0511 345.971 65.0853C347.16 66.5271 347.911 68.2798 348.136 70.1357C348.36 71.9916 348.048 73.8731 347.237 75.557C346.602 76.8292 345.687 77.9461 345.046 79.2131C344.406 80.48 344.06 82.0211 344.643 83.319C344.897 83.7647 345.127 84.2239 345.331 84.6946C345.759 86.0339 344.86 87.4043 344.013 88.5265C342.887 90.0106 341.523 91.6292 339.658 91.743C338.868 91.7424 338.086 91.5988 337.348 91.3189L332.967 89.9486C332.497 89.758 331.987 89.6904 331.484 89.752C330.93 89.9387 330.433 90.2625 330.037 90.6932C328.534 92.0015 326.271 92.8651 324.571 91.8205C322.871 90.7759 322.623 88.3713 322.644 86.339C322.67 84.0223 322.84 81.5195 324.328 79.7406C325.274 78.6081 326.658 77.9151 327.609 76.7826C329.65 74.3521 329.159 70.7788 329.087 67.6037C329.045 66.8848 329.127 66.1642 329.329 65.4732C329.574 64.8577 329.9 64.2783 330.301 63.7511C332.078 61.1655 333.809 58.4972 334.749 55.5082C335.736 52.4055 335.462 49.5561 334.46 46.5103C337.178 45.7191 340.743 47.7617 342.448 49.7992Z" fill="#D9A95E"/>
		<path d="M327.778 91.5574L322.519 99.4538L321.961 100.292L321.645 101.496L316.629 120.677V149.801L304.502 165.315L291.896 143.471C291.896 143.471 280.741 127.44 294.805 103.182C296.372 100.488 297.797 97.7121 299.072 94.867C299.341 94.2723 299.589 93.6827 299.832 93.0984C302.932 85.6829 304.115 79.5239 304.43 74.8388C304.89 68.0542 303.531 64.3516 303.531 64.3516L329.235 70.6605C328.253 73.3028 327.406 75.9936 326.698 78.7224C323.645 90.8696 327.778 91.5574 327.778 91.5574Z" fill="#FFD5D8"/>
		<path d="M321.956 95.4386C321.956 95.4386 340.386 87.6818 347.661 103.713C354.935 119.743 352.512 127.5 352.512 127.5L348.632 161.475C348.632 161.475 345.723 171.668 347.661 177.506C349.598 183.344 352.993 208.083 352.993 208.083L334.563 210.509C334.563 210.509 333.592 187.693 330.683 181.384L331.572 144.007C331.625 141.768 331.208 139.543 330.347 137.476C324.805 124.166 321.952 109.889 321.951 95.4697L321.956 95.4386Z" fill="#FFD5D8"/>
		<path d="M296.984 99.2189C292.876 96.1661 287.751 94.8125 282.673 95.4388C273.941 96.4109 263.758 101.262 264.243 107.09C264.729 112.917 266.181 126.988 266.181 126.988C266.181 126.988 270.547 152.715 277.336 162.422L284.125 172.128L297.217 214.842L313.234 212.903C313.234 212.903 298.199 181.359 298.684 176.498C299.17 171.637 288.501 144.462 288.501 144.462L296.984 99.2189Z" fill="#FFD5D8"/>
		<path d="M313.229 212.905L297.213 214.845L291.638 196.657L287.592 183.46C285.292 175.954 281.83 168.856 277.331 162.424C270.542 152.718 266.177 126.991 266.177 126.991C266.177 126.991 264.72 112.915 264.239 107.092C263.759 101.269 273.937 96.4133 282.669 95.4411C285.278 95.144 287.921 95.3476 290.455 96.041C292.817 96.6579 295.034 97.739 296.975 99.2213L288.481 144.464C288.481 144.464 295.11 161.359 297.683 170.889C298.37 173.449 298.768 175.471 298.67 176.5C298.499 178.201 300.22 183.155 302.545 188.911C306.864 199.559 313.229 212.905 313.229 212.905Z" fill="#FFD5D8"/>
		<path d="M247.272 239.116L241.454 259.501C241.454 259.501 230.299 269.228 233.694 276.468C237.088 283.708 247.757 285.688 247.272 292.969C246.786 300.25 271.519 279.379 271.519 279.379C271.519 279.379 262.787 307.045 277.822 305.592C292.857 304.139 305.464 274.048 305.464 274.048L327.773 267.739L330.197 291.035C330.197 291.035 365.113 275.004 370.45 276.959C375.787 278.914 392.274 246.863 392.274 246.863C392.274 246.863 417.007 213.855 428.647 212.402C440.288 210.948 437.379 156.583 437.379 156.583C437.379 156.583 426.224 133.287 411.675 140.082C397.126 146.877 410.233 165.338 410.233 165.338L366.1 201.258L320.029 210.478L247.272 239.116Z" fill="white"/>
		<path opacity="0.02" d="M427.675 211.933C416.035 213.391 391.302 246.394 391.302 246.394C391.302 246.394 374.815 278.435 369.483 276.47C364.151 274.505 329.23 290.546 329.23 290.546L326.806 267.25L304.497 273.558C304.497 273.558 291.89 303.655 276.855 305.103C261.82 306.551 270.552 278.89 270.552 278.89C270.552 278.89 245.819 299.792 246.299 292.501C246.78 285.209 236.116 283.285 232.721 276.004C229.327 268.723 240.471 259.017 240.471 259.017L244.904 243.503L246.289 238.647L319.031 210.009L365.102 200.789L409.235 164.87C409.235 164.87 400.152 152.076 405.521 143.869C406.811 141.998 408.601 140.529 410.687 139.629C425.237 132.834 436.391 156.13 436.391 156.13C436.391 156.13 439.316 210.48 427.675 211.933Z" fill="black"/>
		<path d="M361.723 223.582C361.723 223.582 359.032 228.345 355.043 235.031C353.953 236.851 352.764 238.822 351.514 240.869L350.605 242.338C342.467 255.545 331.845 271.623 325.836 275.992C315.167 283.749 302.069 307.056 302.069 307.056C304.492 328.899 297.218 337.152 297.218 337.152L285.091 361.907C285.091 361.907 281.867 371.045 281.418 377.322C281.263 379.484 281.418 381.299 282.177 382.292C282.597 382.859 282.912 383.497 283.107 384.174C284.301 388.146 282.177 393.457 282.177 393.457C272.914 396.559 267.535 405.95 265.179 411.194C264.637 412.374 264.159 413.582 263.748 414.814L253.564 412.389C253.564 412.389 253.75 410.982 254.081 408.727C255.052 402.175 257.29 388.456 259.925 381.496C260.346 380.207 260.982 378.999 261.805 377.922C262.267 377.366 262.649 376.748 262.942 376.087C266.9 367.813 270.537 341.517 270.537 341.517L277.812 309.481C276.355 290.063 283.144 285.213 283.144 285.213L299.93 250.048L304.001 241.526L353.472 226.131L354.774 225.728L361.723 223.582Z" fill="#FFD5D8"/>
		<path d="M251.616 413.857C251.616 413.857 243.35 412.398 244.827 418.712H251.616V413.857Z" fill="#FFD5D8"/>
		<path opacity="0.05" d="M265.189 411.205C264.647 412.385 264.169 413.593 263.758 414.825L253.574 412.399C253.574 412.399 253.76 410.993 254.091 408.738L265.189 411.205Z" fill="black"/>
		<path d="M266.187 412.4L253.094 409.488C253.094 409.488 252.924 412.591 248.16 413.713L248.734 419.681L262.312 419.195L266.187 412.4Z" fill="#4F4A55"/>
		<path d="M240.969 418.71V421.135L263.764 420.649L278.313 401.231L277.342 417.262H280.737L283.16 400.274C283.16 400.274 293.829 391.535 283.645 382.801H280.251L279.765 393.965L264.73 413.383L253.09 418.239L240.969 418.71Z" fill="#4F4A55"/>
		<path opacity="0.05" d="M283.134 383.705L259.951 381.026C260.373 379.738 261.009 378.53 261.832 377.453C262.293 376.896 262.676 376.278 262.968 375.617L281.439 376.848C281.284 379.009 281.439 380.825 282.199 381.817C282.62 382.386 282.937 383.025 283.134 383.705Z" fill="black"/>
		<path d="M283.134 384.189L259.951 381.511C260.373 380.222 261.009 379.014 261.832 377.937C262.293 377.381 262.676 376.763 262.968 376.102L281.439 377.332C281.284 379.494 281.439 381.309 282.199 382.302C282.62 382.87 282.937 383.509 283.134 384.189Z" fill="#4F4A55"/>
		<path opacity="0.1" d="M361.723 223.582C361.723 223.582 359.031 228.345 355.043 235.031C353.953 236.851 352.764 238.822 351.514 240.869L350.605 242.338L350.543 240.864L350.393 237.358L350.088 230.367C350.088 230.367 351.364 228.727 353.488 226.137L354.79 225.733L361.723 223.582Z" fill="black"/>
		<path d="M394.02 208.288C394.02 221.733 390.336 238.147 390.336 238.147L382.069 276.005C376.252 287.656 380.612 307.55 380.612 307.55C380.612 307.55 382.069 330.365 382.069 335.216C382.069 340.066 376.252 364.34 373.338 369.191C371.922 371.549 371.54 377.351 371.519 382.688C371.519 384.001 371.519 385.273 371.56 386.488C371.653 390.444 371.881 393.459 371.881 393.459V416.275L353.937 414.816C353.937 414.816 354.014 414.098 354.154 412.877C354.748 407.706 356.484 393.459 358.442 385.785C358.719 384.619 359.076 383.473 359.512 382.357C359.594 382.16 359.677 381.979 359.76 381.814C362.669 375.991 359.76 352.689 359.76 352.689C359.76 352.689 358.788 326.962 359.76 317.742C360.731 308.522 355.88 294.446 355.88 294.446L352.971 275.028L351.488 240.867L351.338 237.361L351.033 230.369C351.033 230.369 352.444 228.559 354.764 225.715C357.182 222.757 360.592 218.698 364.379 214.457C368.274 210.108 372.563 205.578 376.613 201.881C383.909 195.21 390.398 191.239 392.253 195.887C393.545 199.099 394.015 203.505 394.02 208.288Z" fill="#FFD5D8"/>
		<path opacity="0.1" d="M371.907 412.887V416.284L353.963 414.826C353.963 414.826 354.04 414.107 354.18 412.887H371.907Z" fill="black"/>
		<path d="M360.752 413.371H353.002C353.002 413.371 350.093 422.11 353.002 424.536C355.911 426.961 370.946 424.05 370.946 424.05C370.946 424.05 377.249 416.769 371.917 413.371H360.752Z" fill="#4F4A55"/>
		<path opacity="0.1" d="M329.23 70.6839C328.247 73.3263 327.401 76.0171 326.693 78.7458C323 80.3062 318.937 80.7698 314.988 80.0811C311.039 79.3924 307.372 77.5807 304.424 74.8622C304.884 68.0776 303.525 64.375 303.525 64.375L329.23 70.6839Z" fill="black"/>
		<path d="M318.562 79.4257C330.078 79.4257 339.414 70.0814 339.414 58.5546C339.414 47.0279 330.078 37.6836 318.562 37.6836C307.045 37.6836 297.709 47.0279 297.709 58.5546C297.709 70.0814 307.045 79.4257 318.562 79.4257Z" fill="#FFD5D8"/>
		<path d="M329.117 93.7119C326.775 93.9687 324.474 94.5123 322.266 95.3305L326.828 89.125L329.117 93.7119Z" fill="#F0F0F2"/>
		<path opacity="0.1" d="M392.517 196.403C392.301 195.719 391.84 195.139 391.224 194.772C390.607 194.406 389.878 194.28 389.174 194.418C389.718 194.486 390.231 194.709 390.651 195.062C391.072 195.414 391.382 195.879 391.546 196.403C392.817 199.584 393.287 203.989 393.292 208.773C393.292 222.218 389.608 238.631 389.608 238.631L381.341 276.49C375.524 288.141 379.884 308.034 379.884 308.034C379.884 308.034 381.341 330.85 381.341 335.7C381.341 340.551 375.524 364.825 372.61 369.675C371.194 372.033 370.812 377.836 370.791 383.172C370.791 384.486 370.791 385.758 370.832 386.973C370.925 390.929 371.153 393.944 371.153 393.944V416.697L372.124 416.775V393.954C372.124 393.954 371.897 390.939 371.804 386.983C371.773 385.784 371.757 384.496 371.762 383.183C371.762 377.846 372.165 372.044 373.581 369.686C376.49 364.83 382.313 340.561 382.313 335.711C382.313 330.86 380.856 308.045 380.856 308.045C380.856 308.045 376.49 288.146 382.313 276.5L390.579 238.642C390.579 238.642 394.279 222.244 394.263 208.783C394.258 203.989 393.788 199.584 392.517 196.403Z" fill="black"/>
		<path opacity="0.05" d="M376.273 221.656C370.605 223.793 365.358 226.914 360.773 230.876C358.942 232.364 357.035 233.755 355.059 235.044C353.979 235.763 352.744 236.549 351.38 237.376C341.343 243.442 330.45 247.959 319.068 250.775C310.868 252.792 304.643 252.032 299.951 250.077L304.023 241.555L354.795 225.757C357.213 222.799 360.623 218.739 364.41 214.499C368.306 210.15 372.594 205.62 376.645 201.922L381.13 199.812C381.13 199.812 385.485 218.248 376.273 221.656Z" fill="black"/>
		<path opacity="0.05" d="M394.021 208.288C384.891 208.226 372.636 211.727 364.4 214.493C375.312 202.305 389.386 188.694 392.3 195.923C393.546 199.098 394.016 203.504 394.021 208.288Z" fill="black"/>
		<path d="M287.039 235.232C287.039 235.232 293.342 256.103 319.046 249.794C344.751 243.486 360.752 229.896 360.752 229.896C365.336 225.934 370.583 222.812 376.252 220.675C385.464 217.278 381.103 198.832 381.103 198.832L356.37 210.483L339.884 198.832L325.82 203.688L287.023 214.852L287.039 235.232Z" fill="white"/>
		<path opacity="0.02" d="M287.783 235.232C287.783 235.232 294.087 256.103 319.791 249.794C345.495 243.486 361.496 229.896 361.496 229.896C366.081 225.934 371.328 222.812 376.996 220.675C386.208 217.278 381.848 198.832 381.848 198.832L357.115 210.483L340.628 198.832L326.564 203.688L287.783 214.847V235.232Z" fill="black"/>
		<path opacity="0.03" d="M416.521 174.079C416.521 174.079 413.612 212.91 400.034 209.027C386.456 205.143 355.42 217.766 355.42 217.766C355.42 217.766 352.997 213.396 345.236 211.457C337.476 209.518 329.22 218.252 329.22 218.252C329.22 218.252 316.613 216.313 304.487 217.766C292.361 219.219 298.669 233.797 298.669 233.797C298.669 233.797 289.938 244.475 276.845 241.078C263.753 237.68 257.444 243.989 257.444 243.989H245.871L247.256 239.133L319.997 210.495L366.068 201.275L410.233 165.34C410.233 165.34 401.15 152.547 406.518 144.34C408.326 143.39 410.053 142.295 411.685 141.066C411.685 141.066 420.417 152.231 426.234 155.629C432.052 159.026 416.521 174.079 416.521 174.079Z" fill="black"/>
		<path opacity="0.1" d="M322.515 99.4536L321.957 100.291L316.625 120.676V149.801L304.498 165.314L291.892 143.471C291.892 143.471 280.737 127.44 294.801 103.182C296.695 99.9342 298.374 96.5657 299.828 93.0981L300.133 92.9844C300.133 92.9844 297.709 138.124 298.195 145.405C298.681 152.686 307.893 157.056 307.893 157.056C305.47 146.863 313.711 107.547 313.711 107.547L322.442 95.6889C322.442 96.1026 322.442 96.5215 322.442 96.9352C322.442 97.3489 322.442 97.6333 322.442 97.9694C322.44 98.0125 322.44 98.0557 322.442 98.0987C322.484 98.5796 322.499 99.0192 322.515 99.4536Z" fill="black"/>
		<path opacity="0.1" d="M321.641 101.501L316.625 120.681V149.805L304.498 165.319L291.892 143.475C291.892 143.475 280.737 127.445 294.801 103.186C296.369 100.492 297.793 97.7162 299.068 94.8711C298.619 103.476 296.8 139.028 297.224 145.415C297.709 152.696 306.922 157.065 306.922 157.065C304.498 146.873 312.739 107.556 312.739 107.556L321.471 95.6985C321.471 96.1122 321.471 96.5311 321.471 96.9448C321.471 97.3584 321.471 97.6429 321.471 97.979C321.469 98.0221 321.469 98.0652 321.471 98.1083C321.471 99.1425 321.538 100.177 321.59 101.211C321.631 101.325 321.631 101.413 321.641 101.501Z" fill="black"/>
		<path opacity="0.1" d="M283.65 144.951V140.716C283.65 130.961 284.9 121.246 287.37 111.809L288.987 105.634L289.472 96.414L290.47 96.0469C292.832 96.6638 295.049 97.7449 296.99 99.2272L288.496 144.47C288.496 144.47 295.125 161.365 297.698 170.895C297.119 170.135 296.742 169.711 296.742 169.711C278.793 153.204 283.65 144.951 283.65 144.951Z" fill="black"/>
		<path d="M313.228 212.903L297.212 214.842L291.637 196.655C295.718 192.668 300.937 189.741 302.544 188.898C306.863 199.556 313.228 212.903 313.228 212.903Z" fill="#F0F0F2"/>
		<path d="M416.522 173.102C416.522 173.102 413.613 211.933 400.035 208.049C386.457 204.166 355.421 216.789 355.421 216.789C355.421 216.789 352.998 212.419 345.237 210.48C337.477 208.541 329.221 217.275 329.221 217.275C329.221 217.275 316.614 215.336 304.488 216.789C292.362 218.242 298.67 232.82 298.67 232.82C298.67 232.82 289.938 243.498 276.846 240.101C263.754 236.703 257.445 243.012 257.445 243.012H245.82C244.363 228.45 266.673 217.771 266.673 217.771C266.673 217.771 285.588 213.402 287.526 204.667C289.463 195.933 304.012 188.637 304.012 188.637C305.95 178.93 297.709 169.705 297.709 169.705C279.765 153.203 284.617 144.95 284.617 144.95V140.715C284.617 130.96 285.867 121.245 288.337 111.808L289.954 105.633L290.44 96.4131L299.667 93.0156C299.667 93.0156 297.244 138.155 297.73 145.436C298.215 152.717 307.417 157.087 307.417 157.087C304.994 146.895 313.235 107.578 313.235 107.578L321.967 95.7202C321.967 96.1339 321.967 96.5527 321.967 96.9664C321.967 97.3801 321.967 97.6646 321.967 98.0007C321.964 98.0437 321.964 98.0869 321.967 98.13C321.967 99.1642 322.034 100.198 322.086 101.233C322.086 101.352 322.086 101.465 322.086 101.59C322.086 101.998 322.132 102.407 322.163 102.815C322.163 103.058 322.194 103.296 322.209 103.534C322.209 103.565 322.209 103.591 322.209 103.622C322.247 104.142 322.29 104.659 322.339 105.173C322.337 105.189 322.337 105.204 322.339 105.22C322.38 105.737 322.432 106.254 322.483 106.73L322.54 107.283C322.597 107.842 322.659 108.395 322.737 108.948C322.814 109.501 322.871 110.034 322.948 110.577C322.948 110.66 322.948 110.737 322.984 110.82C323.062 111.534 323.17 112.222 323.3 112.889V112.961C323.913 116.04 325.077 118.984 326.736 121.649L341.285 162.905C341.285 162.905 344.901 164.704 347.717 165.092C349.298 165.309 350.631 165.092 350.983 163.872C351.954 160.474 362.623 159.502 362.623 159.502C362.623 159.502 382.024 147.365 392.207 147.365C402.391 147.365 411.608 140.084 411.608 140.084C411.608 140.084 420.34 151.249 426.158 154.646C431.975 158.044 416.522 173.102 416.522 173.102Z" fill="white"/>
		<path opacity="0.02" d="M304.74 184.022C304.74 184.022 315.409 183.05 323.17 181.597C330.93 180.144 347.903 165.566 347.903 165.566" fill="black"/>
		<path d="M369.484 420.653H352.992C353.216 420.396 353.454 420.153 353.705 419.924C355.674 418.088 361.522 413.853 368.689 419.924C368.942 420.146 369.21 420.394 369.484 420.653Z" fill="#FFD5D8"/>
		<path opacity="0.1" d="M371.587 386.016L358.469 385.307C358.745 384.141 359.102 382.995 359.538 381.879L371.546 382.215C371.54 383.513 371.556 384.816 371.587 386.016Z" fill="black"/>
		<path d="M371.587 386.496L358.469 385.788C358.745 384.622 359.102 383.476 359.538 382.359L371.546 382.695C371.54 384.03 371.556 385.302 371.587 386.496Z" fill="#4F4A55"/>
		<path opacity="0.1" d="M332.466 30.9289C331.65 30.2131 330.682 29.6947 329.634 29.4137C327.568 28.938 325.413 29.8481 323.274 30.0653C320.329 30.3601 317.431 29.3206 314.491 28.8552C311.551 28.3898 308.162 28.6846 306.281 30.9754C304.814 32.7595 304.643 35.3348 303.243 37.1809C301.781 39.1046 299.27 39.8751 296.888 40.2836C294.506 40.6922 292.011 40.8628 289.892 42.0263C288.522 42.8041 287.396 43.9488 286.64 45.3318C285.885 46.7149 285.529 48.2815 285.614 49.8556C285.692 50.9622 285.986 52.0533 285.929 53.16C285.811 55.4819 284.199 57.4211 282.669 59.1741C281.605 60.3945 280.479 61.8011 280.603 63.4197C280.721 65.302 282.426 66.6465 283.279 68.3272C284.596 70.9128 283.744 74.1034 282.509 76.7511C281.274 79.3988 279.652 81.9792 279.409 84.8958C279.363 86.3779 279.503 87.86 279.828 89.3068C280.112 90.8892 280.628 92.7509 282.153 93.2628C282.669 93.4386 283.32 93.449 283.666 93.8834C283.887 94.2551 283.971 94.6922 283.904 95.1193C283.806 98.222 284.56 101.697 287.092 103.523C287.826 104.031 288.64 104.414 289.5 104.655C290.782 105.068 292.136 105.213 293.477 105.081C294.818 104.95 296.118 104.544 297.296 103.89C299.606 102.514 301.176 99.8354 300.913 97.1671C300.799 95.9984 300.36 94.8814 300.179 93.7179C299.998 92.5544 300.143 91.2357 300.995 90.429C301.504 90.0364 302.047 89.6903 302.618 89.3947C304.643 88.0657 305.201 85.2578 304.788 82.879C304.374 80.5002 303.186 78.3128 302.416 76.0168C301.419 73.0485 301.119 69.8992 300.866 66.781C300.66 64.2574 300.479 61.6977 300.939 59.2103C301.004 58.7152 301.181 58.2414 301.455 57.8244C301.872 57.3423 302.422 56.9949 303.036 56.8264C305.795 55.8594 308.813 55.9679 311.675 55.3629C314.537 54.7579 317.534 53.0824 318.221 50.2382C318.738 47.9991 317.859 45.217 319.513 43.6087C320.949 42.2125 323.336 42.7606 325.15 43.6087C327.051 44.4954 328.839 45.6065 330.476 46.9183C332.176 48.2783 334.465 50.1193 336.568 48.4335C338.071 47.2286 338.588 44.9481 338.201 43.1588C337.281 38.9133 335.922 33.7627 332.466 30.9289Z" fill="black"/>
		<path d="M331.979 30.4445C331.155 29.7246 330.175 29.2059 329.117 28.9293C327.05 28.4536 324.896 29.3637 322.757 29.5809C319.812 29.8757 316.913 28.8363 313.973 28.3709C311.033 27.9054 307.644 28.2002 305.763 30.4911C304.296 32.2751 304.126 34.8504 302.725 36.6965C301.263 38.6202 298.752 39.3907 296.37 39.7993C293.989 40.2078 291.493 40.3784 289.375 41.542C288.005 42.3197 286.879 43.4644 286.123 44.8474C285.367 46.2305 285.012 47.7971 285.097 49.3712C285.174 50.4778 285.469 51.569 285.412 52.6756C285.293 54.9975 283.681 56.9367 282.152 58.6897C281.087 59.9101 279.961 61.3167 280.085 62.9353C280.204 64.8176 281.909 66.1621 282.761 67.8428C284.079 70.4284 283.226 73.6191 281.992 76.2667C280.757 78.9144 279.134 81.4948 278.892 84.4114C278.845 85.8935 278.986 87.3756 279.31 88.8224C279.594 90.4048 280.111 92.2665 281.635 92.7784C282.152 92.9543 282.803 92.9646 283.149 93.399C283.369 93.7707 283.453 94.2078 283.387 94.6349C283.288 97.7376 284.043 101.213 286.574 103.038C287.309 103.547 288.122 103.929 288.982 104.171C290.265 104.583 291.619 104.728 292.96 104.597C294.301 104.465 295.6 104.06 296.779 103.405C299.088 102.03 300.659 99.3511 300.395 96.6827C300.282 95.514 299.842 94.397 299.662 93.2335C299.481 92.07 299.625 90.7513 300.478 89.9446C300.987 89.552 301.53 89.2059 302.1 88.9104C304.126 87.5814 304.684 84.7734 304.27 82.3946C303.857 80.0159 302.669 77.8284 301.899 75.5324C300.902 72.5641 300.602 69.4149 300.349 66.2966C300.142 63.773 299.961 61.2133 300.421 58.7259C300.486 58.2308 300.663 57.757 300.938 57.34C301.354 56.8579 301.905 56.5105 302.519 56.342C305.278 55.375 308.295 55.4836 311.157 54.8785C314.02 54.2735 317.037 52.5567 317.75 49.7228C318.267 47.4837 317.388 44.7016 319.042 43.0933C320.478 41.6971 322.865 42.2452 324.679 43.0933C326.58 43.98 328.368 45.0911 330.005 46.4029C331.705 47.7629 333.994 49.6039 336.097 47.9181C337.6 46.7132 338.117 44.4327 337.73 42.6434C336.794 38.4289 335.436 33.2783 331.979 30.4445Z" fill="#D9A95E"/>
		<path d="M321.992 98.1445C321.992 99.1788 322.059 100.213 322.111 101.247C322.054 100.208 322.013 99.1736 321.992 98.1445Z" fill="#FFD5D8"/>
		<path d="M352.993 208.052L334.563 210.477C334.563 210.477 333.592 187.662 330.683 181.353L331.572 143.98C331.624 141.742 331.207 139.517 330.347 137.449C327.578 130.794 326.803 121.656 326.803 121.656L341.352 162.912C341.352 162.912 344.969 164.712 347.785 165.1C347.113 168.601 346.462 173.891 347.661 177.474C349.598 183.297 352.993 208.052 352.993 208.052Z" fill="#FFD5D8"/>
		<path d="M326.807 89.1328L313.229 107.579L326.807 121.169L329.23 93.5025L326.807 89.1328Z" fill="white"/>
		<path opacity="0.05" d="M324.141 208.293C324.141 208.293 336.747 198.586 346.207 202.713C355.668 206.84 365.365 203.442 365.365 203.442L361.48 209.762L335.316 210.723L324.141 208.293Z" fill="black"/>
		<path d="M324.141 208.777C324.141 208.777 336.747 199.071 346.207 203.198C355.668 207.324 365.365 203.927 365.365 203.927L361.485 210.236L335.316 211.208L324.141 208.777Z" fill="white"/>
		<path d="M290.801 193.902L297.466 215.088L312.082 210.481L302.136 187.852L290.801 193.902Z" fill="#FFD5D8"/>
		<path opacity="0.05" d="M291.648 214.607C291.648 214.607 298.437 204.414 302.803 205.867C307.169 207.321 317.068 205.723 317.068 205.723L314.924 213.149L303.769 214.607L293.586 218.004L291.648 214.607Z" fill="black"/>
		<path d="M291.648 215.091C291.648 215.091 298.437 204.899 302.803 206.352C307.169 207.805 317.068 206.207 317.068 206.207L314.924 213.633L303.769 215.091L293.586 218.489L291.648 215.091Z" fill="white"/>
		<path opacity="0.05" d="M381.973 199.486C381.973 199.486 395.923 202.47 404.644 193.25C413.365 184.029 410.462 175.776 415.313 170.92C420.165 166.065 425.011 161.7 424.045 157.816" stroke="black" stroke-width="2" stroke-miterlimit="10"/>
		<path opacity="0.1" d="M369.484 420.655H352.992C353.216 420.398 353.454 420.155 353.705 419.926H368.689C368.942 420.148 369.21 420.396 369.484 420.655Z" fill="black"/>
		<path opacity="0.5" d="M150.138 127.826C143.53 131.286 140.709 138.949 140.709 138.949C140.709 138.949 148.604 141.018 155.212 137.538C161.82 134.057 164.641 126.414 164.641 126.414C164.641 126.414 156.746 124.366 150.138 127.826Z" fill="#A77D57"/>
		<path opacity="0.5" d="M198.504 222.43C193.27 227.746 192.924 235.906 192.924 235.906C192.924 235.906 201.066 235.441 206.3 230.125C211.534 224.809 211.88 216.648 211.88 216.648C211.88 216.648 203.738 217.109 198.504 222.43Z" fill="#A77D57"/>
		<path opacity="0.5" d="M157.981 256.3C150.598 257.334 145.385 263.638 145.385 263.638C145.385 263.638 152.143 268.209 159.526 267.149C166.909 266.089 172.122 259.811 172.122 259.811C172.122 259.811 165.364 255.225 157.981 256.3Z" fill="#A77D57"/>
		<path opacity="0.5" d="M219.355 34.5783C214.122 39.8943 213.775 48.0545 213.775 48.0545C213.775 48.0545 221.918 47.5891 227.152 42.2731C232.386 36.9571 232.732 28.7969 232.732 28.7969C232.732 28.7969 224.589 29.283 219.355 34.5783Z" fill="#A77D57"/>
		<path opacity="0.5" d="M375.514 74.3829C370.28 79.6989 369.934 87.8591 369.934 87.8591C369.934 87.8591 378.076 87.3937 383.31 82.0777C388.544 76.7616 388.89 68.5859 388.89 68.5859C388.89 68.5859 380.747 69.0669 375.514 74.3829Z" fill="#A77D57"/>
		<path opacity="0.5" d="M104.418 220.973C99.1841 226.289 98.8379 234.449 98.8379 234.449C98.8379 234.449 106.981 233.984 112.214 228.668C117.448 223.352 117.8 215.191 117.8 215.191C117.8 215.191 109.657 215.657 104.418 220.973Z" fill="#A77D57"/>
		<path opacity="0.5" d="M70.1538 148.523C63.5456 151.983 60.7246 159.647 60.7246 159.647C60.7246 159.647 68.6193 161.715 75.2274 158.235C81.8356 154.755 84.6566 147.112 84.6566 147.112C84.6566 147.112 76.7671 145.059 70.1538 148.523Z" fill="#A77D57"/>
		<path opacity="0.5" d="M230.675 152.877C224.067 156.336 221.246 164 221.246 164C221.246 164 229.141 166.068 235.749 162.588C242.357 159.108 245.178 151.465 245.178 151.465C245.178 151.465 237.283 149.427 230.675 152.877Z" fill="#A77D57"/>
		<path d="M87.9309 340.328C87.9309 340.328 91.9971 345.649 86.0554 353.68C80.1138 361.711 75.2054 368.491 77.1998 373.496C77.1998 373.496 86.1639 358.583 93.4541 358.371C100.744 358.159 95.9548 349.3 87.9309 340.328Z" fill="#A77D57"/>
		<path opacity="0.1" d="M87.9306 340.328C88.2857 340.843 88.5657 341.405 88.7624 341.998C95.8821 350.365 99.6693 358.179 92.8286 358.376C86.4581 358.557 78.8114 369.964 76.9824 372.855C77.0425 373.078 77.115 373.297 77.1994 373.512C77.1994 373.512 86.1636 358.598 93.4538 358.386C100.744 358.174 95.9544 349.3 87.9306 340.328Z" fill="black"/>
		<path d="M95.4853 347.109C95.4853 348.981 95.2734 350.496 95.0151 350.496C94.7568 350.496 94.5449 348.981 94.5449 347.109C94.5449 345.237 94.8084 346.116 95.0616 346.116C95.3148 346.116 95.4853 345.248 95.4853 347.109Z" fill="#D9A95E"/>
		<path d="M98.0788 349.342C96.4358 350.237 94.9788 350.78 94.8806 350.552C94.7824 350.325 95.9863 349.414 97.6293 348.52C99.2723 347.625 98.6264 348.277 98.7504 348.52C98.8744 348.763 99.7166 348.447 98.0788 349.342Z" fill="#D9A95E"/>
		<path d="M66.4641 340.328C66.4641 340.328 62.3979 345.649 68.3396 353.68C74.2812 361.711 79.1896 368.491 77.1952 373.496C77.1952 373.496 68.2311 358.583 60.9409 358.371C53.6507 358.159 58.4402 349.3 66.4641 340.328Z" fill="#A77D57"/>
		<path opacity="0.1" d="M66.4641 340.328C66.109 340.843 65.8289 341.405 65.6322 341.998C58.5126 350.365 54.7254 358.179 61.5661 358.376C67.9366 358.557 75.5832 369.964 77.4122 372.855C77.3521 373.078 77.2797 373.297 77.1952 373.512C77.1952 373.512 68.2311 358.598 60.9409 358.386C53.6507 358.174 58.4402 349.3 66.4641 340.328Z" fill="black"/>
		<path d="M58.9004 347.109C58.9004 348.981 59.1122 350.496 59.3706 350.496C59.6289 350.496 59.8407 348.981 59.8407 347.109C59.8407 345.237 59.5772 346.116 59.3241 346.116C59.0709 346.116 58.9004 345.248 58.9004 347.109Z" fill="#D9A95E"/>
		<path d="M56.3165 349.342C57.9595 350.237 59.4165 350.78 59.5146 350.552C59.6128 350.325 58.409 349.414 56.766 348.52C55.123 347.625 55.7688 348.277 55.6448 348.52C55.5208 348.763 54.6735 348.447 56.3165 349.342Z" fill="#D9A95E"/>
		<path d="M60.2012 372.797C60.2012 372.797 71.5678 372.445 74.9882 370.005C78.4085 367.564 92.467 364.647 93.3143 368.562C94.1617 372.476 110.39 388.031 97.5613 388.135C84.7325 388.238 67.7548 386.133 64.3345 384.049C60.9142 381.965 60.2012 372.797 60.2012 372.797Z" fill="#A8A8A8"/>
		<path opacity="0.2" d="M97.7938 386.775C84.965 386.878 67.9873 384.773 64.567 382.689C61.9837 381.102 60.9503 375.408 60.5783 372.781H60.2012C60.2012 372.781 60.9193 381.955 64.3345 384.039C67.7497 386.123 84.7325 388.228 97.5613 388.124C101.266 388.093 102.542 386.775 102.475 384.825C101.963 386.014 100.548 386.754 97.7938 386.775Z" fill="black"/>
	</g>
	<defs>
		<linearGradient id="paint0_linear_395_6098" x1="334.811" y1="427.692" x2="334.811" y2="24.8178" gradientUnits="userSpaceOnUse">
			<stop stop-color="#808080" stop-opacity="0.25"/>
			<stop offset="0.54" stop-color="#808080" stop-opacity="0.12"/>
			<stop offset="1" stop-color="#808080" stop-opacity="0.1"/>
		</linearGradient>
		<clipPath id="clip0_395_6098">
			<rect width="496" height="434" fill="white"/>
		</clipPath>
	</defs>
</svg>
