<svg viewBox="0 0 496 434" fill="none" xmlns="http://www.w3.org/2000/svg"><g clip-path="url(#a)"><path opacity=".1" d="M84.77 56.032c-2.656 3.227-3.68 7.757-4.826 12.033-9.218 34.384-31.92 62.055-57.78 81.799-10.948 8.367-24.283 19.593-21.885 34.59 1.286 8.057 6.949 13.962 11.165 20.55 8.824 13.74 11.682 32.424 7.476 48.868-4.784 18.715-18.145 36.199-14.007 55.105 2.552 11.666 11.212 19.94 19.54 27.066a532.638 532.638 0 0 0 40.213 31.219c9.264 6.505 19.116 12.835 29.91 13.657 9.506.729 18.817-2.885 27.838-6.459 7.884-3.103 15.97-6.366 22.335-12.618 4.133-4.08 7.471-9.349 12.085-12.685 10.85-7.844 24.769-2.87 37.2.471a129.435 129.435 0 0 0 88.66-8.124c42.826-20.168 75.469-62.443 117.345-85.139 18.011-9.763 37.603-15.819 54.281-28.39a101.454 101.454 0 0 0 23.86-25.856c12.627-19.47 19.432-44.292 17.474-68.586-1.959-24.294-13.005-47.715-30.329-61.429-18.548-14.681-41.974-17.422-63.085-26.239-21.798-9.106-41.183-24.76-62.77-34.523a128.256 128.256 0 0 0-110.711 2.503c-23.493 11.868-47.301 39.617-73.47 41.7-18.626 1.495-55.96-17.188-70.52.487ZM320.018 433.999c52.898 0 95.78-9.78 95.78-21.843 0-12.064-42.882-21.844-95.78-21.844s-95.78 9.78-95.78 21.844c0 12.063 42.882 21.843 95.78 21.843Z" fill="#A77D57"/><path d="M404.033 354.973s8.483 16.672 1.55 25.794c-6.934 9.122.63 33.975.63 33.975" stroke="#A77D57" stroke-miterlimit="10"/><path d="M406.566 349.786c0 3.217-2.356 5.818-2.356 5.818s-2.356-2.586-2.356-5.818c0-3.232 2.356-5.817 2.356-5.817s2.356 2.601 2.356 5.817Z" fill="#A77D57"/><path d="M408.451 354.973s-8.483 16.672-1.55 25.794c6.934 9.122-.63 33.975-.63 33.975" stroke="#A77D57" stroke-miterlimit="10"/><path d="M405.936 349.786c0 3.217 2.356 5.818 2.356 5.818s2.356-2.586 2.356-5.818c0-3.232-2.356-5.817-2.356-5.817s-2.356 2.601-2.356 5.817Z" fill="#A77D57"/><path opacity=".1" d="M405.936 349.786c0 3.217 2.356 5.818 2.356 5.818s2.356-2.586 2.356-5.818c0-3.232-2.356-5.817-2.356-5.817s-2.356 2.601-2.356 5.817Z" fill="#000"/><path d="M411.908 354.973s8.483 16.672 1.55 25.794c-6.934 9.122.63 33.975.63 33.975" stroke="#A77D57" stroke-miterlimit="10"/><path d="M414.424 349.786c0 3.217-2.356 5.818-2.356 5.818s-2.351-2.601-2.351-5.818c0-3.216 2.356-5.817 2.356-5.817s2.351 2.601 2.351 5.817ZM413.101 363.144c-2.227 2.317-5.73 2.56-5.73 2.56s.109-3.511 2.33-5.828c2.222-2.317 5.73-2.56 5.73-2.56s-.103 3.512-2.33 5.828ZM413.333 374.644c-2.226 2.317-5.729 2.56-5.729 2.56s.108-3.511 2.33-5.828c2.221-2.317 5.73-2.56 5.73-2.56s-.114 3.512-2.331 5.828ZM401.249 380.974c2.103 2.426 2.03 5.942 2.03 5.942s-3.487-.419-5.59-2.849c-2.103-2.431-2.03-5.942-2.03-5.942s3.482.424 5.59 2.849ZM403.201 356.446c2.676 1.774 3.544 5.171 3.544 5.171s-3.472.517-6.148-1.246c-2.676-1.763-3.544-5.171-3.544-5.171s3.472-.533 6.148 1.246Z" fill="#A77D57"/><path opacity=".1" d="M403.201 356.446c2.676 1.774 3.544 5.171 3.544 5.171s-3.472.517-6.148-1.246c-2.676-1.763-3.544-5.171-3.544-5.171s3.472-.533 6.148 1.246Z" fill="#000"/><path d="M416.309 354.973s-8.484 16.672-1.55 25.794c6.933 9.122-.631 33.975-.631 33.975" stroke="#A77D57" stroke-miterlimit="10"/><path d="M413.793 349.786c0 3.217 2.356 5.818 2.356 5.818s2.356-2.586 2.356-5.818c0-3.232-2.356-5.817-2.356-5.817s-2.356 2.601-2.356 5.817Z" fill="#A77D57"/><path opacity=".1" d="M413.793 349.786c0 3.217 2.356 5.818 2.356 5.818s2.356-2.586 2.356-5.818c0-3.232-2.356-5.817-2.356-5.817s-2.356 2.601-2.356 5.817Z" fill="#000"/><path d="M414.471 363.394c-2.253 2.29-2.403 5.802-2.403 5.802s3.509-.202 5.761-2.488c2.253-2.285 2.403-5.802 2.403-5.802s-3.503.197-5.761 2.488Z" fill="#A77D57"/><path opacity=".1" d="M414.471 363.394c-2.253 2.29-2.403 5.802-2.403 5.802s3.509-.202 5.761-2.488c2.253-2.285 2.403-5.802 2.403-5.802s-3.503.197-5.761 2.488Z" fill="#000"/><path d="M418.893 379.319c-2.253 2.291-2.403 5.802-2.403 5.802s3.508-.201 5.761-2.487 2.403-5.802 2.403-5.802-3.509.197-5.761 2.487Z" fill="#A77D57"/><path d="M412.389 375.819s5.11-8.057 12.276-8.233M408.409 370.951s-5.11-8.056-12.276-8.232M407.748 382.455s5.11-8.062 12.302-8.248" stroke="#A77D57" stroke-miterlimit="10"/><path d="M424.431 368.853a1.328 1.328 0 1 0 0-2.656 1.328 1.328 0 0 0 0 2.656ZM396.258 364.096a1.329 1.329 0 1 0-.003-2.657 1.329 1.329 0 0 0 .003 2.657Z" fill="#A77D57"/><path d="M411.505 385.108s-5.11-8.057-12.276-8.233" stroke="#A77D57" stroke-miterlimit="10"/><path d="M399.353 378.248a1.328 1.328 0 1 0 0-2.656 1.328 1.328 0 0 0 0 2.656ZM420.123 375.595a1.329 1.329 0 1 0-.002-2.658 1.329 1.329 0 0 0 .002 2.658Z" fill="#A77D57"/><path d="M439.74 405.067s-12.312-2.467-15.593-5.751c-3.28-3.284-18.047-9.034-19.695-4.944-1.648 4.091-22.16 18.1-8.205 20.551 13.956 2.451 32.829 3.284 36.932 1.644 4.102-1.639 6.561-11.5 6.561-11.5Z" fill="#A8A8A8"/><path opacity=".2" d="M396.247 413.398c13.95 2.467 32.829 3.284 36.931 1.644 3.1-1.251 5.296-7.239 6.154-10.058l.408.088s-2.464 9.857-6.567 11.501c-4.102 1.644-22.981.822-36.931-1.644-4.025-.714-5.167-2.384-4.743-4.494.346 1.37 1.751 2.43 4.748 2.963Z" fill="#000"/><path d="M437.297 155.034s-5.921-12.53-14.756-16.677c-3.534-1.944-7.574-2.585-11.92-.548a12.136 12.136 0 0 0-5.166 4.302c-3.55 1.8-8.267 3.553-13.248 3.553-10.183 0-29.584 12.302-29.584 12.302s-10.669.983-11.64 4.432c-.352 1.231-1.685 1.458-3.266 1.236.419-2.187.842-3.697.842-3.697l3.881-34.451s2.423-7.876-4.852-24.119c-4.293-9.582-12.467-10.771-18.445-10.13v-.202l-.94-1.717a7.133 7.133 0 0 0 1.741-1.132 3.464 3.464 0 0 1 1.447-.952 2.94 2.94 0 0 1 1.482.202l4.382 1.386c.737.283 1.52.429 2.309.43 1.86-.114 3.224-1.759 4.356-3.264.852-1.138 1.751-2.523 1.317-3.883a14.232 14.232 0 0 0-.687-1.397c-.579-1.318-.238-2.875.403-4.162.641-1.288 1.55-2.42 2.191-3.708a10.036 10.036 0 0 0-1.266-10.617c-.878-1.034-2.031-2.006-2.258-3.366-.186-1.112.31-2.213.61-3.3a9.976 9.976 0 0 0-1.876-8.832 10.758 10.758 0 0 0-4.614-3.139 6.144 6.144 0 0 0 .367-3.62c-.873-4.08-2.149-9.008-5.265-11.956a10.126 10.126 0 0 0-.95-.915 7.035 7.035 0 0 0-2.852-1.551c-2.067-.481-4.222.444-6.361.662-2.945.3-5.843-.755-8.783-1.226-2.94-.47-6.329-.17-8.21 2.146-1.467 1.81-1.637 4.422-3.038 6.288-1.462 1.955-3.973 2.73-6.355 3.145-2.382.413-4.877.589-6.995 1.768a8.616 8.616 0 0 0-4.278 7.938c.077 1.122.372 2.229.315 3.35-.119 2.359-1.731 4.324-3.26 6.103-1.065 1.236-2.191 2.663-2.067 4.302.119 1.908 1.824 3.268 2.676 4.975 1.318 2.642.465 5.854-.769 8.538-1.235 2.684-2.858 5.3-3.1 8.274a18.078 18.078 0 0 0 .418 4.473c.238 1.329.63 2.844 1.622 3.62.299.405.713.712 1.189.879.385.09.765.204 1.136.341.119.331.163.684.13 1.034v.766l-.739.067c-8.732.982-18.916 5.905-18.43 11.811.486 5.905 1.938 20.168 1.938 20.168s4.365 26.083 11.155 35.929a76.594 76.594 0 0 1 10.26 21.332l4.046 13.383.232.765c-2.066 2.213-3.776 4.711-4.355 7.343-1.938 8.859-20.853 13.29-20.853 13.29s-19.633 9.536-20.863 22.914l-.894 3.17-4.407 15.798s-11.155 9.825-7.75 17.225c3.405 7.4 14.064 9.35 13.578 16.734-.067 1.035.367 1.516 1.168 1.552 1.968 3.144 17.701-9.557 22.599-13.626-1.405 5.3-4.924 21.295 2.749 24.392a7.644 7.644 0 0 0 4.825.972c.026 1.242.083 2.545.186 3.925l-7.274 32.486s-3.509 25.701-7.378 34.575h-.217a8.027 8.027 0 0 1-1.137 1.861 12.305 12.305 0 0 0-1.881 3.62h.181c-.062.155-.124.311-.181.471-2.635 7.059-4.872 20.964-5.843 27.609l-.14.952-.868-.197s-.17 3.149-4.934 4.282v.119c-2.02.326-4.04 1.453-3.348 4.793l-3.849.156v2.461l22.795-.517 14.55-19.687-.972 16.243h3.395l2.423-17.225s10.669-8.859.486-17.717h-.873a5.73 5.73 0 0 0-.579-.982c-.517-.74-.78-1.924-.806-3.362 0-.382 0-.776.046-1.189.445-6.366 3.674-15.633 3.674-15.633l12.126-25.101s7.275-8.367 4.852-30.51c0 0 13.092-23.622 23.766-31.498a18.644 18.644 0 0 0 1.726-1.474l1.669 16.243.878-.403.093.894s12.514-5.823 23.705-10.073l1.999 13.517s4.852 14.273 3.88 23.622c-.971 9.35 0 35.439 0 35.439s2.909 23.622 0 29.533l-.031.067h-.217a26.316 26.316 0 0 0-1.069 3.475h.124l-.124.486c-1.953 7.757-3.689 22.236-4.288 27.475l-.057.517h-1.132s-2.909 8.858 0 11.32c2.909 2.461 17.944-.517 17.944-.517s6.091-7.142 1.214-10.653v-19.837s-.227-3.056-.32-7.069a129.242 129.242 0 0 1-.041-3.853c0-5.414.402-11.294 1.818-13.688 2.909-4.923 8.732-29.533 8.732-34.451 0-4.917-1.488-28.053-1.488-28.053s-4.366-20.168 1.457-31.99l4.133-19.34a279.481 279.481 0 0 0 5.787-10.684s24.733-33.468 36.373-34.942c11.641-1.473 8.763-56.599 8.763-56.599ZM265.505 414.273l-.78-.176c.119-.284.248-.584.387-.9 2.067-4.695 6.531-12.685 13.95-16.646l-13.557 17.722Zm38.425-226.748s-.471.238-1.24.672l-.636-1.463-.377-.972-.098-.259-.269-.708-.093-.249-.315-.848-.103-.284-.212-.579-.119-.326-.222-.626-.129-.367-.192-.558-.108-.321-.15-.465-.093-.285-.201-.646-.078-.259-.119-.419-.072-.253a14.033 14.033 0 0 1-.134-.517l-.047-.181a53.915 53.915 0 0 1-.108-.46l-.042-.187a10.073 10.073 0 0 1-.072-.372v-.134a5.724 5.724 0 0 1-.062-.44v-.507a2.847 2.847 0 0 1 0-.32 3.889 3.889 0 0 0 0-.404v-.062c0-.144 0-.305-.026-.475v-.062a39.624 39.624 0 0 0-1.457-6.315l.47.445s8.241 9.355 6.304 19.206Z" fill="url(#b)"/><path d="M323.655 58.313h-29.098v39.802h29.098V58.313Z" fill="#D9A95E"/><path opacity=".05" d="M323.655 58.313h-29.098v39.802h29.098V58.313Z" fill="#000"/><path d="M342.448 49.8a9.724 9.724 0 0 1 1.875 8.713c-.3 1.075-.796 2.156-.61 3.252.228 1.34 1.38 2.286 2.258 3.32a9.79 9.79 0 0 1 1.266 10.472c-.635 1.272-1.55 2.39-2.191 3.656-.64 1.267-.986 2.808-.403 4.106.254.446.484.905.688 1.376.428 1.339-.471 2.71-1.318 3.832-1.126 1.484-2.49 3.102-4.355 3.216-.79 0-1.572-.144-2.31-.424l-4.381-1.37a2.98 2.98 0 0 0-1.483-.197 3.471 3.471 0 0 0-1.447.941c-1.503 1.308-3.766 2.172-5.466 1.127-1.7-1.044-1.948-3.449-1.927-5.481.026-2.317.196-4.82 1.684-6.598.946-1.133 2.33-1.826 3.281-2.958 2.041-2.43 1.55-6.004 1.478-9.18-.042-.718.04-1.439.242-2.13a7.305 7.305 0 0 1 .972-1.722c1.777-2.585 3.508-5.254 4.448-8.243.987-3.102.713-5.952-.289-8.998 2.718-.79 6.283 1.252 7.988 3.29Z" fill="#D9A95E"/><path d="m327.778 91.557-5.259 7.897-.558.838-.316 1.204-5.016 19.181v29.124l-12.127 15.514-12.606-21.844s-11.155-16.031 2.909-40.289a88.619 88.619 0 0 0 4.267-8.315 62.44 62.44 0 0 0 .76-1.769c3.1-7.415 4.283-13.574 4.598-18.26.46-6.784-.899-10.486-.899-10.486l25.704 6.308a82.921 82.921 0 0 0-2.537 8.062c-3.053 12.148 1.08 12.835 1.08 12.835Z" fill="#FFD5D8"/><path d="M321.956 95.439s18.43-7.757 25.705 8.274c7.274 16.03 4.851 23.787 4.851 23.787l-3.88 33.975s-2.909 10.193-.971 16.031c1.937 5.838 5.332 30.577 5.332 30.577l-18.43 2.426s-.971-22.816-3.88-29.125l.889-37.377a16 16 0 0 0-1.225-6.531 109.302 109.302 0 0 1-8.396-42.006l.005-.031ZM296.984 99.219a19.908 19.908 0 0 0-14.311-3.78c-8.732.972-18.915 5.823-18.43 11.651.486 5.827 1.938 19.898 1.938 19.898s4.366 25.727 11.155 35.434l6.789 9.706 13.092 42.714 16.017-1.939s-15.035-31.544-14.55-36.405c.486-4.861-10.183-32.036-10.183-32.036l8.483-45.243Z" fill="#FFD5D8"/><path d="m313.229 212.905-16.016 1.94-5.575-18.188-4.046-13.197a75.073 75.073 0 0 0-10.261-21.036c-6.789-9.706-11.154-35.433-11.154-35.433s-1.457-14.076-1.938-19.899c-.48-5.823 9.698-10.679 18.43-11.65a20.65 20.65 0 0 1 7.786.599 18.408 18.408 0 0 1 6.52 3.18l-8.494 45.243s6.629 16.895 9.202 26.425c.687 2.56 1.085 4.582.987 5.611-.171 1.701 1.55 6.655 3.875 12.411 4.319 10.648 10.684 23.994 10.684 23.994Z" fill="#FFD5D8"/><path d="m247.272 239.116-5.818 20.385s-11.155 9.727-7.76 16.967c3.394 7.24 14.063 9.22 13.578 16.501-.486 7.281 24.247-13.59 24.247-13.59s-8.732 27.666 6.303 26.213c15.035-1.453 27.642-31.544 27.642-31.544l22.309-6.309 2.424 23.296s34.916-16.031 40.253-14.076c5.337 1.955 21.824-30.096 21.824-30.096s24.733-33.008 36.373-34.461c11.641-1.454 8.732-55.819 8.732-55.819s-11.155-23.296-25.704-16.501c-14.549 6.795-1.442 25.256-1.442 25.256l-44.133 35.92-46.071 9.22-72.757 28.638Z" fill="#fff"/><path opacity=".02" d="M427.675 211.933c-11.64 1.458-36.373 34.461-36.373 34.461s-16.487 32.041-21.819 30.076c-5.332-1.965-40.253 14.076-40.253 14.076l-2.424-23.296-22.309 6.308s-12.607 30.097-27.642 31.545c-15.035 1.448-6.303-26.213-6.303-26.213s-24.733 20.902-24.253 13.611c.481-7.292-10.183-9.216-13.578-16.497-3.394-7.281 7.75-16.987 7.75-16.987l4.433-15.514 1.385-4.856 72.742-28.638 46.071-9.22 44.133-35.919s-9.083-12.794-3.714-21.001a12.093 12.093 0 0 1 5.166-4.24c14.55-6.795 25.704 16.501 25.704 16.501s2.925 54.35-8.716 55.803Z" fill="#000"/><path d="M361.723 223.582s-2.691 4.763-6.68 11.449a794.915 794.915 0 0 1-3.529 5.838l-.909 1.469c-8.138 13.207-18.76 29.285-24.769 33.654-10.669 7.757-23.767 31.064-23.767 31.064 2.423 21.843-4.851 30.096-4.851 30.096l-12.127 24.755s-3.224 9.138-3.673 15.415c-.155 2.162 0 3.977.759 4.97.42.567.735 1.205.93 1.882 1.194 3.972-.93 9.283-.93 9.283-9.263 3.102-14.642 12.493-16.998 17.737a35.862 35.862 0 0 0-1.431 3.62l-10.184-2.425s.186-1.407.517-3.662c.971-6.552 3.209-20.271 5.844-27.231a12.046 12.046 0 0 1 1.88-3.574 7.844 7.844 0 0 0 1.137-1.835c3.958-8.274 7.595-34.57 7.595-34.57l7.275-32.036c-1.457-19.418 5.332-24.268 5.332-24.268l16.786-35.165 4.071-8.522 49.471-15.395 1.302-.403 6.949-2.146ZM251.616 413.857s-8.266-1.459-6.789 4.855h6.789v-4.855Z" fill="#FFD5D8"/><path opacity=".05" d="M265.189 411.205a35.862 35.862 0 0 0-1.431 3.62l-10.184-2.426s.186-1.406.517-3.661l11.098 2.467Z" fill="#000"/><path d="m266.187 412.4-13.093-2.912s-.17 3.103-4.934 4.225l.574 5.968 13.578-.486 3.875-6.795Z" fill="#4F4A55"/><path d="M240.969 418.71v2.425l22.795-.486 14.549-19.418-.971 16.031h3.395l2.423-16.988s10.669-8.739.485-17.473h-3.394l-.486 11.164-15.035 19.418-11.64 4.856-12.121.471Z" fill="#4F4A55"/><path opacity=".05" d="m283.134 383.705-23.183-2.679a12.08 12.08 0 0 1 1.881-3.573 7.867 7.867 0 0 0 1.136-1.836l18.471 1.231c-.155 2.161 0 3.977.76 4.969.421.569.738 1.208.935 1.888Z" fill="#000"/><path d="m283.134 384.189-23.183-2.678a12.072 12.072 0 0 1 1.881-3.574 7.84 7.84 0 0 0 1.136-1.835l18.471 1.23c-.155 2.162 0 3.977.76 4.97a5.95 5.95 0 0 1 .935 1.887Z" fill="#4F4A55"/><path opacity=".1" d="M361.723 223.582s-2.692 4.763-6.68 11.449a794.915 794.915 0 0 1-3.529 5.838l-.909 1.469-.062-1.474-.15-3.506-.305-6.991s1.276-1.64 3.4-4.23l1.302-.404 6.933-2.151Z" fill="#000"/><path d="M394.02 208.288c0 13.445-3.684 29.859-3.684 29.859l-8.267 37.858c-5.817 11.651-1.457 31.545-1.457 31.545s1.457 22.815 1.457 27.666c0 4.85-5.817 29.124-8.731 33.975-1.416 2.358-1.798 8.16-1.819 13.497 0 1.313 0 2.585.041 3.8.093 3.956.321 6.971.321 6.971v22.816l-17.944-1.459s.077-.718.217-1.939c.594-5.171 2.33-19.418 4.288-27.092a25.822 25.822 0 0 1 1.07-3.428c.082-.197.165-.378.248-.543 2.909-5.823 0-29.125 0-29.125s-.972-25.727 0-34.947c.971-9.22-3.88-23.296-3.88-23.296l-2.909-19.418-1.483-34.161-.15-3.506-.305-6.992s1.411-1.81 3.731-4.654a348.546 348.546 0 0 1 9.615-11.258c3.895-4.349 8.184-8.879 12.234-12.576 7.296-6.671 13.785-10.642 15.64-5.994 1.292 3.212 1.762 7.618 1.767 12.401Z" fill="#FFD5D8"/><path opacity=".1" d="M371.907 412.887v3.397l-17.944-1.458s.077-.719.217-1.939h17.727Z" fill="#000"/><path d="M360.752 413.371h-7.75s-2.909 8.739 0 11.165c2.909 2.425 17.944-.486 17.944-.486s6.303-7.281.971-10.679h-11.165Z" fill="#4F4A55"/><path opacity=".1" d="M329.23 70.684a82.664 82.664 0 0 0-2.537 8.062 20.862 20.862 0 0 1-22.269-3.884c.46-6.784-.899-10.487-.899-10.487l25.705 6.309Z" fill="#000"/><path d="M318.562 79.426c11.516 0 20.852-9.345 20.852-20.871 0-11.527-9.336-20.871-20.852-20.871-11.517 0-20.853 9.344-20.853 20.87 0 11.527 9.336 20.872 20.853 20.872Z" fill="#FFD5D8"/><path d="M329.117 93.712c-2.342.257-4.643.8-6.851 1.618l4.562-6.205 2.289 4.587Z" fill="#F0F0F2"/><path opacity=".1" d="M392.517 196.403a2.916 2.916 0 0 0-3.343-1.985 2.86 2.86 0 0 1 2.372 1.985c1.271 3.181 1.741 7.586 1.746 12.37 0 13.445-3.684 29.858-3.684 29.858l-8.267 37.859c-5.817 11.651-1.457 31.544-1.457 31.544s1.457 22.816 1.457 27.666c0 4.851-5.817 29.125-8.731 33.975-1.416 2.358-1.798 8.161-1.819 13.497 0 1.314 0 2.586.041 3.801.093 3.956.321 6.971.321 6.971v22.753l.971.078v-22.821s-.227-3.015-.32-6.971a129.148 129.148 0 0 1-.042-3.8c0-5.337.403-11.139 1.819-13.497 2.909-4.856 8.732-29.125 8.732-33.975 0-4.851-1.457-27.666-1.457-27.666s-4.366-19.899 1.457-31.545l8.266-37.858s3.7-16.398 3.684-29.859c-.005-4.794-.475-9.199-1.746-12.38Z" fill="#000"/><path opacity=".05" d="M376.273 221.656a51.487 51.487 0 0 0-15.5 9.22 67.765 67.765 0 0 1-5.714 4.168 103.71 103.71 0 0 1-3.679 2.332 116.619 116.619 0 0 1-32.312 13.399c-8.2 2.017-14.425 1.257-19.117-.698l4.072-8.522 50.772-15.798a347.463 347.463 0 0 1 9.615-11.258c3.896-4.349 8.184-8.879 12.235-12.577l4.485-2.11s4.355 18.436-4.857 21.844Z" fill="#000"/><path opacity=".05" d="M394.021 208.288c-9.13-.062-21.385 3.439-29.621 6.205 10.912-12.188 24.986-25.799 27.9-18.57 1.246 3.175 1.716 7.581 1.721 12.365Z" fill="#000"/><path d="M287.039 235.232s6.303 20.871 32.007 14.562c25.705-6.308 41.706-19.898 41.706-19.898a51.466 51.466 0 0 1 15.5-9.221c9.212-3.397 4.851-21.843 4.851-21.843l-24.733 11.651-16.486-11.651-14.064 4.856-38.797 11.164.016 20.38Z" fill="#fff"/><path opacity=".02" d="M287.783 235.232s6.304 20.871 32.008 14.562c25.704-6.308 41.705-19.898 41.705-19.898a51.49 51.49 0 0 1 15.5-9.221c9.212-3.397 4.852-21.843 4.852-21.843l-24.733 11.651-16.487-11.651-14.064 4.856-38.781 11.159v20.385Z" fill="#000"/><path opacity=".03" d="M416.521 174.079s-2.909 38.831-16.487 34.948c-13.578-3.884-44.614 8.739-44.614 8.739s-2.423-4.37-10.184-6.309c-7.76-1.939-16.016 6.795-16.016 6.795s-12.607-1.939-24.733-.486c-12.126 1.453-5.818 16.031-5.818 16.031s-8.731 10.678-21.824 7.281c-13.092-3.398-19.401 2.911-19.401 2.911h-11.573l1.385-4.856 72.741-28.638 46.071-9.22 44.165-35.935s-9.083-12.793-3.715-21a37.871 37.871 0 0 0 5.167-3.274s8.732 11.165 14.549 14.563c5.818 3.397-9.713 18.45-9.713 18.45Z" fill="#000"/><path opacity=".1" d="m322.515 99.454-.558.837-5.332 20.385v29.125l-12.127 15.513-12.606-21.843s-11.155-16.031 2.909-40.289a86.133 86.133 0 0 0 5.027-10.084l.305-.114s-2.424 45.14-1.938 52.421c.486 7.281 9.698 11.651 9.698 11.651-2.423-10.193 5.818-49.509 5.818-49.509l8.731-11.858V97.969a1.394 1.394 0 0 0 0 .13c.042.48.057.92.073 1.355Z" fill="#000"/><path opacity=".1" d="m321.641 101.501-5.016 19.18v29.124l-12.127 15.514-12.606-21.844s-11.155-16.03 2.909-40.289a88.378 88.378 0 0 0 4.267-8.315c-.449 8.605-2.268 44.157-1.844 50.544.485 7.281 9.698 11.65 9.698 11.65-2.424-10.192 5.817-49.509 5.817-49.509l8.732-11.858v2.281a1.394 1.394 0 0 0 0 .13c0 1.034.067 2.068.119 3.102.041.114.041.202.051.29Z" fill="#000"/><path opacity=".1" d="M283.65 144.951v-4.235c0-9.755 1.25-19.47 3.72-28.907l1.617-6.175.485-9.22.998-.367a18.408 18.408 0 0 1 6.52 3.18l-8.494 45.243s6.629 16.895 9.202 26.425c-.579-.76-.956-1.184-.956-1.184-17.949-16.507-13.092-24.76-13.092-24.76Z" fill="#000"/><path d="m313.228 212.903-16.016 1.939-5.575-18.187c4.081-3.987 9.3-6.914 10.907-7.757 4.319 10.658 10.684 24.005 10.684 24.005Z" fill="#F0F0F2"/><path d="M416.522 173.102s-2.909 38.831-16.487 34.947c-13.578-3.883-44.614 8.74-44.614 8.74s-2.423-4.37-10.184-6.309c-7.76-1.939-16.016 6.795-16.016 6.795s-12.607-1.939-24.733-.486c-12.126 1.453-5.818 16.031-5.818 16.031s-8.732 10.678-21.824 7.281c-13.092-3.398-19.401 2.911-19.401 2.911H245.82c-1.457-14.562 20.853-25.241 20.853-25.241s18.915-4.369 20.853-13.104c1.937-8.734 16.486-16.03 16.486-16.03 1.938-9.707-6.303-18.932-6.303-18.932-17.944-16.502-13.092-24.755-13.092-24.755v-4.235c0-9.755 1.25-19.47 3.72-28.907l1.617-6.175.486-9.22 9.227-3.397s-2.423 45.139-1.937 52.42c.485 7.281 9.687 11.651 9.687 11.651-2.423-10.192 5.818-49.509 5.818-49.509l8.732-11.858V98.001a.93.93 0 0 0 0 .129c0 1.034.067 2.068.119 3.103v.357c0 .408.046.817.077 1.225 0 .243.031.481.046.719v.088c.038.52.081 1.037.13 1.551a.185.185 0 0 0 0 .047c.041.517.093 1.034.144 1.51l.057.553c.057.559.119 1.112.197 1.665.077.553.134 1.086.211 1.629 0 .083 0 .16.036.243.078.714.186 1.402.316 2.069v.072a26.075 26.075 0 0 0 3.436 8.688l14.549 41.256s3.616 1.799 6.432 2.187c1.581.217 2.914 0 3.266-1.22.971-3.398 11.64-4.37 11.64-4.37s19.401-12.137 29.584-12.137c10.184 0 19.401-7.281 19.401-7.281s8.732 11.165 14.55 14.562c5.817 3.398-9.636 18.456-9.636 18.456Z" fill="#fff"/><path opacity=".02" d="M304.74 184.022s10.669-.972 18.43-2.425c7.76-1.453 24.733-16.031 24.733-16.031" fill="#000"/><path d="M369.484 420.653h-16.492c.224-.257.462-.5.713-.729 1.969-1.836 7.817-6.071 14.984 0 .253.222.521.47.795.729Z" fill="#FFD5D8"/><path opacity=".1" d="m371.587 386.016-13.118-.709a25.671 25.671 0 0 1 1.069-3.428l12.008.336c-.006 1.298.01 2.601.041 3.801Z" fill="#000"/><path d="m371.587 386.496-13.118-.708a25.73 25.73 0 0 1 1.069-3.429l12.008.336c-.006 1.335.01 2.607.041 3.801Z" fill="#4F4A55"/><path opacity=".1" d="M332.466 30.929a7.07 7.07 0 0 0-2.832-1.515c-2.066-.476-4.221.434-6.36.651-2.945.295-5.843-.744-8.783-1.21-2.94-.465-6.329-.17-8.21 2.12-1.467 1.785-1.638 4.36-3.038 6.206-1.462 1.924-3.973 2.694-6.355 3.103-2.382.408-4.877.579-6.996 1.742a8.475 8.475 0 0 0-4.278 7.83c.078 1.106.372 2.197.315 3.304-.118 2.322-1.73 4.261-3.26 6.014-1.064 1.22-2.19 2.627-2.066 4.246.118 1.882 1.823 3.227 2.676 4.907 1.317 2.586.465 5.776-.77 8.424-1.235 2.648-2.857 5.228-3.1 8.145a17.63 17.63 0 0 0 .419 4.41c.284 1.583.8 3.445 2.325 3.957.516.176 1.167.186 1.513.62.221.372.305.81.238 1.236-.098 3.103.656 6.578 3.188 8.404a8.049 8.049 0 0 0 2.408 1.132 9.84 9.84 0 0 0 7.796-.765c2.31-1.376 3.88-4.055 3.617-6.723-.114-1.169-.553-2.286-.734-3.45-.181-1.163-.036-2.481.816-3.288a10.746 10.746 0 0 1 1.623-1.034c2.025-1.33 2.583-4.137 2.17-6.516-.414-2.379-1.602-4.566-2.372-6.862-.997-2.968-1.297-6.118-1.55-9.236-.206-2.524-.387-5.083.073-7.57a3.31 3.31 0 0 1 .516-1.387c.417-.482.967-.83 1.581-.998 2.759-.967 5.777-.858 8.639-1.463 2.862-.605 5.859-2.28 6.546-5.125.517-2.239-.362-5.021 1.292-6.63 1.436-1.395 3.823-.847 5.637 0a26.286 26.286 0 0 1 5.326 3.31c1.7 1.36 3.989 3.201 6.092 1.516 1.503-1.205 2.02-3.486 1.633-5.275-.92-4.246-2.279-9.396-5.735-12.23Z" fill="#000"/><path d="M331.979 30.445a7.068 7.068 0 0 0-2.862-1.516c-2.067-.475-4.221.435-6.36.652-2.945.295-5.844-.745-8.784-1.21-2.94-.466-6.329-.17-8.21 2.12-1.467 1.784-1.637 4.36-3.038 6.206-1.462 1.923-3.973 2.694-6.355 3.102-2.381.409-4.877.58-6.995 1.743a8.474 8.474 0 0 0-4.278 7.83c.077 1.106.372 2.197.315 3.304-.119 2.322-1.731 4.26-3.26 6.014-1.065 1.22-2.191 2.627-2.067 4.245.119 1.883 1.824 3.227 2.676 4.908 1.318 2.585.465 5.776-.769 8.424-1.235 2.647-2.858 5.228-3.1 8.144a17.63 17.63 0 0 0 .418 4.411c.284 1.583.801 3.444 2.325 3.956.517.176 1.168.187 1.514.621.22.372.304.809.238 1.236-.099 3.103.656 6.578 3.187 8.403a8.063 8.063 0 0 0 2.408 1.133 9.847 9.847 0 0 0 7.797-.766c2.309-1.375 3.88-4.054 3.616-6.722-.113-1.169-.553-2.286-.733-3.45-.181-1.163-.037-2.482.816-3.288a10.778 10.778 0 0 1 1.622-1.035c2.026-1.329 2.584-4.137 2.17-6.515-.413-2.38-1.601-4.567-2.371-6.863-.997-2.968-1.297-6.117-1.55-9.235-.207-2.524-.388-5.084.072-7.571.065-.495.242-.969.517-1.386.416-.482.967-.83 1.581-.998 2.759-.967 5.776-.858 8.638-1.463 2.863-.605 5.88-2.322 6.593-5.156.517-2.24-.362-5.021 1.292-6.63 1.436-1.396 3.823-.848 5.637 0a26.286 26.286 0 0 1 5.326 3.31c1.7 1.36 3.989 3.2 6.092 1.515 1.503-1.205 2.02-3.485 1.633-5.275-.936-4.214-2.294-9.365-5.751-12.198Z" fill="#D9A95E"/><path d="M321.992 98.144c0 1.035.067 2.069.119 3.103a90.28 90.28 0 0 1-.119-3.103ZM352.993 208.052l-18.43 2.425s-.971-22.815-3.88-29.124l.889-37.373a16.04 16.04 0 0 0-1.225-6.531c-2.769-6.655-3.544-15.793-3.544-15.793l14.549 41.256s3.617 1.8 6.433 2.188c-.672 3.501-1.323 8.791-.124 12.374 1.937 5.823 5.332 30.578 5.332 30.578Z" fill="#FFD5D8"/><path d="m326.807 89.133-13.578 18.446 13.578 13.59 2.423-27.666-2.423-4.37Z" fill="#fff"/><path opacity=".05" d="M324.141 208.293s12.606-9.707 22.066-5.58c9.461 4.127 19.158.729 19.158.729l-3.885 6.32-26.164.961-11.175-2.43Z" fill="#000"/><path d="M324.141 208.777s12.606-9.706 22.066-5.579c9.461 4.126 19.158.729 19.158.729l-3.88 6.309-26.169.972-11.175-2.431Z" fill="#fff"/><path d="m290.801 193.902 6.665 21.186 14.616-4.607-9.946-22.629-11.335 6.05Z" fill="#FFD5D8"/><path opacity=".05" d="M291.648 214.607s6.789-10.193 11.155-8.74c4.366 1.454 14.265-.144 14.265-.144l-2.144 7.426-11.155 1.458-10.183 3.397-1.938-3.397Z" fill="#000"/><path d="M291.648 215.091s6.789-10.192 11.155-8.739c4.366 1.453 14.265-.145 14.265-.145l-2.144 7.426-11.155 1.458-10.183 3.398-1.938-3.398Z" fill="#fff"/><path opacity=".05" d="M381.973 199.486s13.95 2.984 22.671-6.236c8.721-9.221 5.818-17.474 10.669-22.33 4.852-4.855 9.698-9.22 8.732-13.104" stroke="#000" stroke-width="2" stroke-miterlimit="10"/><path opacity=".1" d="M369.484 420.655h-16.492c.224-.257.462-.5.713-.729h14.984c.253.222.521.47.795.729Z" fill="#000"/><path opacity=".5" d="M150.138 127.826c-6.608 3.46-9.429 11.123-9.429 11.123s7.895 2.069 14.503-1.411c6.608-3.481 9.429-11.124 9.429-11.124s-7.895-2.048-14.503 1.412ZM198.504 222.43c-5.234 5.316-5.58 13.476-5.58 13.476s8.142-.465 13.376-5.781 5.58-13.477 5.58-13.477-8.142.461-13.376 5.782ZM157.981 256.3c-7.383 1.034-12.596 7.338-12.596 7.338s6.758 4.571 14.141 3.511c7.383-1.06 12.596-7.338 12.596-7.338s-6.758-4.586-14.141-3.511ZM219.355 34.578c-5.233 5.316-5.58 13.476-5.58 13.476s8.143-.465 13.377-5.78c5.234-5.317 5.58-13.477 5.58-13.477s-8.143.486-13.377 5.781ZM375.514 74.383c-5.234 5.316-5.58 13.476-5.58 13.476s8.142-.465 13.376-5.781 5.58-13.492 5.58-13.492-8.143.48-13.376 5.797ZM104.418 220.973c-5.234 5.316-5.58 13.476-5.58 13.476s8.143-.465 13.376-5.781c5.234-5.316 5.586-13.477 5.586-13.477s-8.143.466-13.382 5.782ZM70.154 148.523c-6.608 3.46-9.43 11.124-9.43 11.124s7.895 2.068 14.503-1.412c6.609-3.48 9.43-11.123 9.43-11.123s-7.89-2.053-14.503 1.411ZM230.675 152.877c-6.608 3.459-9.429 11.123-9.429 11.123s7.895 2.068 14.503-1.412c6.608-3.48 9.429-11.123 9.429-11.123s-7.895-2.038-14.503 1.412Z" fill="#A77D57"/><path d="M87.93 340.328s4.067 5.321-1.875 13.352c-5.941 8.031-10.85 14.811-8.855 19.816 0 0 8.964-14.913 16.254-15.125 7.29-.212 2.5-9.071-5.523-18.043Z" fill="#A77D57"/><path opacity=".1" d="M87.93 340.328c.356.515.636 1.077.832 1.67 7.12 8.367 10.907 16.181 4.067 16.378-6.37.181-14.018 11.588-15.847 14.479.06.223.133.442.217.657 0 0 8.965-14.914 16.255-15.126 7.29-.212 2.5-9.086-5.523-18.058Z" fill="#000"/><path d="M95.485 347.109c0 1.872-.212 3.387-.47 3.387s-.47-1.515-.47-3.387.263-.993.517-.993c.253 0 .423-.868.423.993Z" fill="#D9A95E"/><path d="M98.079 349.342c-1.643.895-3.1 1.438-3.198 1.21-.099-.227 1.105-1.138 2.748-2.032 1.643-.895.997-.243 1.121 0s.967-.073-.671.822Z" fill="#D9A95E"/><path d="M66.464 340.328s-4.066 5.321 1.876 13.352c5.941 8.031 10.85 14.811 8.855 19.816 0 0-8.964-14.913-16.254-15.125-7.29-.212-2.5-9.071 5.523-18.043Z" fill="#A77D57"/><path opacity=".1" d="M66.464 340.328a6.605 6.605 0 0 0-.832 1.67c-7.12 8.367-10.907 16.181-4.066 16.378 6.37.181 14.017 11.588 15.846 14.479a6.22 6.22 0 0 1-.217.657s-8.964-14.914-16.254-15.126c-7.29-.212-2.5-9.086 5.523-18.058Z" fill="#000"/><path d="M58.9 347.109c0 1.872.212 3.387.47 3.387.259 0 .47-1.515.47-3.387s-.263-.993-.516-.993-.424-.868-.424.993Z" fill="#D9A95E"/><path d="M56.316 349.342c1.643.895 3.1 1.438 3.199 1.21.098-.227-1.106-1.138-2.749-2.032-1.643-.895-.997-.243-1.121 0s-.972-.073.671.822Z" fill="#D9A95E"/><path d="M60.201 372.797s11.367-.352 14.787-2.792c3.42-2.441 17.479-5.358 18.326-1.443.848 3.914 17.076 19.469 4.247 19.573-12.829.103-29.806-2.002-33.227-4.086-3.42-2.084-4.133-11.252-4.133-11.252Z" fill="#A8A8A8"/><path opacity=".2" d="M97.794 386.775c-12.829.103-29.807-2.002-33.227-4.086-2.583-1.587-3.617-7.281-3.989-9.908h-.377s.718 9.174 4.134 11.258c3.415 2.084 20.398 4.189 33.226 4.085 3.705-.031 4.981-1.349 4.914-3.299-.512 1.189-1.927 1.929-4.681 1.95Z" fill="#000"/></g><defs><linearGradient id="b" x1="334.811" y1="427.692" x2="334.811" y2="24.818" gradientUnits="userSpaceOnUse"><stop stop-color="gray" stop-opacity=".25"/><stop offset=".54" stop-color="gray" stop-opacity=".12"/><stop offset="1" stop-color="gray" stop-opacity=".1"/></linearGradient><clipPath id="a"><path fill="#fff" d="M0 0h496v434H0z"/></clipPath></defs></svg>