<svg width="320" height="526" viewBox="0 0 320 526" fill="none" xmlns="http://www.w3.org/2000/svg">
	<g clip-path="url(#clip0_0_1)">
		<rect x="-725" width="901" height="526" fill="#A77D57"/>
	<g opacity="0.4" clip-path="url(#clip1_0_1)">
		<path d="M174.42 194.868C192.325 187.444 212.447 187.444 230.351 194.868C248.238 202.285 262.456 216.53 269.859 234.422C277.269 252.33 277.269 272.5 269.859 290.408C262.456 308.3 248.238 322.545 230.351 329.962C212.447 337.386 192.325 337.386 174.42 329.962C156.534 322.545 142.315 308.3 134.912 290.408C127.503 272.5 127.503 252.33 134.912 234.422C142.315 216.53 156.534 202.285 174.42 194.868Z" stroke="white"/>
		<path d="M164.272 159.232C188.674 149.114 216.097 149.114 240.498 159.232L248.357 162.491C272.733 172.599 292.095 191.977 302.185 216.361L305.499 224.372C315.578 248.732 315.578 276.095 305.499 300.455L302.185 308.466C292.095 332.85 272.733 352.228 248.357 362.336L240.498 365.595C216.097 375.713 188.674 375.713 164.272 365.595L156.414 362.336C132.038 352.228 112.675 332.85 102.586 308.466L99.2711 300.455C89.1923 276.095 89.1923 248.732 99.2711 224.372L102.586 216.361C112.675 191.977 132.038 172.599 156.414 162.491L164.272 159.232Z" stroke="white"/>
		<path d="M164.274 119.389C188.675 109.27 216.098 109.27 240.5 119.389L276.5 134.317C300.876 144.425 320.239 163.803 330.328 188.187L345.299 224.371C355.378 248.73 355.378 276.094 345.299 300.453L330.328 336.637C320.239 361.022 300.876 380.399 276.5 390.507L240.5 405.436C216.098 415.554 188.675 415.554 164.274 405.436L128.274 390.507C103.897 380.399 84.5348 361.022 74.4457 336.637L59.4743 300.453C49.3954 276.094 49.3954 248.73 59.4743 224.371L74.4457 188.187C84.5348 163.803 103.897 144.425 128.274 134.317L164.274 119.389Z" stroke="white"/>
		<path d="M164.273 79.5487C188.675 69.4302 216.098 69.4302 240.499 79.5487L304.641 106.146C329.017 116.255 348.38 135.632 358.469 160.016L385.097 224.373C395.176 248.733 395.176 276.096 385.097 300.456L358.469 364.812C348.38 389.197 329.017 408.574 304.641 418.682L240.499 445.28C216.098 455.399 188.675 455.399 164.273 445.28L100.132 418.682C75.7552 408.574 56.3927 389.197 46.3035 364.812L19.6754 300.456C9.59656 276.096 9.59657 248.733 19.6754 224.373L46.3035 160.016C56.3927 135.632 75.7552 116.255 100.131 106.146L164.273 79.5487Z" stroke="white"/>
		<path d="M164.275 39.705C188.676 29.5865 216.099 29.5865 240.5 39.705L332.784 77.9722C357.16 88.0804 376.523 107.458 386.612 131.842L424.897 224.372C434.976 248.731 434.976 276.095 424.897 300.454L386.612 392.984C376.523 417.368 357.16 436.746 332.784 446.854L240.5 485.121C216.099 495.24 188.676 495.24 164.275 485.121L71.9913 446.854C47.6149 436.746 28.2524 417.368 18.1633 392.984L-20.1214 300.454C-30.2003 276.095 -30.2003 248.731 -20.1215 224.372L18.1633 131.842C28.2524 107.458 47.6149 88.0804 71.9913 77.9722L164.275 39.705Z" stroke="white"/>
		<path d="M164.274 -0.134897C188.676 -10.2534 216.099 -10.2534 240.5 -0.134893L360.925 49.8019C385.302 59.9101 404.664 79.2877 414.753 103.672L464.695 224.374C474.774 248.734 474.774 276.097 464.695 300.457L414.753 421.159C404.664 445.543 385.302 464.921 360.925 475.029L240.5 524.966C216.099 535.084 188.676 535.084 164.274 524.966L43.8491 475.029C19.4728 464.921 0.110291 445.543 -9.97885 421.159L-59.9203 300.457C-69.9991 276.097 -69.9991 248.734 -59.9203 224.374L-9.97884 103.672C0.110298 79.2877 19.4728 59.9101 43.8491 49.8019L164.274 -0.134897Z" stroke="white"/>
		<path d="M164.274 -39.9786C188.675 -50.0971 216.098 -50.0971 240.5 -39.9786L389.066 21.6277C413.443 31.7359 432.805 51.1135 442.894 75.4977L504.492 224.373C514.571 248.732 514.571 276.096 504.492 300.455L442.894 449.33C432.805 473.714 413.443 493.092 389.066 503.2L240.499 564.806C216.098 574.925 188.675 574.925 164.274 564.806L15.7069 503.2C-8.66942 493.092 -28.0319 473.714 -38.121 449.33L-99.7191 300.455C-109.798 276.096 -109.798 248.732 -99.7191 224.373L-38.121 75.4977C-28.0319 51.1135 -8.6694 31.7358 15.7069 21.6277L164.274 -39.9786Z" stroke="white"/>
		<path d="M164.273 -79.8185C188.675 -89.937 216.098 -89.937 240.499 -79.8185L417.208 -6.54259C441.584 3.56557 460.946 22.9432 471.036 47.3274L544.29 224.375C554.369 248.735 554.369 276.098 544.29 300.458L471.036 477.505C460.946 501.89 441.584 521.267 417.208 531.375L240.499 604.651C216.098 614.77 188.674 614.77 164.273 604.651L-12.4352 531.375C-36.8116 521.267 -56.1741 501.89 -66.2632 477.505L-139.518 300.458C-149.597 276.098 -149.597 248.735 -139.518 224.375L-66.2632 47.3274C-56.174 22.9432 -36.8116 3.56556 -12.4352 -6.5426L164.273 -79.8185Z" stroke="white"/>
		<path d="M164.273 -119.662C188.674 -129.781 216.097 -129.781 240.499 -119.662L445.349 -34.7168C469.725 -24.6087 489.088 -5.23105 499.177 19.1532L584.088 224.374C594.167 248.733 594.167 276.097 584.088 300.456L499.177 505.677C489.088 530.061 469.725 549.438 445.349 559.547L240.499 644.492C216.097 654.61 188.674 654.61 164.273 644.492L-40.5773 559.547C-64.9537 549.438 -84.3162 530.061 -94.4054 505.677L-179.317 300.456C-189.396 276.097 -189.396 248.733 -179.317 224.374L-94.4053 19.1531C-84.3162 -5.23112 -64.9537 -24.6087 -40.5774 -34.7168L164.273 -119.662Z" stroke="white"/>
		<path d="M164.272 -159.506C188.674 -169.624 216.097 -169.624 240.498 -159.506L473.49 -62.8911C497.866 -52.7829 517.229 -33.4053 527.318 -9.02109L623.886 224.372C633.965 248.732 633.965 276.095 623.886 300.454L527.318 533.848C517.229 558.232 497.866 577.61 473.49 587.718L240.498 684.333C216.097 694.451 188.674 694.451 164.272 684.333L-68.7196 587.718C-93.0959 577.61 -112.458 558.232 -122.548 533.848L-219.116 300.455C-229.194 276.095 -229.194 248.732 -219.116 224.372L-122.548 -9.02106C-112.458 -33.4053 -93.0959 -52.7829 -68.7195 -62.8911L164.272 -159.506Z" stroke="white"/>
		<path d="M164.272 -199.346C188.673 -209.464 216.096 -209.464 240.498 -199.346L501.631 -91.0614C526.008 -80.9532 545.37 -61.5756 555.459 -37.1914L663.684 224.375C673.763 248.734 673.763 276.098 663.684 300.457L555.459 562.023C545.37 586.407 526.008 605.785 501.631 615.893L240.498 724.177C216.096 734.296 188.673 734.296 164.272 724.177L-96.8617 615.893C-121.238 605.785 -140.601 586.407 -150.69 562.023L-258.914 300.457C-268.993 276.098 -268.993 248.734 -258.914 224.375L-150.69 -37.1914C-140.601 -61.5756 -121.238 -80.9532 -96.8617 -91.0614L164.272 -199.346Z" stroke="white"/>
		<path d="M164.273 -239.19C188.674 -249.308 216.098 -249.308 240.499 -239.19L529.774 -119.236C554.15 -109.127 573.513 -89.7498 583.602 -65.3656L703.484 224.373C713.562 248.733 713.562 276.096 703.483 300.456L583.602 590.194C573.513 614.578 554.15 633.956 529.774 644.064L240.499 764.018C216.098 774.137 188.674 774.137 164.273 764.018L-125.002 644.064C-149.378 633.956 -168.741 614.578 -178.83 590.194L-298.711 300.456C-308.79 276.096 -308.79 248.733 -298.711 224.373L-178.83 -65.3656C-168.741 -89.7498 -149.378 -109.127 -125.002 -119.236L164.273 -239.19Z" stroke="white"/>
		<path d="M164.273 -279.033C188.674 -289.152 216.097 -289.152 240.499 -279.033L557.915 -147.41C582.292 -137.302 601.654 -117.924 611.743 -93.5398L743.281 224.372C753.36 248.731 753.36 276.095 743.281 300.454L611.743 618.366C601.654 642.75 582.292 662.127 557.915 672.236L240.499 803.859C216.097 813.978 188.674 813.978 164.273 803.859L-153.144 672.236C-177.52 662.127 -196.883 642.75 -206.972 618.366L-338.51 300.454C-348.589 276.095 -348.589 248.731 -338.51 224.372L-206.972 -93.5398C-196.883 -117.924 -177.52 -137.302 -153.144 -147.41L164.273 -279.033Z" stroke="white"/>
		<path d="M164.272 -318.873C188.673 -328.992 216.097 -328.992 240.498 -318.873L586.057 -175.58C610.433 -165.472 629.795 -146.094 639.885 -121.71L783.079 224.374C793.158 248.733 793.158 276.097 783.079 300.456L639.885 646.541C629.795 670.925 610.433 690.303 586.057 700.411L240.498 843.704C216.097 853.822 188.673 853.822 164.272 843.704L-181.286 700.411C-205.663 690.303 -225.025 670.925 -235.114 646.541L-378.309 300.456C-388.388 276.097 -388.388 248.734 -378.309 224.374L-235.114 -121.71C-225.025 -146.094 -205.663 -165.472 -181.286 -175.58L164.272 -318.873Z" stroke="white"/>
		<path d="M164.274 -358.717C188.675 -368.835 216.098 -368.835 240.5 -358.717L614.2 -203.754C638.576 -193.646 657.939 -174.269 668.028 -149.884L822.879 224.373C832.958 248.732 832.958 276.096 822.879 300.455L668.028 674.712C657.939 699.096 638.576 718.474 614.2 728.582L240.5 883.544C216.098 893.663 188.675 893.663 164.274 883.544L-209.426 728.582C-233.803 718.474 -253.165 699.096 -263.254 674.712L-418.106 300.455C-428.185 276.096 -428.185 248.732 -418.106 224.373L-263.254 -149.884C-253.165 -174.269 -233.803 -193.646 -209.426 -203.754L164.274 -358.717Z" stroke="white"/>
		<path d="M164.275 -398.557C188.676 -408.675 216.1 -408.675 240.501 -398.557L642.343 -231.925C666.719 -221.817 686.082 -202.439 696.171 -178.055L862.679 224.375C872.758 248.734 872.758 276.098 862.679 300.457L696.171 702.887C686.082 727.271 666.719 746.649 642.343 756.757L240.501 923.389C216.1 933.508 188.676 933.508 164.275 923.389L-237.567 756.757C-261.943 746.649 -281.306 727.271 -291.395 702.887L-457.903 300.457C-467.982 276.098 -467.982 248.734 -457.903 224.375L-291.395 -178.055C-281.306 -202.439 -261.943 -221.817 -237.567 -231.925L164.275 -398.557Z" stroke="white"/>
		<path d="M164.275 -438.401C188.676 -448.519 216.099 -448.519 240.5 -438.401L670.484 -260.099C694.86 -249.991 714.223 -230.613 724.312 -206.229L902.477 224.374C912.556 248.733 912.556 276.097 902.477 300.456L724.312 731.058C714.223 755.443 694.86 774.82 670.484 784.928L240.5 963.23C216.099 973.349 188.676 973.349 164.275 963.23L-265.709 784.928C-290.085 774.82 -309.448 755.443 -319.537 731.058L-497.702 300.456C-507.78 276.097 -507.78 248.733 -497.702 224.374L-319.537 -206.229C-309.448 -230.613 -290.085 -249.991 -265.709 -260.099L164.275 -438.401Z" stroke="white"/>
		<path d="M164.274 -478.244C188.676 -488.363 216.099 -488.363 240.5 -478.244L698.625 -288.273C723.002 -278.165 742.364 -258.787 752.453 -234.403L942.275 224.372C952.354 248.732 952.354 276.095 942.275 300.455L752.453 759.23C742.364 783.614 723.002 802.992 698.625 813.1L240.5 1003.07C216.099 1013.19 188.676 1013.19 164.274 1003.07L-293.851 813.1C-318.227 802.992 -337.59 783.614 -347.679 759.23L-537.5 300.455C-547.579 276.095 -547.579 248.732 -537.5 224.372L-347.679 -234.403C-337.59 -258.787 -318.227 -278.165 -293.851 -288.273L164.274 -478.244Z" stroke="white"/>
		<path d="M164.274 -518.084C188.675 -528.203 216.098 -528.203 240.499 -518.084L726.766 -316.443C751.143 -306.335 770.505 -286.958 780.594 -262.573L982.072 224.375C992.151 248.734 992.151 276.098 982.072 300.457L780.594 787.405C770.505 811.789 751.143 831.167 726.766 841.275L240.5 1042.92C216.098 1053.03 188.675 1053.03 164.274 1042.92L-321.993 841.275C-346.37 831.167 -365.732 811.789 -375.821 787.405L-577.299 300.457C-587.378 276.097 -587.378 248.734 -577.299 224.375L-375.821 -262.573C-365.732 -286.958 -346.37 -306.335 -321.993 -316.443L164.274 -518.084Z" stroke="white"/>
		<path d="M164.272 -557.604C188.674 -567.722 216.097 -567.722 240.498 -557.604L754.678 -344.388C779.055 -334.28 798.417 -314.902 808.506 -290.518L1021.55 224.374C1031.63 248.733 1031.63 276.097 1021.55 300.456L808.506 815.348C798.417 839.732 779.055 859.11 754.678 869.218L240.498 1082.43C216.097 1092.55 188.674 1092.55 164.272 1082.43L-349.908 869.218C-374.284 859.11 -393.647 839.733 -403.736 815.348L-616.776 300.456C-626.855 276.097 -626.855 248.733 -616.776 224.374L-403.736 -290.518C-393.647 -314.902 -374.284 -334.28 -349.908 -344.388L164.272 -557.604Z" stroke="white"/>
		<path d="M164.272 -596.404C188.674 -606.523 216.097 -606.523 240.498 -596.404L782.084 -371.824C806.461 -361.716 825.823 -342.339 835.912 -317.954L1060.3 224.374C1070.38 248.733 1070.38 276.096 1060.3 300.456L835.912 842.784C825.823 867.168 806.461 886.546 782.084 896.654L240.498 1121.23C216.097 1131.35 188.674 1131.35 164.272 1121.23L-377.314 896.654C-401.69 886.546 -421.052 867.168 -431.142 842.784L-655.534 300.456C-665.612 276.096 -665.612 248.733 -655.534 224.374L-431.142 -317.955C-421.052 -342.339 -401.69 -361.716 -377.314 -371.824L164.272 -596.404Z" stroke="white"/>
		<path d="M164.274 -630.893C188.676 -641.011 216.099 -641.011 240.5 -630.893L806.447 -396.211C830.823 -386.103 850.186 -366.725 860.275 -342.341L1094.76 224.375C1104.84 248.734 1104.84 276.098 1094.76 300.457L860.275 867.173C850.186 891.557 830.823 910.935 806.447 921.043L240.5 1155.72C216.099 1165.84 188.676 1165.84 164.274 1155.72L-401.672 921.043C-426.049 910.934 -445.411 891.557 -455.5 867.173L-689.983 300.457C-700.062 276.098 -700.062 248.734 -689.983 224.375L-455.5 -342.341C-445.411 -366.725 -426.049 -386.103 -401.672 -396.211L164.274 -630.893Z" stroke="white"/>
	</g>
	</g>
	<rect x="176" width="465" height="526" fill="#F6F6F6"/>
	<g opacity="0.4" clip-path="url(#clip2_0_1)">
		<path d="M174.42 194.868C192.325 187.444 212.447 187.444 230.351 194.868C248.238 202.285 262.456 216.53 269.859 234.422C277.269 252.33 277.269 272.5 269.859 290.408C262.456 308.3 248.238 322.545 230.351 329.962C212.447 337.386 192.325 337.386 174.42 329.962C156.534 322.545 142.315 308.3 134.912 290.408C127.503 272.5 127.503 252.33 134.912 234.422C142.315 216.53 156.534 202.285 174.42 194.868Z" stroke="#E2E1DB"/>
		<path d="M164.272 159.232C188.674 149.114 216.097 149.114 240.498 159.232L248.357 162.491C272.733 172.599 292.095 191.977 302.185 216.361L305.499 224.372C315.578 248.732 315.578 276.095 305.499 300.455L302.185 308.466C292.095 332.85 272.733 352.228 248.357 362.336L240.498 365.595C216.097 375.713 188.674 375.713 164.272 365.595L156.414 362.336C132.038 352.228 112.675 332.85 102.586 308.466L99.2711 300.455C89.1923 276.095 89.1923 248.732 99.2711 224.372L102.586 216.361C112.675 191.977 132.038 172.599 156.414 162.491L164.272 159.232Z" stroke="#E2E1DB"/>
		<path d="M164.274 119.389C188.675 109.27 216.098 109.27 240.5 119.389L276.5 134.317C300.876 144.425 320.239 163.803 330.328 188.187L345.299 224.371C355.378 248.73 355.378 276.094 345.299 300.453L330.328 336.637C320.239 361.022 300.876 380.399 276.5 390.507L240.5 405.436C216.098 415.554 188.675 415.554 164.274 405.436L128.274 390.507C103.897 380.399 84.5348 361.022 74.4457 336.637L59.4743 300.453C49.3954 276.094 49.3954 248.73 59.4743 224.371L74.4457 188.187C84.5348 163.803 103.897 144.425 128.274 134.317L164.274 119.389Z" stroke="#E2E1DB"/>
		<path d="M164.273 79.5487C188.675 69.4302 216.098 69.4302 240.499 79.5487L304.641 106.146C329.017 116.255 348.38 135.632 358.469 160.016L385.097 224.373C395.176 248.733 395.176 276.096 385.097 300.456L358.469 364.812C348.38 389.197 329.017 408.574 304.641 418.682L240.499 445.28C216.098 455.399 188.675 455.399 164.273 445.28L100.132 418.682C75.7552 408.574 56.3927 389.197 46.3035 364.812L19.6754 300.456C9.59656 276.096 9.59657 248.733 19.6754 224.373L46.3035 160.016C56.3927 135.632 75.7552 116.255 100.131 106.146L164.273 79.5487Z" stroke="#E2E1DB"/>
		<path d="M164.275 39.705C188.676 29.5865 216.099 29.5865 240.5 39.705L332.784 77.9722C357.16 88.0804 376.523 107.458 386.612 131.842L424.897 224.372C434.976 248.731 434.976 276.095 424.897 300.454L386.612 392.984C376.523 417.368 357.16 436.746 332.784 446.854L240.5 485.121C216.099 495.24 188.676 495.24 164.275 485.121L71.9913 446.854C47.6149 436.746 28.2524 417.368 18.1633 392.984L-20.1214 300.454C-30.2003 276.095 -30.2003 248.731 -20.1215 224.372L18.1633 131.842C28.2524 107.458 47.6149 88.0804 71.9913 77.9722L164.275 39.705Z" stroke="#E2E1DB"/>
		<path d="M164.274 -0.134897C188.676 -10.2534 216.099 -10.2534 240.5 -0.134893L360.925 49.8019C385.302 59.9101 404.664 79.2877 414.753 103.672L464.695 224.374C474.774 248.734 474.774 276.097 464.695 300.457L414.753 421.159C404.664 445.543 385.302 464.921 360.925 475.029L240.5 524.966C216.099 535.084 188.676 535.084 164.274 524.966L43.8491 475.029C19.4728 464.921 0.110291 445.543 -9.97885 421.159L-59.9203 300.457C-69.9991 276.097 -69.9991 248.734 -59.9203 224.374L-9.97884 103.672C0.110298 79.2877 19.4728 59.9101 43.8491 49.8019L164.274 -0.134897Z" stroke="#E2E1DB"/>
		<path d="M164.274 -39.9786C188.675 -50.0971 216.098 -50.0971 240.5 -39.9786L389.066 21.6277C413.443 31.7359 432.805 51.1135 442.894 75.4977L504.492 224.373C514.571 248.732 514.571 276.096 504.492 300.455L442.894 449.33C432.805 473.714 413.443 493.092 389.066 503.2L240.499 564.806C216.098 574.925 188.675 574.925 164.274 564.806L15.7069 503.2C-8.66942 493.092 -28.0319 473.714 -38.121 449.33L-99.7191 300.455C-109.798 276.096 -109.798 248.732 -99.7191 224.373L-38.121 75.4977C-28.0319 51.1135 -8.6694 31.7358 15.7069 21.6277L164.274 -39.9786Z" stroke="#E2E1DB"/>
		<path d="M164.273 -79.8185C188.675 -89.937 216.098 -89.937 240.499 -79.8185L417.208 -6.54259C441.584 3.56557 460.946 22.9432 471.036 47.3274L544.29 224.375C554.369 248.735 554.369 276.098 544.29 300.458L471.036 477.505C460.946 501.89 441.584 521.267 417.208 531.375L240.499 604.651C216.098 614.77 188.674 614.77 164.273 604.651L-12.4352 531.375C-36.8116 521.267 -56.1741 501.89 -66.2632 477.505L-139.518 300.458C-149.597 276.098 -149.597 248.735 -139.518 224.375L-66.2632 47.3274C-56.174 22.9432 -36.8116 3.56556 -12.4352 -6.5426L164.273 -79.8185Z" stroke="#E2E1DB"/>
		<path d="M164.273 -119.662C188.674 -129.781 216.097 -129.781 240.499 -119.662L445.349 -34.7168C469.725 -24.6087 489.088 -5.23105 499.177 19.1532L584.088 224.374C594.167 248.733 594.167 276.097 584.088 300.456L499.177 505.677C489.088 530.061 469.725 549.438 445.349 559.547L240.499 644.492C216.097 654.61 188.674 654.61 164.273 644.492L-40.5773 559.547C-64.9537 549.438 -84.3162 530.061 -94.4054 505.677L-179.317 300.456C-189.396 276.097 -189.396 248.733 -179.317 224.374L-94.4053 19.1531C-84.3162 -5.23112 -64.9537 -24.6087 -40.5774 -34.7168L164.273 -119.662Z" stroke="#E2E1DB"/>
		<path d="M164.272 -159.506C188.674 -169.624 216.097 -169.624 240.498 -159.506L473.49 -62.8911C497.866 -52.7829 517.229 -33.4053 527.318 -9.02109L623.886 224.372C633.965 248.732 633.965 276.095 623.886 300.454L527.318 533.848C517.229 558.232 497.866 577.61 473.49 587.718L240.498 684.333C216.097 694.451 188.674 694.451 164.272 684.333L-68.7196 587.718C-93.0959 577.61 -112.458 558.232 -122.548 533.848L-219.116 300.455C-229.194 276.095 -229.194 248.732 -219.116 224.372L-122.548 -9.02106C-112.458 -33.4053 -93.0959 -52.7829 -68.7195 -62.8911L164.272 -159.506Z" stroke="#E2E1DB"/>
		<path d="M164.272 -199.346C188.673 -209.464 216.096 -209.464 240.498 -199.346L501.631 -91.0614C526.008 -80.9532 545.37 -61.5756 555.459 -37.1914L663.684 224.375C673.763 248.734 673.763 276.098 663.684 300.457L555.459 562.023C545.37 586.407 526.008 605.785 501.631 615.893L240.498 724.177C216.096 734.296 188.673 734.296 164.272 724.177L-96.8617 615.893C-121.238 605.785 -140.601 586.407 -150.69 562.023L-258.914 300.457C-268.993 276.098 -268.993 248.734 -258.914 224.375L-150.69 -37.1914C-140.601 -61.5756 -121.238 -80.9532 -96.8617 -91.0614L164.272 -199.346Z" stroke="#E2E1DB"/>
		<path d="M164.273 -239.19C188.674 -249.308 216.098 -249.308 240.499 -239.19L529.774 -119.236C554.15 -109.127 573.513 -89.7498 583.602 -65.3656L703.484 224.373C713.562 248.733 713.562 276.096 703.483 300.456L583.602 590.194C573.513 614.578 554.15 633.956 529.774 644.064L240.499 764.018C216.098 774.137 188.674 774.137 164.273 764.018L-125.002 644.064C-149.378 633.956 -168.741 614.578 -178.83 590.194L-298.711 300.456C-308.79 276.096 -308.79 248.733 -298.711 224.373L-178.83 -65.3656C-168.741 -89.7498 -149.378 -109.127 -125.002 -119.236L164.273 -239.19Z" stroke="#E2E1DB"/>
		<path d="M164.273 -279.033C188.674 -289.152 216.097 -289.152 240.499 -279.033L557.915 -147.41C582.292 -137.302 601.654 -117.924 611.743 -93.5398L743.281 224.372C753.36 248.731 753.36 276.095 743.281 300.454L611.743 618.366C601.654 642.75 582.292 662.127 557.915 672.236L240.499 803.859C216.097 813.978 188.674 813.978 164.273 803.859L-153.144 672.236C-177.52 662.127 -196.883 642.75 -206.972 618.366L-338.51 300.454C-348.589 276.095 -348.589 248.731 -338.51 224.372L-206.972 -93.5398C-196.883 -117.924 -177.52 -137.302 -153.144 -147.41L164.273 -279.033Z" stroke="#E2E1DB"/>
		<path d="M164.272 -318.873C188.673 -328.992 216.097 -328.992 240.498 -318.873L586.057 -175.58C610.433 -165.472 629.795 -146.094 639.885 -121.71L783.079 224.374C793.158 248.733 793.158 276.097 783.079 300.456L639.885 646.541C629.795 670.925 610.433 690.303 586.057 700.411L240.498 843.704C216.097 853.822 188.673 853.822 164.272 843.704L-181.286 700.411C-205.663 690.303 -225.025 670.925 -235.114 646.541L-378.309 300.456C-388.388 276.097 -388.388 248.734 -378.309 224.374L-235.114 -121.71C-225.025 -146.094 -205.663 -165.472 -181.286 -175.58L164.272 -318.873Z" stroke="#E2E1DB"/>
		<path d="M164.274 -358.717C188.675 -368.835 216.098 -368.835 240.5 -358.717L614.2 -203.754C638.576 -193.646 657.939 -174.269 668.028 -149.884L822.879 224.373C832.958 248.732 832.958 276.096 822.879 300.455L668.028 674.712C657.939 699.096 638.576 718.474 614.2 728.582L240.5 883.544C216.098 893.663 188.675 893.663 164.274 883.544L-209.426 728.582C-233.803 718.474 -253.165 699.096 -263.254 674.712L-418.106 300.455C-428.185 276.096 -428.185 248.732 -418.106 224.373L-263.254 -149.884C-253.165 -174.269 -233.803 -193.646 -209.426 -203.754L164.274 -358.717Z" stroke="#E2E1DB"/>
		<path d="M164.275 -398.557C188.676 -408.675 216.1 -408.675 240.501 -398.557L642.343 -231.925C666.719 -221.817 686.082 -202.439 696.171 -178.055L862.679 224.375C872.758 248.734 872.758 276.098 862.679 300.457L696.171 702.887C686.082 727.271 666.719 746.649 642.343 756.757L240.501 923.389C216.1 933.508 188.676 933.508 164.275 923.389L-237.567 756.757C-261.943 746.649 -281.306 727.271 -291.395 702.887L-457.903 300.457C-467.982 276.098 -467.982 248.734 -457.903 224.375L-291.395 -178.055C-281.306 -202.439 -261.943 -221.817 -237.567 -231.925L164.275 -398.557Z" stroke="#E2E1DB"/>
		<path d="M164.275 -438.401C188.676 -448.519 216.099 -448.519 240.5 -438.401L670.484 -260.099C694.86 -249.991 714.223 -230.613 724.312 -206.229L902.477 224.374C912.556 248.733 912.556 276.097 902.477 300.456L724.312 731.058C714.223 755.443 694.86 774.82 670.484 784.928L240.5 963.23C216.099 973.349 188.676 973.349 164.275 963.23L-265.709 784.928C-290.085 774.82 -309.448 755.443 -319.537 731.058L-497.702 300.456C-507.78 276.097 -507.78 248.733 -497.702 224.374L-319.537 -206.229C-309.448 -230.613 -290.085 -249.991 -265.709 -260.099L164.275 -438.401Z" stroke="#E2E1DB"/>
		<path d="M164.274 -478.244C188.676 -488.363 216.099 -488.363 240.5 -478.244L698.625 -288.273C723.002 -278.165 742.364 -258.787 752.453 -234.403L942.275 224.372C952.354 248.732 952.354 276.095 942.275 300.455L752.453 759.23C742.364 783.614 723.002 802.992 698.625 813.1L240.5 1003.07C216.099 1013.19 188.676 1013.19 164.274 1003.07L-293.851 813.1C-318.227 802.992 -337.59 783.614 -347.679 759.23L-537.5 300.455C-547.579 276.095 -547.579 248.732 -537.5 224.372L-347.679 -234.403C-337.59 -258.787 -318.227 -278.165 -293.851 -288.273L164.274 -478.244Z" stroke="#E2E1DB"/>
		<path d="M164.274 -518.084C188.675 -528.203 216.098 -528.203 240.499 -518.084L726.766 -316.443C751.143 -306.335 770.505 -286.958 780.594 -262.573L982.072 224.375C992.151 248.734 992.151 276.098 982.072 300.457L780.594 787.405C770.505 811.789 751.143 831.167 726.766 841.275L240.5 1042.92C216.098 1053.03 188.675 1053.03 164.274 1042.92L-321.993 841.275C-346.37 831.167 -365.732 811.789 -375.821 787.405L-577.299 300.457C-587.378 276.097 -587.378 248.734 -577.299 224.375L-375.821 -262.573C-365.732 -286.958 -346.37 -306.335 -321.993 -316.443L164.274 -518.084Z" stroke="#E2E1DB"/>
		<path d="M164.272 -557.604C188.674 -567.722 216.097 -567.722 240.498 -557.604L754.678 -344.388C779.055 -334.28 798.417 -314.902 808.506 -290.518L1021.55 224.374C1031.63 248.733 1031.63 276.097 1021.55 300.456L808.506 815.348C798.417 839.732 779.055 859.11 754.678 869.218L240.498 1082.43C216.097 1092.55 188.674 1092.55 164.272 1082.43L-349.908 869.218C-374.284 859.11 -393.647 839.733 -403.736 815.348L-616.776 300.456C-626.855 276.097 -626.855 248.733 -616.776 224.374L-403.736 -290.518C-393.647 -314.902 -374.284 -334.28 -349.908 -344.388L164.272 -557.604Z" stroke="#E2E1DB"/>
		<path d="M164.272 -596.404C188.674 -606.523 216.097 -606.523 240.498 -596.404L782.084 -371.824C806.461 -361.716 825.823 -342.339 835.912 -317.954L1060.3 224.374C1070.38 248.733 1070.38 276.096 1060.3 300.456L835.912 842.784C825.823 867.168 806.461 886.546 782.084 896.654L240.498 1121.23C216.097 1131.35 188.674 1131.35 164.272 1121.23L-377.314 896.654C-401.69 886.546 -421.052 867.168 -431.142 842.784L-655.534 300.456C-665.612 276.096 -665.612 248.733 -655.534 224.374L-431.142 -317.955C-421.052 -342.339 -401.69 -361.716 -377.314 -371.824L164.272 -596.404Z" stroke="#E2E1DB"/>
		<path d="M164.274 -630.893C188.676 -641.011 216.099 -641.011 240.5 -630.893L806.447 -396.211C830.823 -386.103 850.186 -366.725 860.275 -342.341L1094.76 224.375C1104.84 248.734 1104.84 276.098 1094.76 300.457L860.275 867.173C850.186 891.557 830.823 910.935 806.447 921.043L240.5 1155.72C216.099 1165.84 188.676 1165.84 164.274 1155.72L-401.672 921.043C-426.049 910.934 -445.411 891.557 -455.5 867.173L-689.983 300.457C-700.062 276.098 -700.062 248.734 -689.983 224.375L-455.5 -342.341C-445.411 -366.725 -426.049 -386.103 -401.672 -396.211L164.274 -630.893Z" stroke="#E2E1DB"/>
	</g>
	<defs>
		<clipPath id="clip0_0_1">
			<rect width="176" height="526" fill="white"/>
		</clipPath>
		<clipPath id="clip1_0_1">
			<rect width="1071" height="526" fill="white" transform="translate(-585)"/>
		</clipPath>
		<clipPath id="clip2_0_1">
			<rect width="1071" height="526" fill="white" transform="translate(-585)"/>
		</clipPath>
	</defs>
</svg>
