<svg viewBox="0 0 20 20" xmlns="http://www.w3.org/2000/svg">
	<path fill-rule="evenodd" clip-rule="evenodd" d="M12.1317 2.27169C12.7638 2.0098 13.4412 1.875 14.1254 1.875C14.8096 1.875 15.4871 2.0098 16.1191 2.27169C16.7512 2.53359 17.3255 2.91745 17.8091 3.40135C18.2929 3.88498 18.6767 4.45917 18.9386 5.09115C19.2005 5.72321 19.3353 6.40068 19.3353 7.08485C19.3353 7.76903 19.2005 8.4465 18.9386 9.07856C18.6767 9.71058 18.2929 10.2848 17.809 10.7685L10.4424 18.1351C10.1983 18.3792 9.80256 18.3792 9.55848 18.1351L2.19182 10.7685C1.21486 9.79151 0.666016 8.46648 0.666016 7.08485C0.666016 5.70323 1.21486 4.3782 2.19182 3.40125C3.16877 2.42429 4.4938 1.87545 5.87542 1.87545C7.25705 1.87545 8.58208 2.42429 9.55903 3.40125L10.0004 3.84264L10.4417 3.40135C10.9254 2.91745 11.4997 2.53359 12.1317 2.27169Z"/>
</svg>
