<svg viewBox="0 0 20 20" xmlns="http://www.w3.org/2000/svg">
	<path fill-rule="evenodd" clip-rule="evenodd" d="M1.875 10C1.875 9.65482 2.15482 9.375 2.5 9.375H17.5C17.8452 9.375 18.125 9.65482 18.125 10C18.125 10.3452 17.8452 10.625 17.5 10.625H2.5C2.15482 10.625 1.875 10.3452 1.875 10Z"/>
	<path fill-rule="evenodd" clip-rule="evenodd" d="M1.875 5C1.875 4.65482 2.15482 4.375 2.5 4.375H17.5C17.8452 4.375 18.125 4.65482 18.125 5C18.125 5.34518 17.8452 5.625 17.5 5.625H2.5C2.15482 5.625 1.875 5.34518 1.875 5Z"/>
	<path fill-rule="evenodd" clip-rule="evenodd" d="M1.875 15C1.875 14.6548 2.15482 14.375 2.5 14.375H17.5C17.8452 14.375 18.125 14.6548 18.125 15C18.125 15.3452 17.8452 15.625 17.5 15.625H2.5C2.15482 15.625 1.875 15.3452 1.875 15Z"/>
</svg>
