<svg viewBox="0 0 20 20" xmlns="http://www.w3.org/2000/svg">
	<path fill-rule="evenodd" clip-rule="evenodd" d="M13.4615 3.45455C13.0792 3.45455 12.7692 3.78016 12.7692 4.18182C12.7692 4.58348 13.0792 4.90909 13.4615 4.90909C13.8439 4.90909 14.1538 4.58348 14.1538 4.18182C14.1538 3.78016 13.8439 3.45455 13.4615 3.45455ZM11.5028 3.45455C11.7879 2.60713 12.5572 2 13.4615 2C14.3658 2 15.1352 2.60713 15.4203 3.45455H18.3077C18.69 3.45455 19 3.78016 19 4.18182C19 4.58348 18.69 4.90909 18.3077 4.90909H15.4203C15.1352 5.7565 14.3658 6.36364 13.4615 6.36364C12.5572 6.36364 11.7879 5.7565 11.5028 4.90909H1.69231C1.30996 4.90909 1 4.58348 1 4.18182C1 3.78016 1.30996 3.45455 1.69231 3.45455H11.5028ZM6.53846 9.27273C6.15611 9.27273 5.84615 9.59834 5.84615 10C5.84615 10.4017 6.15611 10.7273 6.53846 10.7273C6.92081 10.7273 7.23077 10.4017 7.23077 10C7.23077 9.59834 6.92081 9.27273 6.53846 9.27273ZM4.57972 9.27273C4.86484 8.42531 5.63416 7.81818 6.53846 7.81818C7.44277 7.81818 8.21209 8.42531 8.4972 9.27273H18.3077C18.69 9.27273 19 9.59834 19 10C19 10.4017 18.69 10.7273 18.3077 10.7273H8.4972C8.21209 11.5747 7.44277 12.1818 6.53846 12.1818C5.63416 12.1818 4.86484 11.5747 4.57972 10.7273H1.69231C1.30996 10.7273 1 10.4017 1 10C1 9.59834 1.30996 9.27273 1.69231 9.27273H4.57972ZM13.4615 15.0909C13.0792 15.0909 12.7692 15.4165 12.7692 15.8182C12.7692 16.2198 13.0792 16.5455 13.4615 16.5455C13.8439 16.5455 14.1538 16.2198 14.1538 15.8182C14.1538 15.4165 13.8439 15.0909 13.4615 15.0909ZM11.5028 15.0909C11.7879 14.2435 12.5572 13.6364 13.4615 13.6364C14.3658 13.6364 15.1352 14.2435 15.4203 15.0909H18.3077C18.69 15.0909 19 15.4165 19 15.8182C19 16.2198 18.69 16.5455 18.3077 16.5455H15.4203C15.1352 17.3929 14.3658 18 13.4615 18C12.5572 18 11.7879 17.3929 11.5028 16.5455H1.69231C1.30996 16.5455 1 16.2198 1 15.8182C1 15.4165 1.30996 15.0909 1.69231 15.0909H11.5028Z"/>
</svg>
