<svg viewBox="0 0 20 20" xmlns="http://www.w3.org/2000/svg">
	<path fill-rule="evenodd" clip-rule="evenodd" d="M3.8664 13.0344C4.60873 12.292 5.61555 11.875 6.66536 11.875H13.332C14.3818 11.875 15.3887 12.292 16.131 13.0344C16.8733 13.7767 17.2904 14.7835 17.2904 15.8333V17.5C17.2904 17.8452 17.0105 18.125 16.6654 18.125C16.3202 18.125 16.0404 17.8452 16.0404 17.5V15.8333C16.0404 15.115 15.755 14.4262 15.2471 13.9183C14.7392 13.4103 14.0503 13.125 13.332 13.125H6.66536C5.94707 13.125 5.25819 13.4103 4.75028 13.9183C4.24237 14.4262 3.95703 15.115 3.95703 15.8333V17.5C3.95703 17.8452 3.67721 18.125 3.33203 18.125C2.98685 18.125 2.70703 17.8452 2.70703 17.5V15.8333C2.70703 14.7835 3.12407 13.7767 3.8664 13.0344Z"/>
	<path fill-rule="evenodd" clip-rule="evenodd" d="M10.0013 3.125C8.50553 3.125 7.29297 4.33756 7.29297 5.83333C7.29297 7.3291 8.50553 8.54167 10.0013 8.54167C11.4971 8.54167 12.7096 7.3291 12.7096 5.83333C12.7096 4.33756 11.4971 3.125 10.0013 3.125ZM6.04297 5.83333C6.04297 3.64721 7.81518 1.875 10.0013 1.875C12.1874 1.875 13.9596 3.64721 13.9596 5.83333C13.9596 8.01946 12.1874 9.79167 10.0013 9.79167C7.81518 9.79167 6.04297 8.01946 6.04297 5.83333Z"/>
</svg>
